<?xml version="1.0" encoding="UTF-8"?>
<svg version="1.1" xmlns="http://www.w3.org/2000/svg" width="64" height="64">
<path d="M0 0 C1.15628906 0.00607269 1.15628906 0.00607269 2.3359375 0.01226807 C3.12742187 0.01035461 3.91890625 0.00844116 4.734375 0.00646973 C6.4088574 0.00510789 8.08335035 0.00880425 9.7578125 0.01715088 C12.32576131 0.02785067 14.89301053 0.01725582 17.4609375 0.00445557 C19.08593905 0.00577716 20.71094016 0.00833956 22.3359375 0.01226807 C23.10679688 0.0082196 23.87765625 0.00417114 24.671875 0 C30.10601618 0.04797174 30.10601618 0.04797174 32.3359375 2.27789307 C32.58317566 4.52375793 32.58317566 4.52375793 32.57885742 7.35430908 C32.58347237 8.94089073 32.58347237 8.94089073 32.58818054 10.55952454 C32.58099503 11.70537521 32.57380951 12.85122589 32.56640625 14.03179932 C32.56594803 15.20298813 32.56548981 16.37417694 32.5650177 17.58085632 C32.56199266 20.0598756 32.55409889 22.53889294 32.54174805 25.0178833 C32.52349721 28.82792843 32.52123826 32.63773068 32.52148438 36.44781494 C32.51656921 38.85081185 32.51074089 41.2538071 32.50390625 43.65679932 C32.50279343 44.80467422 32.5016806 45.95254913 32.50053406 47.13520813 C32.49415421 48.18977707 32.48777435 49.24434601 32.48120117 50.33087158 C32.47548347 51.73080101 32.47548347 51.73080101 32.46965027 53.15901184 C32.3359375 55.27789307 32.3359375 55.27789307 31.3359375 56.27789307 C24.63145382 57.07813712 21.3365977 53.73013523 16.23828125 49.83258057 C13.48230154 47.95272194 13.48230154 47.95272194 10.7421875 48.84039307 C8.36408782 50.26107599 6.12712984 51.75818963 3.8984375 53.40289307 C0.24477493 55.90983016 -2.12267328 57.07263618 -6.6640625 56.27789307 C-8.32839709 54.61355848 -7.79998414 52.61818774 -7.80932617 50.33087158 C-7.81570602 49.27630264 -7.82208588 48.2217337 -7.82865906 47.13520813 C-7.82977188 45.98733322 -7.8308847 44.83945831 -7.83203125 43.65679932 C-7.83535965 42.48656723 -7.83868805 41.31633514 -7.84211731 40.11064148 C-7.84719159 37.62985631 -7.84952548 35.14906428 -7.84936523 32.66827393 C-7.85155107 28.86029887 -7.86970001 25.05261364 -7.88867188 21.24468994 C-7.89160574 18.84039406 -7.89359058 16.4360968 -7.89453125 14.03179932 C-7.90171677 12.88594864 -7.90890228 11.74009796 -7.91630554 10.55952454 C-7.91322891 9.50180344 -7.91015228 8.44408234 -7.90698242 7.35430908 C-7.90840744 6.4202272 -7.90983246 5.48614532 -7.91130066 4.52375793 C-7.37135163 -0.38103737 -4.18179429 0.03691622 0 0 Z " fill="#F44336" transform="translate(19.6640625,3.72210693359375)"/>
<path d="M0 0 C0.76376953 -0.01546875 1.52753906 -0.0309375 2.31445312 -0.046875 C6.07310075 -0.02070513 7.97859742 0.06822181 11.06640625 2.3515625 C13.14036626 5.32983406 13.13327602 6.93264986 12.5625 10.5 C10.875 13.5 10.875 13.5 8.5625 16.5 C7.98435547 17.34691406 7.98435547 17.34691406 7.39453125 18.2109375 C5.33619052 21.04864997 4.18670264 22.39891455 0.66796875 22.96875 C-2.4375 22.5 -2.4375 22.5 -4.73828125 20.3828125 C-5.40214844 19.47273438 -6.06601562 18.56265625 -6.75 17.625 C-7.42675781 16.72007813 -8.10351562 15.81515625 -8.80078125 14.8828125 C-11.3578316 11.16013777 -11.80111057 9.04513212 -11.4375 4.5 C-9.09264802 -0.63457706 -5.00857755 -0.10092851 0 0 Z " fill="#F4F0EF" transform="translate(31.4375,16.5)"/>
</svg>
