<?xml version="1.0" encoding="UTF-8"?>
<svg version="1.1" xmlns="http://www.w3.org/2000/svg" width="512" height="512">
<path d="M0 0 C1.54880859 0.02030273 1.54880859 0.02030273 3.12890625 0.04101562 C29.48821473 0.75030866 53.0898973 16.3281223 71.13671875 34.671875 C84 48.49071429 84 48.49071429 84 54.5 C84.94875 54.4175 85.8975 54.335 86.875 54.25 C95.85401119 54.3403321 102.54510779 59.12432788 108.8046875 65.1484375 C114.79229775 71.56221218 117.07800094 77.99945132 119 86.5 C119.76957031 86.066875 119.76957031 86.066875 120.5546875 85.625 C130.00815841 81.04149895 142.51279614 80.50834931 152.5 83.9375 C161.94356122 88.55326481 169.15535442 96.54978438 173.1015625 106.19140625 C175.55222917 115.21625263 175.4343839 126.89321254 171.35546875 135.375 C168.96849141 139.1171201 166.12387535 142.35857478 163 145.5 C164.69252072 149.16037974 166.9175485 152.00831991 169.46484375 155.109375 C173.39640776 161.23181056 174.53539835 167.17985647 174.4375 174.375 C174.42505249 175.55908447 174.42505249 175.55908447 174.41235352 176.76708984 C174.10612898 187.36180495 170.4205193 194.03779238 163 201.5 C164.69252072 205.16037974 166.9175485 208.00831991 169.46484375 211.109375 C173.39640776 217.23181056 174.53539835 223.17985647 174.4375 230.375 C174.42505249 231.55908447 174.42505249 231.55908447 174.41235352 232.76708984 C174.10612898 243.36180495 170.4205193 250.03779238 163 257.5 C164.69252072 261.16037974 166.9175485 264.00831991 169.46484375 267.109375 C173.39592019 273.23105128 174.53691162 279.18037334 174.4375 286.375 C174.42775146 287.16583984 174.41800293 287.95667969 174.40795898 288.77148438 C174.08966389 299.27630148 170.62830404 305.70990612 163.37109375 313.30078125 C155.79276483 320.32977496 148.22621151 322.85124962 138 322.75 C137.21882813 322.75773437 136.43765625 322.76546875 135.6328125 322.7734375 C131.03123632 322.75794398 127.3290818 322.24828303 123 320.5 C122.74347656 321.32242187 122.48695313 322.14484375 122.22265625 322.9921875 C119.5912594 330.66488 116.62279957 335.71589237 110.6953125 341.28125 C108.72784039 343.36245148 108.72784039 343.36245148 109.1171875 345.96875 C109.96087509 348.49920587 109.96087509 348.49920587 111.05078125 350.8671875 C112.26134623 354.22488624 112.22908077 357.06417417 112.1875 360.625 C112.18105469 361.84445312 112.17460937 363.06390625 112.16796875 364.3203125 C112 367.5 112 367.5 111 370.5 C110.900711 373.04907911 110.85631046 375.5716094 110.8581543 378.12084961 C110.85467987 378.89514816 110.85120544 379.66944672 110.84762573 380.46720886 C110.84027536 382.14833293 110.83492615 383.82946665 110.83133507 385.51060295 C110.82416846 388.17101289 110.80850143 390.83123852 110.78999329 393.49159241 C110.73752574 401.05548614 110.68952524 408.6192777 110.67407227 416.18334961 C110.6640002 420.81003148 110.63469848 425.43624793 110.59275246 430.06274605 C110.58042914 431.82616216 110.57532363 433.58964396 110.57755089 435.35310173 C110.5798996 437.81916003 110.557773 440.28387845 110.5300293 442.74975586 C110.53663071 443.4787207 110.54323212 444.20768555 110.55003357 444.95874023 C110.48796513 448.31562496 110.21413106 450.20489422 108.22077942 452.95204163 C105.84476079 454.60820698 104.78903282 455.00441977 101.9375 455.01757812 C101.14988281 455.03018677 100.36226563 455.04279541 99.55078125 455.05578613 C98.28814453 455.04364075 98.28814453 455.04364075 97 455.03125 C96.12730469 455.0350769 95.25460937 455.03890381 94.35546875 455.04284668 C92.51300908 455.0455649 90.67051076 455.03820994 88.828125 455.02148438 C86.00954066 455.00007248 83.19350515 455.02128801 80.375 455.046875 C78.58332771 455.04423171 76.79165701 455.03910669 75 455.03125 C74.15824219 455.03934692 73.31648438 455.04744385 72.44921875 455.05578613 C71.66160156 455.04317749 70.87398438 455.03056885 70.0625 455.01757812 C69.37285156 455.01439575 68.68320312 455.01121338 67.97265625 455.00793457 C64.94276473 454.227775 63.83149124 453.02407869 62 450.5 C61.60207869 447.7827774 61.44537425 445.46583485 61.4699707 442.74975586 C61.46123932 441.97370499 61.45250793 441.19765411 61.44351196 440.39808655 C61.41914453 437.83677007 61.42254616 435.27626137 61.42578125 432.71484375 C61.41333694 430.93411381 61.39900295 429.15339616 61.38285828 427.37269592 C61.34481265 422.68685375 61.32964155 418.00122298 61.32006836 413.31524658 C61.30033301 405.81119984 61.24350981 398.30731448 61.19130516 390.80343819 C61.17594591 388.18046277 61.16876525 385.55756753 61.16316223 382.93455505 C61.15614658 381.32998618 61.14904571 379.72541767 61.1418457 378.12084961 C61.14237442 377.38986053 61.14290314 376.65887146 61.14344788 375.9057312 C61.12507424 372.82766265 60.98146106 370.44438318 60 367.5 C59.49191671 359.7224173 59.50754246 353.48491507 63 346.5 C62.66300681 342.73180344 60.78472037 340.98667614 58.1875 338.375 C51.15105169 330.65760508 49.38990944 322.75461818 49 312.5 C48.19046875 312.82226562 47.3809375 313.14453125 46.546875 313.4765625 C37.64984416 316.04376743 25.63739004 316.06229513 17.23828125 311.95703125 C7.94977345 305.91058551 0.93123877 298.29460539 -2 287.5 C-3.19118049 276.71771761 -2.98893978 265.99523638 3.82421875 257.125 C5.49038316 255.17832516 7.19381154 253.31633558 9 251.5 C7.30747928 247.83962026 5.0824515 244.99168009 2.53515625 241.890625 C-1.48828632 235.62511137 -2.46737725 229.72237674 -2.3125 222.375 C-2.31733398 221.21677734 -2.31733398 221.21677734 -2.32226562 220.03515625 C-2.27900877 215.41847025 -1.51103684 211.90026052 0 207.5 C-17.37028308 210.77681969 -34.69092212 214.25938514 -51.99377632 217.87430954 C-56.11827525 218.73552833 -60.2439359 219.59109272 -64.36985779 220.44546509 C-65.07500489 220.59149906 -65.780152 220.73753302 -66.5066672 220.88799226 C-67.94420263 221.18567292 -69.38174233 221.48333296 -70.81928623 221.78097272 C-80.37751668 223.76000969 -89.93510003 225.74191212 -99.48901367 227.74169922 C-106.00505877 229.10556866 -112.52304534 230.45969051 -119.04344696 231.80258334 C-122.47160073 232.5090092 -125.89859679 233.22021207 -129.32324409 233.94346237 C-133.12336253 234.7459134 -136.92772735 235.52685992 -140.73266602 236.30615234 C-141.84700516 236.5450116 -142.9613443 236.78387085 -144.10945129 237.02996826 C-150.40619565 238.29829981 -155.68716771 238.70413885 -162 237.5 C-163.06249891 237.31340631 -163.06249891 237.31340631 -164.14646244 237.12304306 C-166.39294583 236.71076674 -168.62847265 236.25962922 -170.86523438 235.79760742 C-172.11836174 235.54367973 -172.11836174 235.54367973 -173.39680481 235.28462219 C-176.13004561 234.72933625 -178.86196803 234.16788472 -181.59375 233.60546875 C-183.5098753 233.21285555 -185.42601321 232.82030389 -187.34216309 232.42781067 C-191.34707092 231.60621545 -195.35122316 230.78103992 -199.35498047 229.95385742 C-204.46697102 228.89843084 -209.58157796 227.85631997 -214.69695282 226.81743908 C-218.6516701 226.01195281 -222.60442975 225.19716508 -226.55671692 224.37984657 C-228.44093588 223.99178078 -230.32584884 223.60706803 -232.21147156 223.22588158 C-234.85469227 222.69054618 -237.49488621 222.14212033 -240.13476562 221.59057617 C-240.90178299 221.43821503 -241.66880035 221.28585388 -242.45906067 221.12887573 C-255.03426484 218.45515899 -265.47729161 212.02033585 -273 201.5 C-276.85836599 194.40294498 -278.14897605 188.37754838 -278.17700195 180.32592773 C-278.18357315 179.50420578 -278.19014435 178.68248383 -278.19691467 177.83586121 C-278.21661028 175.1184377 -278.22830456 172.40106949 -278.23828125 169.68359375 C-278.24235678 168.75219133 -278.2464323 167.82078892 -278.25063133 166.86116219 C-278.27148036 161.92721912 -278.28578476 156.99330373 -278.29516602 152.05932617 C-278.30620259 146.98442477 -278.34057402 141.90996518 -278.38033772 136.83521938 C-278.40659708 132.91532119 -278.4148663 128.99552657 -278.41844749 125.07554817 C-278.4232927 123.20620822 -278.43484712 121.33687225 -278.45348549 119.46761894 C-278.58226402 105.69143645 -277.77685059 94.1328882 -268 83.5 C-259.51733517 74.91174183 -249.95262173 71.6484388 -238.5859375 68.25390625 C-237.24429718 67.84763342 -235.90284605 67.4407354 -234.56156921 67.03326416 C-230.93026383 65.93211756 -227.29629572 64.84001335 -223.66176224 63.74957657 C-219.78002048 62.58327525 -215.90081386 61.40859616 -212.02124023 60.23510742 C-203.12851516 57.54722747 -194.23190918 54.87234582 -185.33423615 52.20089722 C-183.078525 51.52357857 -180.82290446 50.8459592 -178.56732178 50.16821289 C-165.90058046 46.3622333 -153.2327136 42.56002596 -140.56176758 38.76806641 C-123.69905771 33.72056971 -106.84562306 28.64331366 -90 23.5390625 C-88.03072057 22.9425659 -86.06143652 22.34608455 -84.09214783 21.74961853 C-75.42404794 19.12388957 -66.75635119 16.49685918 -58.09034157 13.86423874 C-54.51099501 12.77741348 -50.93103612 11.69261553 -47.35093689 10.60827255 C-45.69453133 10.10607711 -44.03839148 9.60300421 -42.3825531 9.0989418 C-34.53741497 6.71103781 -26.68460053 4.35945194 -18.77319336 2.19946289 C-17.61355576 1.88255997 -16.45391815 1.56565704 -15.25914001 1.239151 C-10.15624383 0.08184852 -5.21349653 -0.10147074 0 0 Z M96.625 123.4375 C91.1146125 125.69102553 85.91151513 126.27522756 80 126.5 C80.144375 127.08523437 80.28875 127.67046875 80.4375 128.2734375 C84.54173532 147.25552585 81.73894933 163.79890921 72 180.5 C68.1115752 185.98852881 63.60548638 189.8392742 58 193.5 C59.69252072 197.16037974 61.9175485 200.00831991 64.46484375 203.109375 C68.39640776 209.23181056 69.53539835 215.17985647 69.4375 222.375 C69.42920166 223.16438965 69.42090332 223.9537793 69.41235352 224.76708984 C69.10612898 235.36180495 65.4205193 242.03779238 58 249.5 C59.34888816 252.41721268 60.91524725 254.75949026 62.9375 257.25 C68.69094384 264.88383768 69.54403511 272.06624358 70 281.5 C70.969375 281.17515625 71.93875 280.8503125 72.9375 280.515625 C77.31200558 279.27016717 81.47709616 279.20446741 86 279.25 C86.76828125 279.24226562 87.5365625 279.23453125 88.328125 279.2265625 C93.25405629 279.24331737 97.32795306 279.93436725 102 281.5 C102.32871094 280.33984375 102.32871094 280.33984375 102.6640625 279.15625 C104.53288598 273.01800053 106.4700737 268.13638962 110.6328125 263.21875 C112.07365584 261.40740409 113.0342208 259.59712055 114 257.5 C113.54109375 257.03851563 113.0821875 256.57703125 112.609375 256.1015625 C104.53231703 247.51544625 102.38690699 239.69446152 102.52929688 228.11816406 C102.94424993 217.58983388 106.61755908 210.92391531 114 203.5 C112.30747928 199.83962026 110.0824515 196.99168009 107.53515625 193.890625 C103.60359224 187.76818944 102.46460165 181.82014353 102.5625 174.625 C102.57079834 173.83561035 102.57909668 173.0462207 102.58764648 172.23291016 C102.89387102 161.63819505 106.5794807 154.96220762 114 147.5 C112.65111184 144.58278732 111.08475275 142.24050974 109.0625 139.75 C104.78640245 134.13892565 102.87367472 128.48939775 102 121.5 C100.11777639 121.5 98.31499094 122.68846616 96.625 123.4375 Z " fill="#1D315E" transform="translate(290,21.5)"/>
<path d="M0 0 C0.76256104 0.00499512 1.52512207 0.00999023 2.31079102 0.01513672 C21.41105072 0.58788776 36.70599448 11.21434183 51.3125 22.5 C52.12203125 23.12003906 52.9315625 23.74007812 53.765625 24.37890625 C59.29295072 28.89433967 63.54340002 34.45540615 67.3125 40.5 C67.3125 41.16 67.3125 41.82 67.3125 42.5 C65.80859375 43.5078125 65.80859375 43.5078125 63.75 44.625 C56.66886617 48.89874626 50.85729945 55.54590323 48.3125 63.5 C47.43418773 68.14752664 46.81440268 72.7979644 46.3125 77.5 C36.97052191 76.58093966 27.7600946 75.50688819 18.54882812 73.67431641 C12.28376194 72.44661965 5.98664323 71.56199668 -0.33813477 70.70214844 C-5.16744596 70.0353161 -9.96826106 69.29107317 -14.765625 68.421875 C-36.49668512 64.49124114 -54.2538977 65.75480403 -75.77026367 70.47680664 C-77.88143567 70.93890867 -79.99432498 71.39249527 -82.10742188 71.84570312 C-89.09756725 73.36129872 -96.01241457 74.88103206 -102.6875 77.5 C-103.80195498 79.72890995 -103.85230286 81.03055106 -103.875 83.5 C-103.88917969 84.20125 -103.90335938 84.9025 -103.91796875 85.625 C-103.85262323 87.74524938 -103.85262323 87.74524938 -101.6875 89.5 C-93.5536521 90.61239209 -85.7146192 88.65361755 -77.875 86.6875 C-75.57036781 86.13648737 -73.26568083 85.58570384 -70.9609375 85.03515625 C-68.09621299 84.33740392 -65.23258043 83.63621263 -62.37207031 82.92138672 C-44.65211739 78.50686478 -28.55108985 81.35593821 -10.875 84.4375 C-7.58408963 85.00126219 -4.2926148 85.56147878 -1.00056458 86.11854553 C1.03155911 86.46344568 3.06296337 86.8126242 5.09346008 87.16697693 C10.49702114 88.09530474 15.85594554 88.80983501 21.3223114 89.24855042 C23.3125 89.5 23.3125 89.5 25.3125 90.5 C27.10302859 90.60498213 28.89510606 90.68413776 30.6875 90.75 C41.81358762 91.64275194 50.91757171 96.12201576 58.3125 104.5 C65.19979554 113.72837187 68.6824985 123.97046206 67.3125 135.5 C64.75309716 147.60293885 59.55946663 157.31964382 49.3125 164.5 C46.3928142 166.11086113 43.46067843 167.40565791 40.3125 168.5 C39.37770813 168.84107788 38.44291626 169.18215576 37.47979736 169.53356934 C31.8602641 171.11196843 26.0548804 170.79175769 20.26464844 170.78710938 C18.2643828 170.79759747 16.26411717 170.80808612 14.26385164 170.81859589 C12.12517129 170.82793692 9.98652977 170.83242906 7.84783173 170.83552551 C3.38531993 170.84226206 -1.07704213 170.86404028 -5.53948975 170.88806152 C-15.81132895 170.94108078 -26.08321413 170.97459435 -36.35513306 171.00782013 C-45.7833087 171.0385022 -55.21141954 171.07329401 -64.63951087 171.12413073 C-69.07688277 171.14748874 -73.51414937 171.1612221 -77.95157671 171.16762543 C-80.04422931 171.17212822 -82.13680366 171.18113298 -84.22943115 171.19218445 C-86.78232 171.20564252 -89.33526008 171.21195114 -91.88818359 171.20991516 C-93.57044037 171.22232491 -93.57044037 171.22232491 -95.28668213 171.23498535 C-96.2629871 171.23791847 -97.23929207 171.24085159 -98.24518204 171.2438736 C-100.94460193 171.33564487 -100.94460193 171.33564487 -103.6875 173.5 C-104.20223516 175.59593974 -104.20223516 175.59593974 -104.125 177.9375 C-104.14433594 178.71996094 -104.16367188 179.50242188 -104.18359375 180.30859375 C-103.86502425 182.59170502 -103.86502425 182.59170502 -102.14575195 184.10498047 C-98.7766424 186.01689744 -95.63505394 185.97835197 -91.859375 186.01171875 C-91.11036926 186.02966995 -90.36136353 186.04762115 -89.58966064 186.06611633 C-87.20566376 186.12014543 -84.8218662 186.15409003 -82.4375 186.1875 C-80.81768064 186.22067975 -79.19788756 186.25517003 -77.578125 186.29101562 C-73.61472734 186.37586716 -69.65138803 186.44271289 -65.6875 186.5 C-68.94154132 188.66936088 -70.99652297 189.10074694 -74.8125 189.796875 C-76.06272949 190.03027588 -77.31295898 190.26367676 -78.60107422 190.50415039 C-79.59926178 190.68616501 -79.59926178 190.68616501 -80.61761475 190.87185669 C-84.14663204 191.51656599 -87.67106975 192.18521782 -91.1953125 192.85546875 C-91.91228302 192.99162094 -92.62925354 193.12777313 -93.36795044 193.26805115 C-100.13043698 194.56350137 -106.84810572 196.0379422 -113.5625 197.5625 C-122.50489699 199.58136608 -131.45523587 201.54063116 -140.4375 203.375 C-141.4672998 203.590354 -142.49709961 203.80570801 -143.55810547 204.02758789 C-144.52377441 204.22215576 -145.48944336 204.41672363 -146.484375 204.6171875 C-147.32323242 204.78847168 -148.16208984 204.95975586 -149.02636719 205.13623047 C-154.76319629 205.92043922 -159.87265178 205.42781017 -165.4921875 204.14453125 C-166.1243367 204.00278473 -166.7564859 203.86103821 -167.40779114 203.71499634 C-168.75925369 203.41135084 -170.1099965 203.10448658 -171.46005249 202.79464722 C-175.05707769 201.96975352 -178.65971053 201.16998798 -182.26171875 200.3671875 C-182.98396133 200.2055864 -183.70620392 200.04398529 -184.45033264 199.87748718 C-190.74122459 198.47469038 -197.05099205 197.18250992 -203.375 195.9375 C-204.35581543 195.74196533 -205.33663086 195.54643066 -206.34716797 195.3449707 C-211.35614089 194.34781029 -216.36792164 193.36859969 -221.38520813 192.41407776 C-223.3605699 192.03567564 -225.33439885 191.65014064 -227.30786133 191.26196289 C-229.82219637 190.76814629 -232.33888547 190.2861111 -234.8581543 189.81811523 C-243.19643649 188.16003699 -251.97830628 185.98614651 -257.125 178.625 C-257.57746094 178.00882813 -258.02992188 177.39265625 -258.49609375 176.7578125 C-261.3697992 171.31190512 -261.98804499 165.76494177 -261.99389648 159.70385742 C-262.00222 158.95811966 -262.01054352 158.2123819 -262.01911926 157.44404602 C-262.04306044 154.99779926 -262.05197168 152.55181995 -262.05859375 150.10546875 C-262.0675721 148.39064969 -262.07669415 146.67583137 -262.08595276 144.96101379 C-262.10240214 141.37267155 -262.11013547 137.78442215 -262.11303711 134.19604492 C-262.11841699 129.61979875 -262.15609776 125.04443687 -262.20178127 120.46844006 C-262.2316647 116.92772814 -262.2387631 113.38722632 -262.23976326 109.84639931 C-262.24394312 108.16043358 -262.25628672 106.47446591 -262.27728081 104.78862572 C-262.48040405 87.0681459 -262.48040405 87.0681459 -256.6875 79.5 C-250.27134612 73.39536292 -242.61764228 70.61781045 -234.1875 68.25 C-232.6832753 67.81751232 -231.17938696 67.38385354 -229.67578125 66.94921875 C-228.87350098 66.7176709 -228.0712207 66.48612305 -227.24462891 66.24755859 C-222.60933686 64.89246367 -217.99312963 63.4747638 -213.375 62.0625 C-202.01107249 58.59339314 -190.6321808 55.17588168 -179.24902344 51.77050781 C-168.56613754 48.57375131 -157.89210635 45.34949208 -147.22607422 42.09692383 C-141.32229152 40.29787701 -135.41374581 38.51598469 -129.5 36.75 C-123.00303485 34.80913618 -116.51511333 32.83958451 -110.03125 30.85546875 C-109.25311447 30.61738495 -108.47497894 30.37930115 -107.67326355 30.13400269 C-103.77039626 28.93948717 -99.86796183 27.74357823 -95.96606445 26.54589844 C-87.13755656 23.83927761 -78.29406682 21.19067164 -69.43188477 18.59643555 C-65.03336223 17.30845454 -60.63984671 16.00470301 -56.25 14.6875 C-55.4463501 14.44668701 -54.6427002 14.20587402 -53.81469727 13.95776367 C-48.87801131 12.47363782 -43.94869366 10.9669478 -39.0234375 9.4453125 C-37.87931396 9.09186768 -36.73519043 8.73842285 -35.55639648 8.37426758 C-33.33139495 7.68579147 -31.10691464 6.99562774 -28.88305664 6.3034668 C-25.82177623 5.35546814 -22.75641732 4.42295627 -19.6875 3.5 C-18.24370972 3.06083252 -18.24370972 3.06083252 -16.77075195 2.61279297 C-11.11278053 0.96653458 -5.89796566 -0.05265438 0 0 Z " fill="#FED394" transform="translate(289.6875,37.5)"/>
<path d="M0 0 C4.88469017 2.76348389 9.1239257 5.57651356 12.2578125 10.27734375 C12.7578125 13.21484375 12.7578125 13.21484375 12.2578125 16.27734375 C8.07798678 19.63004384 4.32357004 21.01449502 -0.8671875 22.15234375 C-2.28862644 22.48459779 -3.70916405 22.82072509 -5.12890625 23.16015625 C-5.8770459 23.33836914 -6.62518555 23.51658203 -7.39599609 23.70019531 C-37.08054244 31.00240838 -60.56974254 44.85885029 -81.40234375 67.2578125 C-83.7421875 69.27734375 -83.7421875 69.27734375 -87.7421875 69.27734375 C-87.7421875 51.25713956 -72.54287894 34.38806978 -60.7421875 22.27734375 C-45.23115959 7.13074528 -22.64877493 -10.50215471 0 0 Z " fill="#FFF1DD" transform="translate(131.7421875,106.72265625)"/>
<path d="M0 0 C10.34829973 4.39802739 16.75012736 12.224833 21.03515625 22.4765625 C24.77118278 33.42398907 23.32386744 43.41861011 19 54 C13.9924943 63.7779697 6.34454158 70.40412146 -4 74 C-4.93759659 74.34231659 -5.87519318 74.68463318 -6.84120178 75.037323 C-12.41888368 76.60383506 -18.16608519 76.26122023 -23.91186523 76.22705078 C-25.84460548 76.22748886 -25.84460548 76.22748886 -27.81639099 76.22793579 C-31.33244977 76.22850735 -34.84837085 76.21678506 -38.36439776 76.20278788 C-42.04525722 76.19024761 -45.72612016 76.18910743 -49.40699768 76.18673706 C-56.36957403 76.18053195 -63.33208723 76.16413431 -70.29463583 76.14403808 C-78.22450538 76.12164885 -86.15437801 76.11067806 -94.08427131 76.10064721 C-110.38955111 76.07976718 -126.69476749 76.04461013 -143 76 C-143 75.67 -143 75.34 -143 75 C-142.37438706 75.0031424 -141.74877413 75.00628481 -141.10420322 75.00952244 C-125.85412918 75.08301779 -110.60485554 75.1065857 -95.35468388 75.07515812 C-87.97959384 75.06115297 -80.6052239 75.06380439 -73.23022461 75.10620117 C-66.7991529 75.14312874 -60.36895942 75.14826041 -53.93784994 75.11582941 C-50.53486278 75.09976281 -47.13352181 75.09919821 -43.73066902 75.13676643 C-39.92329345 75.17079099 -36.12002468 75.14861127 -32.31274414 75.11352539 C-30.63606911 75.14803551 -30.63606911 75.14803551 -28.92552185 75.1832428 C-22.63698926 75.05843361 -19.42161106 74.10028231 -14.87229919 69.62522888 C-1.33182237 54.31484657 2.84923783 35.85639528 2.12695312 15.94726562 C1.90493738 12.54188559 1.27883033 9.2815218 0.4375 5.98046875 C0 4 0 4 0 0 Z " fill="#C7A777" transform="translate(334,132)"/>
<path d="M0 0 C5.08139827 3.45535082 8.1068201 7.09710762 10 13 C11.15279118 19.62266772 9.55969023 25.35926009 6 31 C2.45098419 34.99628903 -1.71099809 37.65182588 -7.06640625 38.21875 C-13.58035285 38.48327575 -18.14923923 36.79001257 -23.6875 33.3125 C-28.1147315 28.8852685 -30.21980141 24.28031331 -30.5 18 C-30.20337067 11.95617737 -28.55248984 7.35732965 -24.05859375 3.20703125 C-16.72517713 -2.47873007 -8.68918546 -4.05495322 0 0 Z " fill="#6E84B6" transform="translate(386,318)"/>
<path d="M0 0 C5.23724692 2.96387807 8.8638854 7.84165621 10.75 13.5 C11.57369251 20.22457166 10.37194796 25.76060555 6.75 31.5 C3.11428009 35.59392022 -1.04732761 38.13921368 -6.50390625 38.75390625 C-12.62428172 39.04357288 -17.24505956 38.12272972 -22.25 34.5 C-27.17243563 29.92827225 -29.31108548 25.32021005 -29.625 18.6875 C-29.48680237 13.52044405 -28.43295461 9.61756178 -25.25 5.5 C-18.01976728 -1.17741814 -9.47805164 -4.14550621 0 0 Z " fill="#FBB64C" transform="translate(437.25,289.5)"/>
<path d="M0 0 C5.23724692 2.96387807 8.8638854 7.84165621 10.75 13.5 C11.57369251 20.22457166 10.37194796 25.76060555 6.75 31.5 C3.11428009 35.59392022 -1.04732761 38.13921368 -6.50390625 38.75390625 C-12.62428172 39.04357288 -17.24505956 38.12272972 -22.25 34.5 C-27.17243563 29.92827225 -29.31108548 25.32021005 -29.625 18.6875 C-29.48680237 13.52044405 -28.43295461 9.61756178 -25.25 5.5 C-18.01976728 -1.17741814 -9.47805164 -4.14550621 0 0 Z " fill="#FBB64C" transform="translate(437.25,233.5)"/>
<path d="M0 0 C5.23724692 2.96387807 8.8638854 7.84165621 10.75 13.5 C11.57369251 20.22457166 10.37194796 25.76060555 6.75 31.5 C3.11428009 35.59392022 -1.04732761 38.13921368 -6.50390625 38.75390625 C-12.62428172 39.04357288 -17.24505956 38.12272972 -22.25 34.5 C-27.17243563 29.92827225 -29.31108548 25.32021005 -29.625 18.6875 C-29.48680237 13.52044405 -28.43295461 9.61756178 -25.25 5.5 C-18.01976728 -1.17741814 -9.47805164 -4.14550621 0 0 Z " fill="#FBB64C" transform="translate(437.25,177.5)"/>
<path d="M0 0 C5.23724692 2.96387807 8.8638854 7.84165621 10.75 13.5 C11.57369251 20.22457166 10.37194796 25.76060555 6.75 31.5 C3.11428009 35.59392022 -1.04732761 38.13921368 -6.50390625 38.75390625 C-12.62428172 39.04357288 -17.24505956 38.12272972 -22.25 34.5 C-27.17243563 29.92827225 -29.31108548 25.32021005 -29.625 18.6875 C-29.48680237 13.52044405 -28.43295461 9.61756178 -25.25 5.5 C-18.01976728 -1.17741814 -9.47805164 -4.14550621 0 0 Z " fill="#FBB64C" transform="translate(437.25,121.5)"/>
<path d="M0 0 C5.23724692 2.96387807 8.8638854 7.84165621 10.75 13.5 C11.57369251 20.22457166 10.37194796 25.76060555 6.75 31.5 C3.11428009 35.59392022 -1.04732761 38.13921368 -6.50390625 38.75390625 C-12.62428172 39.04357288 -17.24505956 38.12272972 -22.25 34.5 C-27.17243563 29.92827225 -29.31108548 25.32021005 -29.625 18.6875 C-29.48680237 13.52044405 -28.43295461 9.61756178 -25.25 5.5 C-18.01976728 -1.17741814 -9.47805164 -4.14550621 0 0 Z " fill="#FBB64C" transform="translate(381.25,93.5)"/>
<path d="M0 0 C4.46341087 3.02306065 7.39332313 7.3440319 9.08203125 12.41015625 C9.90572376 19.13472791 8.70397921 24.6707618 5.08203125 30.41015625 C1.44631134 34.50407647 -2.71529636 37.04936993 -8.171875 37.6640625 C-14.29225047 37.95372913 -18.91302831 37.03288597 -23.91796875 33.41015625 C-28.84040438 28.8384285 -30.97905423 24.2303663 -31.29296875 17.59765625 C-31.15477112 12.4306003 -30.10092336 8.52771803 -26.91796875 4.41015625 C-18.77912363 -3.10640292 -10.15066715 -4.95978307 0 0 Z " fill="#FCB64C" transform="translate(334.91796875,282.58984375)"/>
<path d="M0 0 C4.46341087 3.02306065 7.39332313 7.3440319 9.08203125 12.41015625 C9.90572376 19.13472791 8.70397921 24.6707618 5.08203125 30.41015625 C1.44631134 34.50407647 -2.71529636 37.04936993 -8.171875 37.6640625 C-14.29225047 37.95372913 -18.91302831 37.03288597 -23.91796875 33.41015625 C-28.84040438 28.8384285 -30.97905423 24.2303663 -31.29296875 17.59765625 C-31.15477112 12.4306003 -30.10092336 8.52771803 -26.91796875 4.41015625 C-18.77912363 -3.10640292 -10.15066715 -4.95978307 0 0 Z " fill="#FCB64C" transform="translate(334.91796875,226.58984375)"/>
<path d="M0 0 C5.28 0 10.56 0 16 0 C16 17.49 16 34.98 16 53 C10.72 53 5.44 53 0 53 C0 35.51 0 18.02 0 0 Z " fill="#A87055" transform="translate(368,407)"/>
<path d="M0 0 C0.76183594 -0.01417969 1.52367187 -0.02835937 2.30859375 -0.04296875 C4.79597315 0.21137334 6.41058106 0.94732804 8.5625 2.1875 C7.881875 2.6825 7.20125 3.1775 6.5 3.6875 C0.58293706 8.72329825 -5.13207903 14.25827631 -6.4375 22.1875 C-6.74769215 27.52062825 -6.61233349 32.85184082 -6.4375 38.1875 C-10.99383804 37.19321437 -13.87889385 35.37156622 -16.64453125 31.49609375 C-19.68742161 26.17372369 -20.36140436 21.23137435 -19.4375 15.1875 C-17.53912781 8.49573804 -13.30867474 4.67162628 -7.4375 1.1875 C-4.66697819 0.26399273 -2.87061242 0.02420415 0 0 Z " fill="#CFD6E6" transform="translate(375.4375,315.8125)"/>
<path d="M0 0 C-0.33773438 0.49628906 -0.67546875 0.99257813 -1.0234375 1.50390625 C-5.88220004 8.90439139 -8.2695329 16.10070009 -7 25 C-5.24790817 30.34094908 -3.1206524 35.3190214 0 40 C-6.9056376 39.75337009 -11.11559182 37.96005167 -16 33 C-19.6449659 28.21854193 -20.66721034 23.40691064 -20.375 17.453125 C-19.42760006 11.25555037 -16.86217955 7.3807138 -11.9375 3.5625 C-7.93567693 0.74355745 -4.89934077 -0.13241462 0 0 Z " fill="#F8E4C5" transform="translate(324,280)"/>
<path d="M0 0 C-0.33773438 0.49628906 -0.67546875 0.99257812 -1.0234375 1.50390625 C-5.88220004 8.90439139 -8.2695329 16.10070009 -7 25 C-5.24790817 30.34094908 -3.1206524 35.3190214 0 40 C-6.9056376 39.75337009 -11.11559182 37.96005167 -16 33 C-19.6449659 28.21854193 -20.66721034 23.40691064 -20.375 17.453125 C-19.42760006 11.25555037 -16.86217955 7.3807138 -11.9375 3.5625 C-7.93567693 0.74355745 -4.89934077 -0.13241462 0 0 Z " fill="#F8E4C5" transform="translate(324,224)"/>
<path d="M0 0 C6.12990894 0.50040073 11.31960122 1.96728076 15.515625 6.71484375 C19.63001471 12.30710332 20.77300882 17.09735786 20 24 C17.89220243 31.44353657 14.38429921 35.44249213 7.75 39.3125 C3.52320078 40.3691998 -0.66672854 40.15145415 -5 40 C-5 39.67 -5 39.34 -5 39 C-3.39125 38.7525 -3.39125 38.7525 -1.75 38.5 C0.73949449 37.80455417 1.76010963 37.3222196 3.3203125 35.2265625 C7.34751331 27.201992 8.45436366 18.93629849 5.75 10.25 C4.32228124 6.40403991 2.4426206 3.28490357 0 0 Z " fill="#C7903E" transform="translate(428,288)"/>
<path d="M0 0 C6.12990894 0.50040073 11.31960122 1.96728076 15.515625 6.71484375 C19.63001471 12.30710332 20.77300882 17.09735786 20 24 C17.89220243 31.44353657 14.38429921 35.44249213 7.75 39.3125 C3.52320078 40.3691998 -0.66672854 40.15145415 -5 40 C-5 39.67 -5 39.34 -5 39 C-3.39125 38.7525 -3.39125 38.7525 -1.75 38.5 C0.73949449 37.80455417 1.76010963 37.3222196 3.3203125 35.2265625 C7.34751331 27.201992 8.45436366 18.93629849 5.75 10.25 C4.32228124 6.40403991 2.4426206 3.28490357 0 0 Z " fill="#C7903E" transform="translate(428,232)"/>
<path d="M0 0 C6.12990894 0.50040073 11.31960122 1.96728076 15.515625 6.71484375 C19.63001471 12.30710332 20.77300882 17.09735786 20 24 C17.89220243 31.44353657 14.38429921 35.44249213 7.75 39.3125 C3.52320078 40.3691998 -0.66672854 40.15145415 -5 40 C-5 39.67 -5 39.34 -5 39 C-3.39125 38.7525 -3.39125 38.7525 -1.75 38.5 C0.73949449 37.80455417 1.76010963 37.3222196 3.3203125 35.2265625 C7.34751331 27.201992 8.45436366 18.93629849 5.75 10.25 C4.32228124 6.40403991 2.4426206 3.28490357 0 0 Z " fill="#C7903E" transform="translate(428,176)"/>
<path d="M0 0 C6.12990894 0.50040073 11.31960122 1.96728076 15.515625 6.71484375 C19.63001471 12.30710332 20.77300882 17.09735786 20 24 C17.89220243 31.44353657 14.38429921 35.44249213 7.75 39.3125 C3.52320078 40.3691998 -0.66672854 40.15145415 -5 40 C-5 39.67 -5 39.34 -5 39 C-3.39125 38.7525 -3.39125 38.7525 -1.75 38.5 C0.73949449 37.80455417 1.76010963 37.3222196 3.3203125 35.2265625 C7.34751331 27.201992 8.45436366 18.93629849 5.75 10.25 C4.32228124 6.40403991 2.4426206 3.28490357 0 0 Z " fill="#C7903E" transform="translate(428,120)"/>
<path d="M0 0 C6.12990894 0.50040073 11.31960122 1.96728076 15.515625 6.71484375 C19.63001471 12.30710332 20.77300882 17.09735786 20 24 C17.89220243 31.44353657 14.38429921 35.44249213 7.75 39.3125 C3.52320078 40.3691998 -0.66672854 40.15145415 -5 40 C-5 39.67 -5 39.34 -5 39 C-3.39125 38.7525 -3.39125 38.7525 -1.75 38.5 C0.73949449 37.80455417 1.76010963 37.3222196 3.3203125 35.2265625 C7.34751331 27.201992 8.45436366 18.93629849 5.75 10.25 C4.32228124 6.40403991 2.4426206 3.28490357 0 0 Z " fill="#C7903E" transform="translate(372,92)"/>
<path d="M0 0 C3.35957738 0.06634713 4.23790314 0.36702122 7.1875 2.3125 C9.8399214 6.2509439 10.87001018 9.6215886 10.25 14.375 C7.875 17.375 7.875 17.375 5.25 19.375 C4.92 19.705 4.59 20.035 4.25 20.375 C1.31771337 20.66822866 -0.89491883 20.87504247 -3.75 20.375 C-6.6875 17.9375 -6.6875 17.9375 -8.75 15.375 C-9.08 15.045 -9.41 14.715 -9.75 14.375 C-10.04322866 11.44271337 -10.25004247 9.23008117 -9.75 6.375 C-7.3125 3.4375 -7.3125 3.4375 -4.75 1.375 C-3.75 0.375 -3.75 0.375 0 0 Z " fill="#6A81B3" transform="translate(375.75,371.625)"/>
</svg>
