<svg version="1.1" id="Layer_1" xmlns="http://www.w3.org/2000/svg" xmlns:xlink="http://www.w3.org/1999/xlink" x="0px" y="0px"
	 width="100%" viewBox="0 0 500 500" enable-background="new 0 0 500 500" xml:space="preserve">
<path fill="#000000" opacity="1.000000" stroke="none" 
	d="
M1.000003,475.000000 
	C1.000000,317.102753 1.000000,159.205490 1.000000,1.000000 
	C65.355019,1.000000 129.710526,1.000000 194.850891,1.304751 
	C195.026031,2.942213 194.476181,4.306369 193.795547,5.601816 
	C191.651367,9.682833 193.441498,13.453731 196.711975,14.760803 
	C199.670670,15.943270 204.034409,15.487510 207.065201,14.144356 
	C210.990005,12.405018 210.827057,8.444268 208.937668,4.791448 
	C208.285629,3.530818 207.645538,2.263996 207.000000,1.000000 
	C304.944489,1.000000 402.889008,1.000000 501.000000,1.000000 
	C501.000000,158.355301 501.000000,315.710663 500.599243,473.669434 
	C499.853516,473.937469 499.271912,473.647461 499.197754,473.260284 
	C496.429138,458.798615 493.741913,444.321350 490.963379,429.861603 
	C489.730560,423.445892 488.623230,416.982697 486.919342,410.687103 
	C485.060638,403.819458 480.920258,399.612457 473.359894,397.737030 
	C465.803375,395.862518 458.592163,395.484467 451.076782,396.605194 
	C451.050171,396.382538 450.869659,395.971313 450.926941,395.506073 
	C450.988251,355.139191 451.003143,315.237579 450.953705,275.335999 
	C450.951874,273.847656 450.324677,272.360138 450.017792,270.437805 
	C449.698608,267.413635 449.375549,264.820282 448.998505,262.234772 
	C446.565186,245.549408 441.029816,229.748581 432.523254,215.406021 
	C424.918732,202.584366 415.953644,190.703156 403.533813,181.418503 
	C391.242676,172.230118 378.304993,166.469254 363.041870,165.660828 
	C363.363556,165.206421 363.671295,165.024658 364.254852,164.909454 
	C364.729004,164.670639 364.927307,164.365265 365.083801,164.055420 
	C365.041992,164.050949 365.048767,164.134781 365.304047,164.039215 
	C365.748260,163.643768 365.937195,163.343903 366.084045,163.040039 
	C366.041962,163.036072 366.047180,163.120453 366.306763,163.035889 
	C366.754944,162.650711 366.943481,162.350113 367.088501,162.045837 
	C367.044952,162.042145 367.052307,162.129211 367.309937,162.040253 
	C367.756042,161.651138 367.944458,161.350998 368.089569,161.047073 
	C368.046265,161.043289 368.053925,161.129868 368.311218,161.040253 
	C368.757416,160.650604 368.946289,160.350586 369.090942,160.046722 
	C369.046722,160.042892 369.054260,160.131302 369.312439,160.042145 
	C369.759064,159.651810 369.947540,159.350632 370.090576,159.045776 
	C370.045197,159.042114 370.052612,159.132904 370.311188,159.043457 
	C370.758514,158.652466 370.947266,158.350952 371.090576,158.045776 
	C371.045135,158.042099 371.052521,158.132980 371.311188,158.043549 
	C371.758362,157.652390 371.946869,157.350647 372.089996,157.045273 
	C372.044647,157.041656 372.052063,157.132370 372.311066,157.043213 
	C372.757538,156.651535 372.945007,156.349030 373.090576,156.044098 
	C373.048676,156.041687 373.059113,156.125015 373.317963,156.035370 
	C373.667023,155.630829 373.757202,155.315948 373.947144,154.734390 
	C374.377106,154.023117 374.707306,153.578506 375.299011,153.045929 
	C375.751953,152.654602 375.943390,152.351242 376.092682,152.044800 
	C376.050537,152.041718 376.060059,152.125656 376.317444,152.036652 
	C376.665527,151.635071 376.756256,151.322495 376.990295,150.679596 
	C378.060730,149.039856 379.345764,147.856201 379.857117,146.400711 
	C383.282837,136.650162 386.543915,126.841759 389.963989,116.667419 
	C391.051910,112.325432 391.980682,108.353951 393.025665,104.413269 
	C397.822510,86.324104 386.486725,67.346199 369.310425,62.044037 
	C359.217621,58.928471 349.168732,55.468681 338.857178,53.340801 
	C332.817017,52.094376 326.299469,53.161423 319.598328,53.113823 
	C313.607330,55.734474 307.579010,57.793030 302.516296,61.261211 
	C293.108032,67.706261 292.180389,78.541214 289.705109,88.839996 
	C286.767822,99.346886 284.385803,109.669685 281.506378,119.851814 
	C278.754150,129.584259 276.521790,139.094849 279.642395,149.302689 
	C285.474762,168.381058 302.577362,178.283188 322.349518,177.904602 
	C323.446869,178.017456 324.183899,178.052689 324.957550,178.455048 
	C325.050720,179.555573 325.107269,180.289001 325.087463,181.484497 
	C324.994354,206.606125 324.977600,231.265686 324.624817,256.104553 
	C323.017761,259.877655 321.746826,263.471466 320.243103,267.723480 
	C317.263489,266.378967 314.703979,265.067749 312.034027,264.044800 
	C295.658417,257.770752 279.304504,251.434921 262.848419,245.377640 
	C252.485672,241.563232 246.474472,240.028625 241.574387,249.116653 
	C226.649857,245.644669 213.365509,240.094009 204.103760,227.588303 
	C203.811081,227.193100 203.461548,226.672974 203.045975,226.563950 
	C200.940018,226.011505 198.622849,224.869141 196.741730,225.349930 
	C195.507187,225.665451 194.455261,228.296997 194.097076,230.049789 
	C193.607544,232.445358 194.363083,235.138260 193.696289,237.447052 
	C191.210541,246.054016 194.732315,252.867981 200.278793,258.627289 
	C208.427017,267.088165 217.115753,275.030823 225.643234,283.121490 
	C226.886368,284.300964 228.511429,285.077850 230.110565,286.385437 
	C237.010849,288.884613 243.854523,290.785583 250.489639,293.248444 
	C263.292664,298.000671 275.958191,303.121887 288.717865,307.992767 
	C300.117676,312.344543 311.567505,316.565216 323.190369,320.928986 
	C323.385437,321.014191 323.809448,321.053192 323.968658,321.413605 
	C324.300964,323.112549 324.734161,324.477081 324.603546,325.785278 
	C323.931976,332.513092 319.997681,336.736603 313.467468,339.128723 
	C300.337341,339.080536 287.664337,339.120270 274.528595,339.084839 
	C257.324860,339.006073 240.583740,338.974457 223.843048,339.042877 
	C222.197220,339.049622 220.553879,339.670074 218.520401,340.005615 
	C215.094925,341.026794 211.871017,341.684113 209.055298,343.134125 
	C198.515381,348.561798 191.531494,356.769348 189.600250,369.136902 
	C189.186264,378.226990 189.155777,387.100250 189.041229,396.182190 
	C188.957138,396.390869 188.908905,396.838257 188.450104,396.903687 
	C136.013138,396.977600 84.034981,396.990295 32.056816,396.990448 
	C23.395039,396.990479 16.639547,402.033325 15.003217,410.365295 
	C10.893718,431.290253 7.015211,452.260590 2.950858,473.194611 
	C2.814643,473.896240 1.672995,474.402618 1.000003,475.000000 
M51.451668,73.056992 
	C51.261250,73.364883 51.070835,73.672783 50.982006,73.982162 
	C50.982006,73.982162 50.977428,73.880669 50.437092,74.037148 
	C50.247028,74.348106 50.056969,74.659065 49.973915,74.972969 
	C49.973915,74.972969 49.967888,74.866089 49.427467,75.026970 
	C49.235378,75.338135 49.043289,75.649307 48.940887,75.958824 
	C48.940887,75.958824 48.922115,75.871101 48.284775,76.168274 
	C47.478756,77.770515 46.672741,79.372757 45.217175,81.247742 
	C44.139507,83.780487 43.061840,86.313240 41.443779,89.055695 
	C41.348587,89.391373 41.253395,89.727043 41.012241,90.433807 
	C41.012241,90.433807 40.994587,90.832184 40.340797,91.157906 
	C40.188446,92.105682 40.036098,93.053459 39.969032,93.991356 
	C39.969032,93.991356 39.952019,93.907204 39.299465,94.201538 
	C39.255856,95.135086 39.212246,96.068634 39.007214,97.403366 
	C39.007214,97.403366 38.989250,97.835442 38.270027,98.241714 
	C37.899567,101.824181 37.529106,105.406654 37.012173,109.411964 
	C37.012173,109.411964 36.960495,109.856468 36.212200,110.254219 
	C36.467491,113.215515 36.722782,116.176819 37.008438,119.570778 
	C37.008438,119.570778 37.153160,119.979652 37.003662,120.848625 
	C37.664738,124.275597 38.325809,127.702576 39.018810,131.574448 
	C39.018810,131.574448 39.169201,131.994385 39.019314,132.711365 
	C39.342331,133.533783 39.665352,134.356216 40.001720,135.560867 
	C40.001720,135.560867 40.158062,135.909912 40.023655,136.621780 
	C40.664291,137.780273 41.304924,138.938782 41.965054,140.020462 
	C41.965054,140.020462 41.890099,140.046204 41.995815,140.782166 
	C42.658180,142.238266 43.320549,143.694351 43.985985,145.931946 
	C49.739738,158.574295 59.644058,167.176407 71.899651,172.805130 
	C78.503212,175.837997 85.933022,177.071884 93.318642,179.781540 
	C94.543510,179.795792 95.768387,179.810043 97.843987,179.964050 
	C99.563858,179.918121 101.283722,179.872192 103.839264,179.986069 
	C106.226097,179.600098 108.612923,179.214127 111.786415,178.986282 
	C113.221497,178.682648 114.656578,178.379013 116.029678,178.031479 
	C116.029678,178.031479 116.010483,178.104965 116.722023,178.016312 
	C117.521683,177.685410 118.321335,177.354507 119.915855,177.014725 
	C126.934006,173.744125 134.613113,171.392624 140.789200,166.951096 
	C147.301819,162.267548 152.744293,156.177795 157.064026,148.841385 
	C162.987610,138.781097 167.557846,128.736053 166.896484,116.899155 
	C166.804108,115.245972 165.611115,113.654274 164.927612,112.034111 
	C163.129837,112.996620 160.484528,113.499405 159.672409,114.996574 
	C154.570877,124.401451 146.007797,129.500580 136.203262,134.042694 
	C132.740738,134.694946 129.263336,135.954193 125.818893,135.869705 
	C119.203194,135.707397 112.606186,134.783203 105.351608,133.864532 
	C97.554695,129.317154 89.357483,124.730232 85.363907,116.399307 
	C80.463875,106.177467 78.316170,95.095039 81.153267,83.672699 
	C82.155357,79.638214 82.540390,74.849937 85.001404,71.905479 
	C89.868950,66.081772 95.969574,61.284386 101.601830,56.107750 
	C102.734604,55.066601 104.051453,54.225735 105.779404,52.916836 
	C98.203789,46.827614 91.090271,49.686886 83.218811,52.032135 
	C78.785233,54.003300 74.351654,55.974464 69.998329,57.964973 
	C69.998329,57.964973 69.946678,57.900578 69.245224,57.980690 
	C67.799942,58.968452 66.354668,59.956215 64.974518,60.978851 
	C64.974518,60.978851 64.983116,60.905483 64.445007,61.053589 
	C64.259621,61.363388 64.074226,61.673183 63.994015,61.987564 
	C63.994015,61.987564 63.995441,61.882301 63.352997,61.990387 
	C62.866646,62.310200 62.380291,62.630009 61.975029,62.964745 
	C61.975029,62.964745 61.979687,62.882423 61.446148,63.051502 
	C61.258808,63.361763 61.071465,63.672024 60.983948,63.984608 
	C60.983948,63.984608 60.980946,63.884804 60.446636,64.051598 
	C60.258503,64.361588 60.070366,64.671577 59.983383,64.984138 
	C59.983383,64.984138 59.980465,64.882988 59.446789,65.051552 
	C59.257545,65.361115 59.068302,65.670677 58.968147,65.970551 
	C58.968147,65.970551 58.948296,65.883156 58.248035,65.980804 
	C56.463051,67.972679 54.678066,69.964561 52.975014,71.973640 
	C52.975014,71.973640 52.983681,71.890373 52.450958,72.057114 
	C52.264622,72.366692 52.078285,72.676262 51.987125,72.987778 
	C51.987125,72.987778 51.984810,72.892609 51.451668,73.056992 
M187.426865,64.032738 
	C187.249313,64.346687 187.071777,64.660645 186.970291,64.963776 
	C186.970291,64.963776 186.931458,64.897507 186.276321,65.184212 
	C186.152771,66.117744 186.029205,67.051270 185.234177,68.320404 
	C185.624374,72.570473 186.127090,76.852013 191.319717,77.950485 
	C196.723648,79.093658 199.652527,77.381439 202.718903,71.728447 
	C202.146439,69.757683 201.573959,67.786919 201.007263,65.474274 
	C201.007263,65.474274 200.866684,65.162590 200.977585,64.563858 
	C200.661636,64.347717 200.345688,64.131577 200.014175,63.984795 
	C200.014175,63.984795 200.083954,63.971218 199.910690,63.403881 
	C199.556519,63.316284 199.202362,63.228683 198.547485,62.991749 
	C198.547485,62.991749 198.211884,63.001163 197.961456,62.437801 
	C197.601852,62.332062 197.242233,62.226322 196.571930,61.977478 
	C196.571930,61.977478 196.230637,62.000912 195.860138,61.325176 
	C194.506470,61.550652 193.152817,61.776127 191.433319,61.993717 
	C191.433319,61.993717 191.096832,62.137539 190.428024,61.993759 
	C189.917923,62.303055 189.407822,62.612350 188.944977,62.979923 
	C188.944977,62.979923 188.971359,62.909691 188.427994,63.035465 
	C188.253342,63.347878 188.078690,63.660290 187.977768,63.978981 
	C187.977768,63.978981 187.973419,63.905098 187.426865,64.032738 
M156.846786,40.002041 
	C157.674576,39.999073 158.505753,39.945862 159.329575,40.001572 
	C163.554062,40.287266 166.209595,37.171474 166.634308,34.183163 
	C167.144592,30.592968 165.925919,26.477400 161.408875,24.816319 
	C157.741180,23.467575 154.488693,23.260345 151.794983,26.676716 
	C148.220459,31.210207 150.048508,37.026222 156.846786,40.002041 
z"/>
<path fill="#8B7F89" opacity="1.000000" stroke="none" 
	d="
M1.000003,475.466858 
	C1.672995,474.402618 2.814643,473.896240 2.950858,473.194611 
	C7.015211,452.260590 10.893718,431.290253 15.003217,410.365295 
	C16.639547,402.033325 23.395039,396.990479 32.056816,396.990448 
	C84.034981,396.990295 136.013138,396.977600 188.625854,397.296570 
	C189.504547,404.411591 189.936920,411.198608 189.957001,417.986847 
	C190.013565,437.109283 206.383469,451.802979 223.596710,451.912872 
	C260.731506,452.149963 297.868958,451.961945 335.473083,451.966339 
	C343.372864,451.943604 350.804932,451.902405 358.683838,451.904266 
	C361.610504,451.972107 364.133606,452.302856 366.561340,451.959534 
	C372.023346,451.187195 376.012970,452.902924 379.120117,457.577148 
	C381.207062,460.716705 383.862610,463.545044 386.604309,466.154938 
	C388.021881,467.504364 390.181183,468.074585 392.332520,469.238770 
	C397.284271,469.501038 401.937317,469.855103 406.526825,469.463928 
	C413.531158,468.867004 415.387726,465.618073 413.102722,459.025360 
	C412.184845,456.376923 411.375031,453.690979 410.957825,451.022095 
	C427.590240,449.324677 445.746490,434.426483 448.997253,414.540070 
	C449.838867,409.391815 450.318390,404.184387 451.355103,399.000519 
	C458.077423,399.935120 462.340729,404.431488 463.851288,412.318146 
	C468.264771,435.360565 472.682007,458.403870 476.812012,481.497955 
	C478.001556,488.149567 476.008972,493.969116 469.839600,497.819550 
	C468.682220,498.541901 467.935974,499.922943 467.000000,501.000000 
	C314.645782,501.000000 162.291550,501.000000 9.745527,500.711823 
	C6.702492,497.282440 3.851244,494.141205 0.999998,491.000000 
	C1.000000,485.977905 1.000000,480.955811 1.000003,475.466858 
M125.054169,426.991852 
	C107.766884,426.967560 90.479576,426.918640 73.192322,426.932373 
	C67.238831,426.937103 65.557617,428.249725 64.492050,434.191986 
	C62.882080,443.170074 61.411961,452.176453 60.075672,461.199432 
	C59.003197,468.441101 61.348560,471.031616 68.632729,471.067352 
	C87.730949,471.161011 106.829277,471.234558 126.825172,471.668396 
	C131.960617,471.720734 137.100281,471.925720 142.230377,471.784332 
	C147.841431,471.629669 150.846527,469.199677 150.949478,464.308777 
	C151.165665,454.037079 151.171219,443.753479 150.921066,433.483093 
	C150.820297,429.346741 148.499298,426.773224 143.877365,426.898621 
	C137.915634,427.060394 131.948944,427.039673 125.054169,426.991852 
z"/>
<path fill="#7B7179" opacity="1.000000" stroke="none" 
	d="
M467.468658,501.000000 
	C467.935974,499.922943 468.682220,498.541901 469.839600,497.819550 
	C476.008972,493.969116 478.001556,488.149567 476.812012,481.497955 
	C472.682007,458.403870 468.264771,435.360565 463.851288,412.318146 
	C462.340729,404.431488 458.077423,399.935120 451.354675,398.636566 
	C451.010010,397.793427 451.056702,397.310638 451.103394,396.827850 
	C458.592163,395.484467 465.803375,395.862518 473.359894,397.737030 
	C480.920258,399.612457 485.060638,403.819458 486.919342,410.687103 
	C488.623230,416.982697 489.730560,423.445892 490.963379,429.861603 
	C493.741913,444.321350 496.429138,458.798615 499.197754,473.260284 
	C499.271912,473.647461 499.853516,473.937469 500.599243,474.136414 
	C501.000000,479.688049 501.000000,485.376068 500.672516,491.332275 
	C497.896698,494.733643 495.448364,497.866821 493.000000,501.000000 
	C484.645782,501.000000 476.291534,501.000000 467.468658,501.000000 
z"/>
<path fill="#FAD163" opacity="1.000000" stroke="none" 
	d="
M206.539368,1.000000 
	C207.645538,2.263996 208.285629,3.530818 208.937668,4.791448 
	C210.827057,8.444268 210.990005,12.405018 207.065201,14.144356 
	C204.034409,15.487510 199.670670,15.943270 196.711975,14.760803 
	C193.441498,13.453731 191.651367,9.682833 193.795547,5.601816 
	C194.476181,4.306369 195.026031,2.942213 195.317871,1.304751 
	C198.692902,1.000000 202.385818,1.000000 206.539368,1.000000 
z"/>
<path fill="#000000" opacity="1.000000" stroke="none" 
	d="
M0.999998,491.486572 
	C3.851244,494.141205 6.702492,497.282440 9.276870,500.711823 
	C6.405427,501.000000 3.810854,501.000000 1.000000,501.000000 
	C1.000000,497.992889 1.000000,494.983002 0.999998,491.486572 
z"/>
<path fill="#000000" opacity="1.000000" stroke="none" 
	d="
M493.494751,501.000000 
	C495.448364,497.866821 497.896698,494.733643 500.672516,491.800232 
	C501.000000,494.911011 501.000000,497.821991 501.000000,501.000000 
	C498.666473,501.000000 496.327972,501.000000 493.494751,501.000000 
z"/>
<path fill="#ACA6D6" opacity="1.000000" stroke="none" 
	d="
M325.163818,181.022415 
	C325.107269,180.289001 325.050720,179.555573 325.400146,178.408447 
	C337.314972,177.827240 347.766968,173.998123 358.031128,169.057114 
	C372.500275,175.085175 384.359497,183.815964 394.373077,195.644363 
	C416.098206,221.306870 426.863892,250.795898 426.975128,284.237732 
	C427.106903,323.850311 427.035187,363.463715 426.961182,403.076569 
	C426.953796,407.030304 426.749451,411.078491 425.895660,414.918091 
	C423.289948,426.636200 417.571472,436.432831 406.971893,442.719635 
	C404.187164,435.941132 401.884399,429.343689 398.941559,423.045288 
	C395.551849,415.790466 389.461639,412.167511 381.432892,412.028839 
	C377.949493,411.968658 374.462097,412.138672 370.519897,412.143555 
	C366.154816,412.099152 362.246368,412.115356 358.254852,411.680725 
	C358.121094,410.402832 358.037231,409.576263 358.024811,408.748688 
	C357.891479,399.857452 355.069580,397.084625 345.995056,397.076111 
	C341.021088,397.071472 336.046997,397.179413 330.604340,397.169495 
	C311.731842,397.071960 293.327942,397.041504 274.931000,396.541199 
	C274.920807,377.461334 274.903687,358.851288 274.902924,340.134949 
	C274.919312,340.028656 274.989746,339.825439 275.455994,339.881989 
	C285.677032,339.959045 295.432281,340.039703 305.186371,339.963257 
	C308.100861,339.940430 311.011932,339.477814 313.924561,339.216705 
	C319.997681,336.736603 323.931976,332.513092 324.603546,325.785278 
	C324.734161,324.477081 324.300964,323.112549 324.404602,321.387817 
	C343.148407,325.078918 355.724457,313.434143 359.987762,301.744019 
	C368.054291,279.625244 376.366882,257.595490 384.684631,235.569305 
	C389.465088,222.910263 387.480347,213.959564 377.996582,205.445282 
	C372.539795,200.546326 359.429626,197.388916 353.243103,203.325928 
	C353.965240,204.184387 354.585693,205.187714 355.445557,205.903473 
	C364.949158,213.814301 366.037415,223.637054 361.971161,234.591858 
	C354.471008,254.797791 346.981903,275.008270 339.347260,295.163483 
	C336.846497,301.765472 335.028656,308.752350 329.239258,313.678802 
	C326.853302,315.709137 325.058807,318.434540 322.995300,320.843811 
	C311.567505,316.565216 300.117676,312.344543 288.717865,307.992767 
	C275.958191,303.121887 263.292664,298.000671 250.489639,293.248444 
	C243.854523,290.785583 237.010849,288.884613 230.099762,285.993469 
	C231.191956,281.678314 232.498322,278.116852 233.689102,274.517181 
	C236.479706,266.081299 239.214966,257.627075 241.972641,249.180298 
	C246.474472,240.028625 252.485672,241.563232 262.848419,245.377640 
	C279.304504,251.434921 295.658417,257.770752 312.034027,264.044800 
	C314.703979,265.067749 317.263489,266.378967 320.243103,267.723480 
	C321.746826,263.471466 323.017761,259.877655 324.924744,255.825287 
	C325.705841,254.562317 325.976837,253.758057 325.977661,252.953491 
	C326.001282,230.230850 326.010895,207.508179 325.962860,184.785629 
	C325.960205,183.530670 325.442047,182.276794 325.163818,181.022415 
M383.003845,353.496185 
	C379.118744,349.611664 375.250153,345.710449 371.343628,341.847595 
	C367.903259,338.445770 362.802673,337.838379 360.337982,340.485626 
	C356.932678,344.143250 357.077667,348.564026 360.834137,352.338531 
	C369.876953,361.424774 378.952423,370.478577 388.023499,379.536713 
	C391.987396,383.494904 397.002960,384.346832 399.851746,381.575165 
	C403.206146,378.311584 402.621674,373.175323 398.329651,368.836212 
	C393.412415,363.865082 388.447693,358.940948 383.003845,353.496185 
z"/>
<path fill="#C38F88" opacity="1.000000" stroke="none" 
	d="
M274.924072,397.011047 
	C293.327942,397.041504 311.731842,397.071960 330.640717,397.501343 
	C334.699371,401.436432 335.170044,405.762817 335.084961,410.579224 
	C334.841400,424.364960 335.003021,438.157806 335.005341,451.947876 
	C297.868958,451.961945 260.731506,452.149963 223.596710,451.912872 
	C206.383469,451.802979 190.013565,437.109283 189.957001,417.986847 
	C189.936920,411.198608 189.504547,404.411591 189.084656,397.231140 
	C188.908905,396.838257 188.957138,396.390869 189.326538,395.879791 
	C189.791885,386.552490 189.887817,377.736267 189.983749,368.920044 
	C191.531494,356.769348 198.515381,348.561798 209.055298,343.134125 
	C211.871017,341.684113 215.094925,341.026794 218.995316,340.003448 
	C230.903778,340.065796 241.948364,340.130219 252.806931,340.553589 
	C252.488556,341.215668 252.241745,341.518219 252.240204,341.822052 
	C252.151459,359.229034 252.016693,376.636780 252.184296,394.041565 
	C252.193954,395.043274 254.643723,396.807648 256.023560,396.875183 
	C262.310883,397.182983 268.621704,397.010712 274.924072,397.011047 
z"/>
<path fill="#998FCA" opacity="1.000000" stroke="none" 
	d="
M407.170959,443.032837 
	C417.571472,436.432831 423.289948,426.636200 425.895660,414.918091 
	C426.749451,411.078491 426.953796,407.030304 426.961182,403.076569 
	C427.035187,363.463715 427.106903,323.850311 426.975128,284.237732 
	C426.863892,250.795898 416.098206,221.306870 394.373077,195.644363 
	C384.359497,183.815964 372.500275,175.085175 358.240479,168.797791 
	C359.829437,167.470200 361.428680,166.701828 363.027924,165.933472 
	C378.304993,166.469254 391.242676,172.230118 403.533813,181.418503 
	C415.953644,190.703156 424.918732,202.584366 432.523254,215.406021 
	C441.029816,229.748581 446.565186,245.549408 448.998505,262.234772 
	C449.375549,264.820282 449.698608,267.413635 450.030975,270.915527 
	C450.007812,311.304199 449.988098,350.780640 450.030121,390.257080 
	C450.032135,392.162109 450.577362,394.066589 450.869659,395.971313 
	C450.869659,395.971313 451.050171,396.382538 451.076782,396.605194 
	C451.056702,397.310638 451.010010,397.793427 450.963745,398.640167 
	C450.318390,404.184387 449.838867,409.391815 448.997253,414.540070 
	C445.746490,434.426483 427.590240,449.324677 410.733948,450.804871 
	C409.102539,448.069397 408.136749,445.551117 407.170959,443.032837 
z"/>
<path fill="#FEF2DE" opacity="1.000000" stroke="none" 
	d="
M321.989227,177.826965 
	C302.577362,178.283188 285.474762,168.381058 279.642395,149.302689 
	C276.521790,139.094849 278.754150,129.584259 281.506378,119.851814 
	C284.385803,109.669685 286.767822,99.346886 290.103943,88.849503 
	C292.923950,89.190834 295.013763,89.746010 297.089722,90.349022 
	C320.725952,97.214775 344.360046,104.087830 368.181335,111.135544 
	C368.580475,111.574463 368.792999,111.836761 368.763184,112.367645 
	C367.706818,113.616142 366.465424,114.475029 366.148041,115.595596 
	C364.077911,122.905342 362.890198,130.546631 360.072845,137.539169 
	C357.474457,143.988190 354.156769,150.687012 349.417236,155.597778 
	C343.431305,161.799942 335.839111,166.530899 328.621704,171.427628 
	C325.616119,173.466812 321.789703,174.296249 317.714874,175.924103 
	C319.666138,176.792770 320.827667,177.309875 321.989227,177.826965 
z"/>
<path fill="#FEE078" opacity="1.000000" stroke="none" 
	d="
M40.158062,135.909912 
	C40.158062,135.909912 40.001720,135.560867 40.009781,135.024551 
	C39.734962,133.656952 39.452080,132.825668 39.169197,131.994385 
	C39.169201,131.994385 39.018810,131.574448 39.015049,130.915604 
	C38.391911,126.831055 37.772533,123.405357 37.153160,119.979652 
	C37.153160,119.979652 37.008438,119.570778 37.008759,118.889427 
	C36.992882,115.424210 36.976688,112.640335 36.960495,109.856468 
	C36.960495,109.856468 37.012173,109.411964 37.327065,108.911674 
	C38.091053,104.886070 38.540150,101.360756 38.989250,97.835442 
	C38.989250,97.835442 39.007214,97.403366 39.312241,96.956848 
	C39.728851,95.642624 39.840435,94.774910 39.952019,93.907204 
	C39.952019,93.907204 39.969032,93.991356 40.217911,93.788986 
	C40.642723,92.668480 40.818657,91.750328 40.994587,90.832184 
	C40.994587,90.832184 41.012241,90.433807 41.283012,90.090706 
	C41.697243,89.447060 41.840706,89.146523 41.984169,88.845985 
	C43.061840,86.313240 44.139507,83.780487 45.920311,81.075378 
	C47.389671,79.225708 48.155891,77.548401 48.922115,75.871101 
	C48.922115,75.871101 48.940887,75.958824 49.156143,75.863792 
	C49.570225,75.467873 49.769054,75.166977 49.967888,74.866089 
	C49.967888,74.866089 49.973915,74.972969 50.174381,74.869698 
	C50.575706,74.471176 50.776569,74.175919 50.977428,73.880669 
	C50.977428,73.880669 50.982006,73.982162 51.177868,73.871399 
	C51.577423,73.471298 51.781120,73.181953 51.984810,72.892609 
	C51.984810,72.892609 51.987125,72.987778 52.183891,72.873901 
	C52.581669,72.470131 52.782673,72.180252 52.983681,71.890373 
	C52.983681,71.890373 52.975014,71.973640 53.287071,71.949280 
	C55.382183,69.910995 57.165241,67.897079 58.948296,65.883163 
	C58.948296,65.883156 58.968147,65.970551 59.171654,65.865265 
	C59.576927,65.467651 59.778694,65.175323 59.980465,64.882988 
	C59.980465,64.882988 59.983383,64.984138 60.180489,64.872749 
	C60.578712,64.469177 60.779827,64.176987 60.980946,63.884804 
	C60.980946,63.884804 60.983948,63.984608 61.181564,63.872925 
	C61.579350,63.468300 61.779518,63.175362 61.979687,62.882423 
	C61.979687,62.882423 61.975029,62.964745 62.253166,62.953449 
	C63.019348,62.588871 63.507397,62.235584 63.995441,61.882301 
	C63.995441,61.882301 63.994015,61.987564 64.187744,61.878494 
	C64.582024,61.481445 64.782570,61.193466 64.983124,60.905487 
	C64.983116,60.905483 64.974518,60.978851 65.349686,60.995750 
	C66.814896,61.004120 67.904930,60.995594 68.944870,61.323071 
	C61.534576,69.708710 56.671436,79.031540 56.325146,90.013069 
	C56.135548,96.025505 56.666695,102.295288 58.250908,108.071037 
	C60.341183,115.691765 65.733231,121.516350 71.414429,126.968773 
	C81.748428,136.886612 94.115959,138.320129 108.071342,136.426636 
	C107.078819,135.347031 106.540123,134.761047 106.001419,134.175079 
	C112.606186,134.783203 119.203194,135.707397 125.818893,135.869705 
	C129.263336,135.954193 132.740738,134.694946 136.559601,134.442337 
	C136.915024,137.286880 137.784195,140.211868 136.749802,142.086533 
	C133.663925,147.679169 130.340698,153.300476 126.182014,158.107620 
	C118.085457,167.466660 107.422783,173.102356 95.753166,176.943420 
	C94.706955,177.287796 93.905281,178.375137 92.990036,179.117432 
	C85.933022,177.071884 78.503212,175.837997 71.899651,172.805130 
	C59.644058,167.176407 49.739738,158.574295 43.991646,145.132156 
	C43.294907,142.903641 42.592503,141.474930 41.890099,140.046204 
	C41.890099,140.046204 41.965054,140.020462 41.979126,139.686722 
	C41.381489,138.205292 40.769775,137.057602 40.158062,135.909912 
z"/>
<path fill="#5C75D0" opacity="1.000000" stroke="none" 
	d="
M367.994720,110.958931 
	C344.360046,104.087830 320.725952,97.214775 297.089722,90.349022 
	C295.013763,89.746010 292.923950,89.190834 290.441772,88.603920 
	C292.180389,78.541214 293.108032,67.706261 302.516296,61.261211 
	C307.579010,57.793030 313.607330,55.734474 319.684631,53.454441 
	C322.726654,54.898167 325.239960,56.058910 327.849487,56.932167 
	C336.109741,59.696388 344.866913,61.428703 352.577698,65.273300 
	C363.493652,70.715965 369.732391,80.308586 369.873962,92.814880 
	C369.942322,98.855034 368.663544,104.910439 367.994720,110.958931 
z"/>
<path fill="#988FCB" opacity="1.000000" stroke="none" 
	d="
M323.190369,320.929016 
	C325.058807,318.434540 326.853302,315.709137 329.239258,313.678802 
	C335.028656,308.752350 336.846497,301.765472 339.347260,295.163483 
	C346.981903,275.008270 354.471008,254.797791 361.971161,234.591858 
	C366.037415,223.637054 364.949158,213.814301 355.445557,205.903473 
	C354.585693,205.187714 353.965240,204.184387 353.243103,203.325928 
	C359.429626,197.388916 372.539795,200.546326 377.996582,205.445282 
	C387.480347,213.959564 389.465088,222.910263 384.684631,235.569305 
	C376.366882,257.595490 368.054291,279.625244 359.987762,301.744019 
	C355.724457,313.434143 343.148407,325.078918 324.245422,321.027405 
	C323.809448,321.053192 323.385437,321.014191 323.190369,320.929016 
z"/>
<path fill="#FDD15E" opacity="1.000000" stroke="none" 
	d="
M105.676514,134.019806 
	C106.540123,134.761047 107.078819,135.347031 108.071342,136.426636 
	C94.115959,138.320129 81.748428,136.886612 71.414429,126.968773 
	C65.733231,121.516350 60.341183,115.691765 58.250908,108.071037 
	C56.666695,102.295288 56.135548,96.025505 56.325146,90.013069 
	C56.671436,79.031540 61.534576,69.708710 69.077301,61.019623 
	C69.488770,59.553638 69.717720,58.727108 69.946671,57.900578 
	C69.946678,57.900578 69.998329,57.964973 70.357521,58.020622 
	C75.146278,56.018944 79.575844,53.961617 84.005409,51.904289 
	C91.090271,49.686886 98.203789,46.827614 105.779404,52.916836 
	C104.051453,54.225735 102.734604,55.066601 101.601830,56.107750 
	C95.969574,61.284386 89.868950,66.081772 85.001404,71.905479 
	C82.540390,74.849937 82.155357,79.638214 81.153267,83.672699 
	C78.316170,95.095039 80.463875,106.177467 85.363907,116.399307 
	C89.357483,124.730232 97.554695,129.317154 105.676514,134.019806 
z"/>
<path fill="#FEF2DF" opacity="1.000000" stroke="none" 
	d="
M241.574387,249.116653 
	C239.214966,257.627075 236.479706,266.081299 233.689102,274.517181 
	C232.498322,278.116852 231.191956,281.678314 229.948944,285.649109 
	C228.511429,285.077850 226.886368,284.300964 225.643234,283.121490 
	C217.115753,275.030823 208.427017,267.088165 200.278793,258.627289 
	C194.732315,252.867981 191.210541,246.054016 193.696289,237.447052 
	C194.363083,235.138260 193.607544,232.445358 194.097076,230.049789 
	C194.455261,228.296997 195.507187,225.665451 196.741730,225.349930 
	C198.622849,224.869141 200.940018,226.011505 203.045975,226.563950 
	C203.461548,226.672974 203.811081,227.193100 204.103760,227.588303 
	C213.365509,240.094009 226.649857,245.644669 241.574387,249.116653 
z"/>
<path fill="#FDE5C5" opacity="1.000000" stroke="none" 
	d="
M322.349518,177.904602 
	C320.827667,177.309875 319.666138,176.792770 317.714874,175.924103 
	C321.789703,174.296249 325.616119,173.466812 328.621704,171.427628 
	C335.839111,166.530899 343.431305,161.799942 349.417236,155.597778 
	C354.156769,150.687012 357.474457,143.988190 360.072845,137.539169 
	C362.890198,130.546631 364.077911,122.905342 366.148041,115.595596 
	C366.465424,114.475029 367.706818,113.616142 369.151703,112.349121 
	C376.474487,113.725380 383.166412,115.388748 389.858398,117.052109 
	C386.543915,126.841759 383.282837,136.650162 379.857117,146.400711 
	C379.345764,147.856201 378.060730,149.039856 376.799805,150.817841 
	C376.251862,151.528046 376.116547,151.807785 376.060059,152.125656 
	C376.060059,152.125656 376.050537,152.041718 375.849121,152.157501 
	C375.444305,152.560165 375.240936,152.847046 375.037537,153.133911 
	C374.707306,153.578506 374.377106,154.023117 373.755798,154.873856 
	C373.249023,155.523041 373.113831,155.804718 373.059113,156.125015 
	C373.059113,156.125015 373.048676,156.041687 372.848297,156.155823 
	C372.449310,156.557434 372.250671,156.844894 372.052063,157.132370 
	C372.052063,157.132370 372.044647,157.041656 371.847168,157.156189 
	C371.450623,157.558136 371.251556,157.845551 371.052490,158.132965 
	C371.052521,158.132980 371.045135,158.042099 370.847626,158.156464 
	C370.450958,158.558182 370.251770,158.845551 370.052612,159.132904 
	C370.052612,159.132904 370.045197,159.042114 369.848053,159.156403 
	C369.452026,159.557556 369.253143,159.844437 369.054260,160.131302 
	C369.054260,160.131302 369.046722,160.042892 368.849487,160.158035 
	C368.452789,160.558731 368.253357,160.844299 368.053925,161.129868 
	C368.053925,161.129868 368.046265,161.043289 367.848328,161.158173 
	C367.451019,161.558441 367.251648,161.843826 367.052307,162.129211 
	C367.052307,162.129211 367.044952,162.042145 366.847412,162.156067 
	C366.448975,162.553482 366.248077,162.836975 366.047180,163.120453 
	C366.047180,163.120453 366.041962,163.036072 365.843994,163.154907 
	C365.446960,163.560760 365.247864,163.847778 365.048767,164.134781 
	C365.048767,164.134781 365.041992,164.050949 364.853455,164.122711 
	C364.358917,164.328812 364.130310,164.544968 363.979004,164.842896 
	C363.671295,165.024658 363.363556,165.206421 363.041870,165.660828 
	C361.428680,166.701828 359.829437,167.470200 358.020874,168.497894 
	C347.766968,173.998123 337.314972,177.827240 325.363556,178.041321 
	C324.183899,178.052689 323.446869,178.017456 322.349518,177.904602 
z"/>
<path fill="#5167CD" opacity="1.000000" stroke="none" 
	d="
M389.963989,116.667419 
	C383.166412,115.388748 376.474487,113.725380 369.394043,112.080536 
	C368.792999,111.836761 368.580475,111.574463 368.181335,111.135544 
	C368.663544,104.910439 369.942322,98.855034 369.873962,92.814880 
	C369.732391,80.308586 363.493652,70.715965 352.577698,65.273300 
	C344.866913,61.428703 336.109741,59.696388 327.849487,56.932167 
	C325.239960,56.058910 322.726654,54.898167 320.083008,53.528381 
	C326.299469,53.161423 332.817017,52.094376 338.857178,53.340801 
	C349.168732,55.468681 359.217621,58.928471 369.310425,62.044037 
	C386.486725,67.346199 397.822510,86.324104 393.025665,104.413269 
	C391.980682,108.353951 391.051910,112.325432 389.963989,116.667419 
z"/>
<path fill="#FCD160" opacity="1.000000" stroke="none" 
	d="
M93.154343,179.449493 
	C93.905281,178.375137 94.706955,177.287796 95.753166,176.943420 
	C107.422783,173.102356 118.085457,167.466660 126.182014,158.107620 
	C130.340698,153.300476 133.663925,147.679169 136.749802,142.086533 
	C137.784195,140.211868 136.915024,137.286880 136.962662,134.508514 
	C146.007797,129.500580 154.570877,124.401451 159.672409,114.996574 
	C160.484528,113.499405 163.129837,112.996620 164.927612,112.034111 
	C165.611115,113.654274 166.804108,115.245972 166.896484,116.899155 
	C167.557846,128.736053 162.987610,138.781097 157.064026,148.841385 
	C152.744293,156.177795 147.301819,162.267548 140.789200,166.951096 
	C134.613113,171.392624 126.934006,173.744125 119.163101,177.011368 
	C117.610397,177.373657 116.810440,177.739304 116.010483,178.104965 
	C116.010483,178.104965 116.029678,178.031479 115.676811,178.016022 
	C113.882545,178.276428 112.441154,178.552292 110.999756,178.828171 
	C108.612923,179.214127 106.226097,179.600098 103.325172,179.561752 
	C100.670113,177.657990 98.603882,176.811646 96.993256,179.824295 
	C95.768387,179.810043 94.543510,179.795792 93.154343,179.449493 
z"/>
<path fill="#F9D269" opacity="1.000000" stroke="none" 
	d="
M156.431335,39.984203 
	C150.048508,37.026222 148.220459,31.210207 151.794983,26.676716 
	C154.488693,23.260345 157.741180,23.467575 161.408875,24.816319 
	C165.925919,26.477400 167.144592,30.592968 166.634308,34.183163 
	C166.209595,37.171474 163.554062,40.287266 159.329575,40.001572 
	C158.505753,39.945862 157.674576,39.999073 156.431335,39.984203 
z"/>
<path fill="#F9D167" opacity="1.000000" stroke="none" 
	d="
M198.211884,63.001163 
	C198.211884,63.001163 198.547485,62.991749 198.850281,63.277679 
	C199.463379,63.699478 199.773666,63.835350 200.083954,63.971222 
	C200.083954,63.971218 200.014175,63.984795 200.075562,64.206711 
	C200.380173,64.673279 200.623428,64.917938 200.866684,65.162598 
	C200.866684,65.162590 201.007263,65.474274 201.004593,66.067894 
	C201.353378,68.464249 201.704834,70.266975 202.056290,72.069702 
	C199.652527,77.381439 196.723648,79.093658 191.319717,77.950485 
	C186.127090,76.852013 185.624374,72.570473 185.854248,67.949112 
	C186.626709,66.684380 186.779083,65.790947 186.931458,64.897507 
	C186.931458,64.897507 186.970291,64.963776 187.192673,64.885483 
	C187.601166,64.506493 187.787292,64.205795 187.973419,63.905098 
	C187.973419,63.905098 187.977768,63.978981 188.200821,63.895950 
	C188.606369,63.511845 188.788864,63.210770 188.971359,62.909691 
	C188.971359,62.909691 188.944977,62.979923 189.230652,63.000786 
	C190.043167,62.726940 190.569992,62.432240 191.096832,62.137539 
	C191.096832,62.137539 191.433319,61.993717 192.059570,62.018661 
	C193.867432,62.029373 195.049026,62.015141 196.230637,62.000908 
	C196.230637,62.000912 196.571930,61.977478 196.892868,62.269508 
	C197.546494,62.708080 197.879196,62.854622 198.211884,63.001163 
z"/>
<path fill="#EDE7FF" opacity="1.000000" stroke="none" 
	d="
M450.926941,395.506073 
	C450.577362,394.066589 450.032135,392.162109 450.030121,390.257080 
	C449.988098,350.780640 450.007812,311.304199 450.002106,271.349976 
	C450.324677,272.360138 450.951874,273.847656 450.953705,275.335999 
	C451.003143,315.237579 450.988251,355.139191 450.926941,395.506073 
z"/>
<path fill="#BCB7D9" opacity="1.000000" stroke="none" 
	d="
M325.087463,181.484497 
	C325.442047,182.276794 325.960205,183.530670 325.962860,184.785629 
	C326.010895,207.508179 326.001282,230.230850 325.977661,252.953491 
	C325.976837,253.758057 325.705841,254.562317 325.260803,255.645981 
	C324.977600,231.265686 324.994354,206.606125 325.087463,181.484497 
z"/>
<path fill="#FFE9E9" opacity="1.000000" stroke="none" 
	d="
M252.992935,340.194641 
	C241.948364,340.130219 230.903778,340.065796 219.384293,340.003540 
	C220.553879,339.670074 222.197220,339.049622 223.843048,339.042877 
	C240.583740,338.974457 257.324860,339.006073 274.528198,339.251190 
	C274.990509,339.492737 274.989746,339.825439 274.989746,339.825439 
	C274.989746,339.825439 274.919312,340.028656 274.448944,340.080505 
	C266.983368,340.153107 259.988159,340.173859 252.992935,340.194641 
z"/>
<path fill="#ECEBFE" opacity="1.000000" stroke="none" 
	d="
M275.455994,339.881989 
	C274.989746,339.825439 274.990509,339.492737 274.990906,339.326385 
	C287.664337,339.120270 300.337341,339.080536 313.467468,339.128723 
	C311.011932,339.477814 308.100861,339.940430 305.186371,339.963257 
	C295.432281,340.039703 285.677032,339.959045 275.455994,339.881989 
z"/>
<path fill="#E5C9C5" opacity="1.000000" stroke="none" 
	d="
M189.600250,369.136902 
	C189.887817,377.736267 189.791885,386.552490 189.410614,395.671112 
	C189.155777,387.100250 189.186264,378.226990 189.600250,369.136902 
z"/>
<path fill="#F8E5A3" opacity="1.000000" stroke="none" 
	d="
M83.612106,51.968216 
	C79.575844,53.961617 75.146278,56.018944 70.317398,58.010952 
	C74.351654,55.974464 78.785233,54.003300 83.612106,51.968216 
z"/>
<path fill="#F8E5A3" opacity="1.000000" stroke="none" 
	d="
M58.598167,65.931984 
	C57.165241,67.897079 55.382183,69.910995 53.246101,71.940681 
	C54.678066,69.964561 56.463051,67.972679 58.598167,65.931984 
z"/>
<path fill="#F4DFA0" opacity="1.000000" stroke="none" 
	d="
M38.629639,98.038574 
	C38.540150,101.360756 38.091053,104.886070 37.400299,108.700256 
	C37.529106,105.406654 37.899567,101.824181 38.629639,98.038574 
z"/>
<path fill="#F6E49A" opacity="1.000000" stroke="none" 
	d="
M37.078411,120.414139 
	C37.772533,123.405357 38.391911,126.831055 38.999084,130.693146 
	C38.325809,127.702576 37.664738,124.275597 37.078411,120.414139 
z"/>
<path fill="#FEE078" opacity="1.000000" stroke="none" 
	d="
M97.418625,179.894165 
	C98.603882,176.811646 100.670113,177.657990 102.907333,179.481842 
	C101.283722,179.872192 99.563858,179.918121 97.418625,179.894165 
z"/>
<path fill="#F7DE9F" opacity="1.000000" stroke="none" 
	d="
M202.387604,71.899078 
	C201.704834,70.266975 201.353378,68.464249 201.001709,66.238831 
	C201.573959,67.786919 202.146439,69.757683 202.387604,71.899078 
z"/>
<path fill="#F4DFA0" opacity="1.000000" stroke="none" 
	d="
M36.586349,110.055344 
	C36.976688,112.640335 36.992882,115.424210 36.993576,118.673096 
	C36.722782,116.176819 36.467491,113.215515 36.586349,110.055344 
z"/>
<path fill="#F8E5A3" opacity="1.000000" stroke="none" 
	d="
M48.603447,76.019684 
	C48.155891,77.548401 47.389671,79.225708 46.245087,80.939003 
	C46.672741,79.372757 47.478756,77.770515 48.603447,76.019684 
z"/>
<path fill="#F8E5A3" opacity="1.000000" stroke="none" 
	d="
M69.595947,57.940636 
	C69.717720,58.727108 69.488770,59.553638 69.127388,60.683617 
	C67.904930,60.995594 66.814896,61.004120 65.317123,60.978310 
	C66.354668,59.956215 67.799942,58.968452 69.595947,57.940636 
z"/>
<path fill="#F6E49A" opacity="1.000000" stroke="none" 
	d="
M41.942955,140.414185 
	C42.592503,141.474930 43.294907,142.903641 43.990112,144.741409 
	C43.320549,143.694351 42.658180,142.238266 41.942955,140.414185 
z"/>
<path fill="#F6E49A" opacity="1.000000" stroke="none" 
	d="
M40.090858,136.265839 
	C40.769775,137.057602 41.381489,138.205292 41.969379,139.725128 
	C41.304924,138.938782 40.664291,137.780273 40.090858,136.265839 
z"/>
<path fill="#FEE078" opacity="1.000000" stroke="none" 
	d="
M111.393082,178.907227 
	C112.441154,178.552292 113.882545,178.276428 115.707802,178.037964 
	C114.656578,178.379013 113.221497,178.682648 111.393082,178.907227 
z"/>
<path fill="#F7DE9F" opacity="1.000000" stroke="none" 
	d="
M196.045380,61.663040 
	C195.049026,62.015141 193.867432,62.029373 192.242493,62.022602 
	C193.152817,61.776127 194.506470,61.550652 196.045380,61.663040 
z"/>
<path fill="#F4DFA0" opacity="1.000000" stroke="none" 
	d="
M40.667694,90.995041 
	C40.818657,91.750328 40.642723,92.668480 40.175270,93.793930 
	C40.036098,93.053459 40.188446,92.105682 40.667694,90.995041 
z"/>
<path fill="#F7DE9F" opacity="1.000000" stroke="none" 
	d="
M186.603882,65.040863 
	C186.779083,65.790947 186.626709,66.684380 186.190002,67.781311 
	C186.029205,67.051270 186.152771,66.117744 186.603882,65.040863 
z"/>
<path fill="#FEE078" opacity="1.000000" stroke="none" 
	d="
M116.366257,178.060638 
	C116.810440,177.739304 117.610397,177.373657 118.765671,177.015808 
	C118.321335,177.354507 117.521683,177.685410 116.366257,178.060638 
z"/>
<path fill="#F4DFA0" opacity="1.000000" stroke="none" 
	d="
M39.625740,94.054367 
	C39.840435,94.774910 39.728851,95.642624 39.392952,96.756256 
	C39.212246,96.068634 39.255856,95.135086 39.625740,94.054367 
z"/>
<path fill="#F6E49A" opacity="1.000000" stroke="none" 
	d="
M39.094254,132.352875 
	C39.452080,132.825668 39.734962,133.656952 40.003105,134.833435 
	C39.665352,134.356216 39.342331,133.533783 39.094254,132.352875 
z"/>
<path fill="#F8E5A3" opacity="1.000000" stroke="none" 
	d="
M63.674217,61.936344 
	C63.507397,62.235584 63.019348,62.588871 62.212620,62.945984 
	C62.380291,62.630009 62.866646,62.310200 63.674217,61.936344 
z"/>
<path fill="#F7DE9F" opacity="1.000000" stroke="none" 
	d="
M190.762421,62.065651 
	C190.569992,62.432240 190.043167,62.726940 189.207031,62.971642 
	C189.407822,62.612350 189.917923,62.303055 190.762421,62.065651 
z"/>
<path fill="#F7DE9F" opacity="1.000000" stroke="none" 
	d="
M200.922134,64.863228 
	C200.623428,64.917938 200.380173,64.673279 200.083344,64.172028 
	C200.345688,64.131577 200.661636,64.347717 200.922134,64.863228 
z"/>
<path fill="#F4DFA0" opacity="1.000000" stroke="none" 
	d="
M41.713974,88.950836 
	C41.840706,89.146523 41.697243,89.447060 41.355991,89.905159 
	C41.253395,89.727043 41.348587,89.391373 41.713974,88.950836 
z"/>
<path fill="#F8E5A3" opacity="1.000000" stroke="none" 
	d="
M64.714066,60.979538 
	C64.782570,61.193466 64.582024,61.481445 64.135162,61.876202 
	C64.074226,61.673183 64.259621,61.363388 64.714066,60.979538 
z"/>
<path fill="#F8E5A3" opacity="1.000000" stroke="none" 
	d="
M49.697678,74.946533 
	C49.769054,75.166977 49.570225,75.467873 49.111298,75.864616 
	C49.043289,75.649307 49.235378,75.338135 49.697678,74.946533 
z"/>
<path fill="#F7DE9F" opacity="1.000000" stroke="none" 
	d="
M198.086670,62.719482 
	C197.879196,62.854622 197.546494,62.708080 197.048218,62.341061 
	C197.242233,62.226322 197.601852,62.332062 198.086670,62.719482 
z"/>
<path fill="#F8E5A3" opacity="1.000000" stroke="none" 
	d="
M61.712917,62.966965 
	C61.779518,63.175362 61.579350,63.468300 61.131653,63.871761 
	C61.071465,63.672024 61.258808,63.361763 61.712917,62.966965 
z"/>
<path fill="#F7DE9F" opacity="1.000000" stroke="none" 
	d="
M188.699677,62.972580 
	C188.788864,63.210770 188.606369,63.511845 188.163956,63.892811 
	C188.078690,63.660290 188.253342,63.347878 188.699677,62.972580 
z"/>
<path fill="#F7DE9F" opacity="1.000000" stroke="none" 
	d="
M199.997314,63.687553 
	C199.773666,63.835350 199.463379,63.699478 199.000641,63.352348 
	C199.202362,63.228683 199.556519,63.316284 199.997314,63.687553 
z"/>
<path fill="#F8E5A3" opacity="1.000000" stroke="none" 
	d="
M60.713791,63.968201 
	C60.779827,64.176987 60.578712,64.469177 60.129913,64.871460 
	C60.070366,64.671577 60.258503,64.361588 60.713791,63.968201 
z"/>
<path fill="#F7DE9F" opacity="1.000000" stroke="none" 
	d="
M187.700134,63.968918 
	C187.787292,64.205795 187.601166,64.506493 187.154648,64.890900 
	C187.071777,64.660645 187.249313,64.346687 187.700134,63.968918 
z"/>
<path fill="#F8E5A3" opacity="1.000000" stroke="none" 
	d="
M50.707260,73.958908 
	C50.776569,74.175919 50.575706,74.471176 50.120876,74.868225 
	C50.056969,74.659065 50.247028,74.348106 50.707260,73.958908 
z"/>
<path fill="#FBEBD8" opacity="1.000000" stroke="none" 
	d="
M369.312439,160.042145 
	C369.253143,159.844437 369.452026,159.557556 369.893433,159.160065 
	C369.947540,159.350632 369.759064,159.651810 369.312439,160.042145 
z"/>
<path fill="#F8E5A3" opacity="1.000000" stroke="none" 
	d="
M59.713627,64.967270 
	C59.778694,65.175323 59.576927,65.467651 59.127110,65.870117 
	C59.068302,65.670677 59.257545,65.361115 59.713627,64.967270 
z"/>
<path fill="#FBEBD8" opacity="1.000000" stroke="none" 
	d="
M376.317444,152.036652 
	C376.116547,151.807785 376.251862,151.528046 376.656494,151.148163 
	C376.756256,151.322495 376.665527,151.635071 376.317444,152.036652 
z"/>
<path fill="#FBEBD8" opacity="1.000000" stroke="none" 
	d="
M375.299011,153.045944 
	C375.240936,152.847046 375.444305,152.560165 375.891235,152.160583 
	C375.943390,152.351242 375.751953,152.654602 375.299011,153.045944 
z"/>
<path fill="#FBEBD8" opacity="1.000000" stroke="none" 
	d="
M373.317963,156.035370 
	C373.113831,155.804718 373.249023,155.523041 373.656036,155.140533 
	C373.757202,155.315948 373.667023,155.630829 373.317963,156.035370 
z"/>
<path fill="#FBEBD8" opacity="1.000000" stroke="none" 
	d="
M372.311066,157.043213 
	C372.250671,156.844894 372.449310,156.557434 372.890198,156.158234 
	C372.945007,156.349030 372.757538,156.651535 372.311066,157.043213 
z"/>
<path fill="#FBEBD8" opacity="1.000000" stroke="none" 
	d="
M371.311157,158.043549 
	C371.251556,157.845551 371.450623,157.558136 371.892517,157.159805 
	C371.946869,157.350647 371.758362,157.652390 371.311157,158.043549 
z"/>
<path fill="#FBEBD8" opacity="1.000000" stroke="none" 
	d="
M370.311188,159.043457 
	C370.251770,158.845551 370.450958,158.558182 370.893066,158.160126 
	C370.947266,158.350952 370.758514,158.652466 370.311188,159.043457 
z"/>
<path fill="#F8E5A3" opacity="1.000000" stroke="none" 
	d="
M52.717316,71.973740 
	C52.782673,72.180252 52.581669,72.470131 52.136307,72.872925 
	C52.078285,72.676262 52.264622,72.366692 52.717316,71.973740 
z"/>
<path fill="#F8E5A3" opacity="1.000000" stroke="none" 
	d="
M51.718239,72.974800 
	C51.781120,73.181953 51.577423,73.471298 51.127075,73.870659 
	C51.070835,73.672783 51.261250,73.364883 51.718239,72.974800 
z"/>
<path fill="#FBEBD8" opacity="1.000000" stroke="none" 
	d="
M364.254852,164.909454 
	C364.130310,164.544968 364.358917,164.328812 364.895264,164.127182 
	C364.927307,164.365265 364.729004,164.670639 364.254852,164.909454 
z"/>
<path fill="#FBEBD8" opacity="1.000000" stroke="none" 
	d="
M365.304047,164.039215 
	C365.247864,163.847778 365.446960,163.560760 365.886078,163.158875 
	C365.937195,163.343903 365.748260,163.643768 365.304047,164.039215 
z"/>
<path fill="#FBEBD8" opacity="1.000000" stroke="none" 
	d="
M366.306763,163.035889 
	C366.248077,162.836975 366.448975,162.553482 366.890930,162.159760 
	C366.943481,162.350113 366.754944,162.650711 366.306763,163.035889 
z"/>
<path fill="#FBEBD8" opacity="1.000000" stroke="none" 
	d="
M367.309937,162.040253 
	C367.251648,161.843826 367.451019,161.558441 367.891602,161.161957 
	C367.944458,161.350998 367.756042,161.651138 367.309937,162.040253 
z"/>
<path fill="#FBEBD8" opacity="1.000000" stroke="none" 
	d="
M368.311218,161.040253 
	C368.253357,160.844299 368.452789,160.558731 368.893677,160.161865 
	C368.946289,160.350586 368.757416,160.650604 368.311218,161.040253 
z"/>
<path fill="#FDD1A5" opacity="1.000000" stroke="none" 
	d="
M125.927559,471.316101 
	C106.829277,471.234558 87.730949,471.161011 68.632729,471.067352 
	C61.348560,471.031616 59.003197,468.441101 60.075672,461.199432 
	C61.411961,452.176453 62.882080,443.170074 64.492050,434.191986 
	C65.557617,428.249725 67.238831,426.937103 73.192322,426.932373 
	C90.479576,426.918640 107.766884,426.967560 125.578018,427.421112 
	C126.734581,433.371643 127.987862,438.907379 127.859222,444.410858 
	C127.649399,453.387238 129.818634,462.595337 125.927559,471.316101 
z"/>
<path fill="#B67E74" opacity="1.000000" stroke="none" 
	d="
M335.473083,451.966339 
	C335.003021,438.157806 334.841400,424.364960 335.084961,410.579224 
	C335.170044,405.762817 334.699371,401.436432 331.109344,397.568451 
	C336.046997,397.179413 341.021088,397.071472 345.995056,397.076111 
	C355.069580,397.084625 357.891479,399.857452 358.024811,408.748688 
	C358.037231,409.576263 358.121094,410.402832 358.172058,412.134399 
	C358.193909,425.979675 358.215424,438.920471 358.236969,451.861237 
	C350.804932,451.902405 343.372864,451.943604 335.473083,451.966339 
z"/>
<path fill="#FCE4C4" opacity="1.000000" stroke="none" 
	d="
M406.971893,442.719635 
	C408.136749,445.551117 409.102539,448.069397 410.292175,450.804901 
	C411.375031,453.690979 412.184845,456.376923 413.102722,459.025360 
	C415.387726,465.618073 413.531158,468.867004 406.526825,469.463928 
	C401.937317,469.855103 397.284271,469.501038 392.338623,468.831055 
	C391.700928,464.176697 391.985321,460.004547 390.927002,456.206573 
	C389.338531,450.506317 387.151459,444.904724 384.598602,439.557312 
	C380.749298,431.494232 379.943176,421.754456 371.823517,415.924042 
	C371.049774,415.368408 371.235992,413.475952 370.976532,412.204163 
	C374.462097,412.138672 377.949493,411.968658 381.432892,412.028839 
	C389.461639,412.167511 395.551849,415.790466 398.941559,423.045288 
	C401.884399,429.343689 404.187164,435.941132 406.971893,442.719635 
z"/>
<path fill="#FEF1DD" opacity="1.000000" stroke="none" 
	d="
M370.519897,412.143555 
	C371.235992,413.475952 371.049774,415.368408 371.823517,415.924042 
	C379.943176,421.754456 380.749298,431.494232 384.598602,439.557312 
	C387.151459,444.904724 389.338531,450.506317 390.927002,456.206573 
	C391.985321,460.004547 391.700928,464.176697 392.011444,468.589111 
	C390.181183,468.074585 388.021881,467.504364 386.604309,466.154938 
	C383.862610,463.545044 381.207062,460.716705 379.120117,457.577148 
	C376.012970,452.902924 372.023346,451.187195 366.561340,451.959534 
	C364.133606,452.302856 361.610504,451.972107 358.683838,451.904266 
	C358.215424,438.920471 358.193909,425.979675 358.255188,412.585236 
	C362.246368,412.115356 366.154816,412.099152 370.519897,412.143555 
z"/>
<path fill="#FABC87" opacity="1.000000" stroke="none" 
	d="
M126.376366,471.492249 
	C129.818634,462.595337 127.649399,453.387238 127.859222,444.410858 
	C127.987862,438.907379 126.734581,433.371643 126.043137,427.473938 
	C131.948944,427.039673 137.915634,427.060394 143.877365,426.898621 
	C148.499298,426.773224 150.820297,429.346741 150.921066,433.483093 
	C151.171219,443.753479 151.165665,454.037079 150.949478,464.308777 
	C150.846527,469.199677 147.841431,471.629669 142.230377,471.784332 
	C137.100281,471.925720 131.960617,471.720734 126.376366,471.492249 
z"/>
<path fill="#B77D73" opacity="1.000000" stroke="none" 
	d="
M252.806931,340.553558 
	C259.988159,340.173859 266.983368,340.153107 274.432556,340.186768 
	C274.903687,358.851288 274.920807,377.461334 274.931000,396.541199 
	C268.621704,397.010712 262.310883,397.182983 256.023560,396.875183 
	C254.643723,396.807648 252.193954,395.043274 252.184296,394.041565 
	C252.016693,376.636780 252.151459,359.229034 252.240204,341.822052 
	C252.241745,341.518219 252.488556,341.215668 252.806931,340.553558 
z"/>
<path fill="#988FCB" opacity="1.000000" stroke="none" 
	d="
M383.253723,353.746277 
	C388.447693,358.940948 393.412415,363.865082 398.329651,368.836212 
	C402.621674,373.175323 403.206146,378.311584 399.851746,381.575165 
	C397.002960,384.346832 391.987396,383.494904 388.023499,379.536713 
	C378.952423,370.478577 369.876953,361.424774 360.834137,352.338531 
	C357.077667,348.564026 356.932678,344.143250 360.337982,340.485626 
	C362.802673,337.838379 367.903259,338.445770 371.343628,341.847595 
	C375.250153,345.710449 379.118744,349.611664 383.253723,353.746277 
z"/>
</svg>