<?xml version="1.0" encoding="UTF-8"?>
<svg version="1.1" xmlns="http://www.w3.org/2000/svg" width="512" height="512">
<path d="M0 0 C0.64195312 0.41507812 1.28390625 0.83015625 1.9453125 1.2578125 C2.62851562 1.69351562 3.31171875 2.12921875 4.015625 2.578125 C12.16893297 8.25133929 17.76321918 16.14222388 23.1953125 24.3203125 C27.19572841 30.25611614 31.24334981 36.13336827 35.5078125 41.8828125 C41.45729105 49.91228664 47.2026381 58.07969512 52.9453125 66.2578125 C54.92276135 69.07152499 56.90199218 71.8839725 58.8828125 74.6953125 C59.376604 75.39672363 59.87039551 76.09813477 60.37915039 76.82080078 C63.44966801 81.17173668 66.56341323 85.48827839 69.70336914 89.78930664 C75.09312653 97.18425234 80.33787961 104.66477127 85.4453125 112.2578125 C86.30842041 113.52963379 86.30842041 113.52963379 87.18896484 114.82714844 C99.12586244 132.72723629 101.60609156 151.04078471 104.0078125 172.0078125 C104.26594691 174.2131924 104.52457738 176.41851428 104.78369141 178.6237793 C105.28776832 182.92807318 105.78524404 187.23306351 106.27880859 191.53857422 C106.81301282 196.17071588 107.39094703 200.79459956 107.99609375 205.41796875 C109.50682794 217.29296369 110.26963982 229.119753 110.41607666 241.08407593 C110.43487837 242.56240414 110.46078394 244.0406682 110.49554443 245.51870728 C110.69155494 255.00325266 109.62283041 263.95457573 107.77832031 273.25732422 C107.55646435 274.39113525 107.33460838 275.52494629 107.10602951 276.69311523 C104.70607062 288.76420851 101.89838735 300.73013684 99.0234375 312.6953125 C98.47204936 315.00738596 97.92109407 317.31956268 97.37054443 319.63183594 C96.23114085 324.41213501 95.08805937 329.19153249 93.94189453 333.97021484 C92.47128183 340.10204611 91.00802914 346.23560509 89.54716873 352.36976624 C88.41686523 357.1141225 87.28392539 361.85784577 86.1500473 366.60134888 C85.6088373 368.86592323 85.06818973 371.13063208 84.52811432 373.39547729 C83.77940768 376.53249249 83.02742384 379.66870286 82.27441406 382.8046875 C82.0520961 383.73847733 81.82977814 384.67226715 81.60072327 385.63435364 C81.39622055 386.48301498 81.19171783 387.33167633 80.98101807 388.20605469 C80.80407536 388.94474792 80.62713264 389.68344116 80.44482803 390.44451904 C79.9453125 392.2578125 79.9453125 392.2578125 78.9453125 394.2578125 C80.1003125 394.3403125 81.2553125 394.4228125 82.4453125 394.5078125 C90.61726329 395.57246806 97.59899808 400.06270177 102.9453125 406.2578125 C107.70389522 414.04083065 110.05192517 420.66816611 110.10644531 429.77294922 C110.11605286 431.07134735 110.1256604 432.36974548 110.13555908 433.70748901 C110.14040727 435.11749088 110.14468605 436.52749479 110.1484375 437.9375 C110.15267857 439.00974005 110.15267857 439.00974005 110.15700531 440.10364151 C110.17196007 443.88534155 110.18121336 447.6670038 110.18554688 451.44873047 C110.19103079 455.3412933 110.21506745 459.23350623 110.24351883 463.1259594 C110.26220236 466.13210035 110.2673538 469.13815787 110.26888275 472.14435196 C110.27189615 473.57878663 110.27988004 475.01322029 110.29306793 476.4475975 C110.42791743 492.2394222 110.42791743 492.2394222 104.5078125 499.0703125 C99.89914307 503.0045425 96.91053431 503.50937722 90.82302856 503.52523804 C90.10513904 503.52976915 89.38724952 503.53430026 88.64760578 503.53896868 C86.24173037 503.5516304 83.83608082 503.54999119 81.43017578 503.54833984 C79.70534982 503.55432398 77.98052654 503.56112927 76.25570679 503.56869507 C71.56972552 503.58637371 66.88381727 503.59105123 62.19780588 503.59232664 C58.2862562 503.59422541 54.37472355 503.60158268 50.46318042 503.60867083 C41.23472219 503.62495939 32.00630298 503.62983935 22.77783203 503.62841797 C13.25746929 503.62721632 3.73733317 503.64832172 -5.78297222 503.6799053 C-13.95633825 503.70605438 -22.12963021 503.71678584 -30.30303776 503.71550715 C-35.18480145 503.71499712 -40.06636375 503.72070276 -44.94808578 503.74186325 C-49.53970418 503.76122267 -54.13092862 503.76138589 -58.72256088 503.74682999 C-60.40678482 503.74473795 -62.09103327 503.74946632 -63.77521515 503.7615509 C-66.07675191 503.77699428 -68.37692869 503.76770275 -70.67843628 503.75228882 C-71.96559477 503.75337835 -73.25275326 503.75446789 -74.57891655 503.75559044 C-79.85398679 503.00012823 -82.90308036 500.56504223 -86.3671875 496.6328125 C-89.16439689 492.69599928 -89.19342238 490.41766315 -89.23168945 485.58007812 C-89.24154625 484.55034882 -89.24154625 484.55034882 -89.25160217 483.49981689 C-89.27135521 481.22123097 -89.2830073 478.94271129 -89.29296875 476.6640625 C-89.29704428 475.88403366 -89.3011198 475.10400482 -89.30531883 474.30033875 C-89.32619641 470.16507227 -89.34048608 466.02983906 -89.34985352 461.89453125 C-89.36087136 457.64225033 -89.39521196 453.39049946 -89.43502522 449.13840485 C-89.46130958 445.85419818 -89.46955616 442.57011495 -89.47313499 439.28581238 C-89.47797709 437.71986851 -89.48952256 436.15392927 -89.50817299 434.58808899 C-89.64329275 422.48316413 -88.4164583 413.02635017 -79.765625 403.9375 C-73.57616215 397.8610867 -66.58560621 394.76595706 -58.0546875 393.2578125 C-58.33183594 391.99066406 -58.60898437 390.72351563 -58.89453125 389.41796875 C-59.26065041 387.71880035 -59.62652262 386.01957872 -59.9921875 384.3203125 C-60.17458984 383.48951172 -60.35699219 382.65871094 -60.54492188 381.80273438 C-62.66746401 371.88467386 -63.34401983 362.07139452 -63.7421875 351.9453125 C-63.79705322 350.65874756 -63.85191895 349.37218262 -63.90844727 348.04663086 C-64.17125472 340.57258964 -63.99070772 333.26236479 -63.3203125 325.8125 C-63.25427322 325.02110123 -63.18823395 324.22970245 -63.12019348 323.4143219 C-62.79510232 319.54943141 -62.41682285 315.70508975 -61.93823242 311.85620117 C-60.79165148 300.65738217 -63.88532047 294.56345605 -70.79660034 285.86856079 C-72.48358572 283.70868753 -73.95302049 281.43573541 -75.41796875 279.12109375 C-75.90539551 278.36997314 -76.39282227 277.61885254 -76.89501953 276.8449707 C-77.38083496 276.0943335 -77.86665039 275.34369629 -78.3671875 274.5703125 C-79.47522857 272.86195851 -80.58330247 271.15362581 -81.69140625 269.4453125 C-82.24618652 268.589375 -82.8009668 267.7334375 -83.37255859 266.8515625 C-85.59137573 263.43026885 -87.81482531 260.01199828 -90.03833008 256.59375 C-95.04153256 248.901782 -100.04377625 241.20912938 -105.01635742 233.49731445 C-107.33863285 229.89742555 -109.67743538 226.30992287 -112.04296875 222.73828125 C-112.53651855 221.98828857 -113.03006836 221.2382959 -113.53857422 220.46557617 C-114.47099508 219.04940522 -115.4083938 217.63649196 -116.35205078 216.2277832 C-122.634327 206.65247403 -126.45667948 197.25774443 -124.4921875 185.6328125 C-122.05213785 176.62710294 -115.53746979 169.54963614 -108.0546875 164.2578125 C-103.5378897 161.96293432 -98.95920085 160.46316446 -94.0546875 159.2578125 C-94.49748047 158.56856689 -94.94027344 157.87932129 -95.39648438 157.16918945 C-99.64831212 150.54755397 -103.88759286 143.91812052 -108.11865234 137.28320312 C-109.66550408 134.86597908 -111.22379891 132.45742106 -112.79296875 130.0546875 C-119.37298471 119.79432363 -122.59781492 110.6028319 -121.0546875 98.2578125 C-117.88114441 86.97410374 -112.53283699 80.29339633 -102.51953125 74.51953125 C-98.42364686 72.4229058 -95.72361912 71.2578125 -91.0546875 71.2578125 C-91.27125 70.69835937 -91.4878125 70.13890625 -91.7109375 69.5625 C-95.1264281 59.72715206 -95.88553044 49.10849729 -91.375 39.50390625 C-86.85042568 31.80677539 -80.74105128 26.44026388 -72.17578125 23.64453125 C-64.09740018 22.17167724 -56.45443249 22.77557957 -49.0546875 26.2578125 C-48.961875 25.05125 -48.961875 25.05125 -48.8671875 23.8203125 C-46.79765262 14.74619805 -40.82096146 6.51927816 -33.0546875 1.4453125 C-23.74220319 -4.23918313 -9.73998198 -5.29588374 0 0 Z " fill="#020101" transform="translate(402.0546875,5.7421875)"/>
<path d="M0 0 C2.05078125 1.12109375 2.05078125 1.12109375 4 2.375 C4.69480469 2.79910156 5.38960937 3.22320313 6.10546875 3.66015625 C13.5532135 8.67655468 17.99697179 16.03325497 21 24.375 C21 25.365 21 26.355 21 27.375 C22.051875 26.88 23.10375 26.385 24.1875 25.875 C31.6259774 23.12342163 39.8675878 23.27614464 47.3125 25.9375 C56.3986843 30.17083587 61.25961592 36.19259787 65 45.375 C67.91053951 54.10661853 66.25375581 63.96946416 63 72.375 C64.4540625 72.4678125 64.4540625 72.4678125 65.9375 72.5625 C73.17186823 73.60225738 79.9397291 78.3147291 85 83.375 C91.59047708 92.79448283 93.99875739 100.87614845 93 112.375 C91.19802495 122.09279403 85.88284642 129.95089228 80.53271484 138.05078125 C78.82592979 140.6389612 77.14045614 143.24031912 75.45703125 145.84375 C72.31726929 150.69576116 69.16326966 155.53828754 66 160.375 C66.66821777 160.5611084 67.33643555 160.7472168 68.02490234 160.93896484 C80.00859681 164.38310608 88.63714166 170.77518225 94.9375 181.75 C97.94550133 192.01259277 97.56584104 200.92022045 92.45703125 210.33203125 C89.10012932 216.37878751 85.30958827 222.10941 81.427948 227.82669067 C79.40568549 230.80667122 77.40016518 233.79787498 75.39453125 236.7890625 C75.00362808 237.37158279 74.61272491 237.95410309 74.2099762 238.55427551 C71.36825525 242.79897863 68.61059012 247.08509993 65.9375 251.4375 C61.58258076 258.51859095 57.05230723 265.48231927 52.5 272.4375 C51.46734009 274.01640015 51.46734009 274.01640015 50.41381836 275.62719727 C49.7306958 276.66932373 49.04757324 277.7114502 48.34375 278.78515625 C47.65595459 279.85846191 46.96815918 280.93176758 46.25952148 282.03759766 C44.70358252 284.41120311 43.0266628 286.60858312 41.22680664 288.80224609 C33.54637662 298.49418757 32.91883011 306.03013759 34.15859985 318.14273071 C34.53857188 321.86515941 34.79486991 325.59326381 35.05918884 329.32539368 C35.19069734 331.16607826 35.32819795 333.00634537 35.47193909 334.84611511 C37.00155007 354.64741534 35.09473401 375.16498563 30 394.375 C31.051875 394.61283203 31.051875 394.61283203 32.125 394.85546875 C43.85503395 397.7401646 51.40203351 402.92806293 57.88671875 413.21484375 C60.51826833 418.32097329 61.25561177 422.8561503 61.29052734 428.5703125 C61.29724457 429.26380798 61.30396179 429.95730347 61.31088257 430.67181396 C61.3297701 432.94795024 61.33378149 435.22379041 61.3359375 437.5 C61.34237003 439.0913098 61.34909873 440.68261843 61.35610962 442.27392578 C61.36805789 445.60256696 61.37179279 448.93110453 61.37060547 452.25976562 C61.37040199 456.51684546 61.39774387 460.77325986 61.43214989 465.03018188 C61.45442322 468.31423983 61.45844295 471.59813744 61.45738602 474.88226318 C61.45973979 476.45150046 61.46855078 478.0207423 61.48405075 479.58990479 C61.50372828 481.78697003 61.49786829 483.9825973 61.48583984 486.1796875 C61.48868988 487.42733887 61.49153992 488.67499023 61.49447632 489.96044922 C60.7366997 495.19319068 58.27585645 498.25103122 54.375 501.6875 C50.37487839 504.52969167 48.04576947 504.50583082 43.12495422 504.52217102 C42.40947912 504.52584771 41.69400401 504.5295244 40.95684785 504.5333125 C38.54715247 504.54437036 36.13750018 504.54819675 33.7277832 504.55200195 C32.00487632 504.55826509 30.2819708 504.56491176 28.55906677 504.57191467 C23.86878684 504.58933999 19.17851712 504.59988093 14.48821282 504.6081202 C11.55840073 504.61326786 8.62859182 504.61934375 5.69878197 504.62563133 C-3.46623401 504.64468899 -12.6312419 504.65891805 -21.79627389 504.6672433 C-32.37852313 504.67701424 -42.96056311 504.70332762 -53.54273862 504.74374419 C-61.71946792 504.77390251 -69.89613725 504.78871197 -78.0729211 504.79202431 C-82.95755431 504.79437542 -87.84196412 504.80334351 -92.7265377 504.82848549 C-97.32386039 504.85176578 -101.92081259 504.85599962 -106.51817894 504.84572411 C-108.20360038 504.8452286 -109.88904005 504.85155345 -111.57440567 504.86528015 C-113.88005813 504.88300473 -116.18438187 504.87589133 -118.49003601 504.86274719 C-120.42328751 504.86632972 -120.42328751 504.86632972 -122.3955946 504.86998463 C-128.06690403 504.09115687 -131.76733056 501.93205614 -135.375 497.375 C-137.85944172 492.78833836 -138.12979177 489.2235636 -138.16113281 484.02099609 C-138.17074036 482.73220551 -138.1803479 481.44341492 -138.19024658 480.11557007 C-138.19509669 478.70986102 -138.19937499 477.30414991 -138.203125 475.8984375 C-138.20595238 475.18643818 -138.20877975 474.47443886 -138.21169281 473.7408638 C-138.22666917 469.96867758 -138.23590681 466.19652941 -138.24023438 462.42431641 C-138.24569877 458.55107542 -138.26968773 454.67818958 -138.29820633 450.80505943 C-138.31695383 447.80737336 -138.32204482 444.8097705 -138.32357025 441.81203079 C-138.32657302 440.38565772 -138.33451997 438.95928526 -138.34775543 437.53297043 C-138.46394367 424.04269819 -136.54942228 413.87046518 -127.44140625 403.62109375 C-121.93856304 398.35578334 -114.59130618 395.375 -107 395.375 C-107.22747925 394.54384171 -107.4549585 393.71268341 -107.68933105 392.8563385 C-110.75706074 381.51374882 -113.53452238 370.10758334 -116.28125 358.68359375 C-116.52633804 357.66568316 -116.77142609 356.64777256 -117.02394104 355.59901619 C-118.32094655 350.21193734 -119.61576579 344.82433874 -120.90869141 339.4362793 C-122.22771712 333.9412674 -123.55410083 328.44806011 -124.8822403 322.95524502 C-125.91766649 318.66705543 -126.94755676 314.37754916 -127.97605896 310.08769417 C-128.46194362 308.0651018 -128.94979023 306.04297948 -129.43983459 304.02139091 C-131.97813584 293.54158555 -134.34333996 283.05884089 -136.2902832 272.45141602 C-136.53808533 271.10681258 -136.53808533 271.10681258 -136.79089355 269.73504543 C-138.14871252 262.08885542 -138.72777172 254.65374885 -138.6875 246.875 C-138.68779205 246.17084961 -138.68808411 245.46669922 -138.68838501 244.74121094 C-138.58706437 214.26396383 -133.81751761 183.11648632 -129.3984375 153.015625 C-129.28686813 152.24589355 -129.17529877 151.47616211 -129.06034851 150.68310547 C-125.9134764 130.01971935 -115.40131119 115.40353203 -103.29296875 98.8828125 C-100.12503952 94.56028704 -97.02083056 90.19564615 -93.9375 85.8125 C-93.44652832 85.11519775 -92.95555664 84.41789551 -92.44970703 83.69946289 C-91.46080407 82.29447926 -90.47219666 80.88928756 -89.48388672 79.48388672 C-86.49392482 75.23457924 -83.49485255 70.99169567 -80.49755859 66.74755859 C-78.00714626 63.22048681 -75.5188188 59.691985 -73.03515625 56.16015625 C-67.32006888 48.03856793 -61.56425246 39.94888357 -55.72387695 31.91674805 C-53.19905921 28.44127658 -50.69738884 24.95690183 -48.2734375 21.41015625 C-37.42381842 5.6008885 -20.31503814 -8.58934069 0 0 Z " fill="#020101" transform="translate(138,4.625)"/>
<path d="M0 0 C7.13006014 4.65003922 11.78268541 10.08405936 16.5 17.125 C17.72917387 18.92145958 18.95967074 20.71701457 20.19140625 22.51171875 C20.8064502 23.41196777 21.42149414 24.3122168 22.05517578 25.23974609 C24.78200011 29.18841014 27.60735183 33.06257953 30.4375 36.9375 C34.88650587 43.04990636 39.19848635 49.240333 43.4375 55.5 C47.48255898 61.47026693 51.63586588 67.3212234 56 73.0625 C61.36732961 80.1253741 66.42160987 87.36251544 71.39501953 94.70654297 C73.00621597 97.06725673 74.64001299 99.41124962 76.27734375 101.75390625 C76.85492432 102.58494873 77.43250488 103.41599121 78.02758789 104.2722168 C79.13789423 105.86945267 80.25263947 107.46361648 81.37280273 109.05395508 C90.1365999 121.72346206 93.73351912 134.19526642 95.375 149.4375 C95.49600067 150.49933502 95.61700134 151.56117004 95.7416687 152.65518188 C96.12767653 156.06092299 96.50197671 159.46781428 96.875 162.875 C97.13771174 165.2336138 97.40089759 167.59217484 97.66455078 169.95068359 C98.17779629 174.55100363 98.68633189 179.15181334 99.19238281 183.75292969 C99.74013611 188.70659891 100.3212165 193.65503644 100.9296875 198.6015625 C104.72380706 229.99779538 101.52007298 256.15762963 93.72412109 286.53222656 C92.53896414 291.19788758 91.4168053 295.87714222 90.3125 300.5625 C89.91017148 302.26693068 89.50782766 303.97135774 89.10546875 305.67578125 C88.9048584 306.5260791 88.70424805 307.37637695 88.49755859 308.25244141 C87.8559468 310.95526254 87.2047875 313.65562108 86.55078125 316.35546875 C84.16823811 326.20055137 81.82562814 336.0525914 79.5625 345.92578125 C79.36162781 346.80117554 79.16075562 347.67656982 78.95379639 348.57849121 C77.94710089 352.9678887 76.94407124 357.35807959 75.94628906 361.74951172 C75.57366348 363.37860264 75.20094619 365.00767258 74.828125 366.63671875 C74.66062744 367.37948563 74.49312988 368.1222525 74.32055664 368.88752747 C73.37492928 373.00514391 72.21800763 376.8459771 70.875 380.875 C36.555 380.875 2.235 380.875 -33.125 380.875 C-39.86995126 362.8884633 -40.52165396 344.6395362 -40.5625 325.625 C-40.56849213 324.70585815 -40.57448425 323.78671631 -40.58065796 322.83972168 C-40.63943444 309.27791723 -39.401747 296.23877972 -37.125 282.875 C-36.83363159 281.13259033 -36.83363159 281.13259033 -36.53637695 279.35498047 C-36.07411334 276.70910325 -35.57942098 274.07315882 -35.0625 271.4375 C-34.90201172 270.58091797 -34.74152344 269.72433594 -34.57617188 268.84179688 C-33.93152301 265.49428291 -33.3031518 262.35227975 -32.10778809 259.14982605 C-31.06087391 255.66132039 -30.86731188 252.83743529 -30.85375977 249.20214844 C-30.84357315 247.89348816 -30.83338654 246.58482788 -30.82289124 245.23651123 C-30.82195024 244.54405052 -30.82100925 243.85158981 -30.82003975 243.13814545 C-30.81634896 240.95041818 -30.79954749 238.7631334 -30.77928162 236.57550049 C-30.72414123 230.3588489 -30.69329348 224.14213256 -30.66870117 217.92529297 C-30.65271447 214.11214795 -30.62237971 210.29931687 -30.58393669 206.48633575 C-30.57238244 205.04327 -30.56635719 203.60014783 -30.56625557 202.15703583 C-30.56524388 191.61048782 -30.21383787 181.30496936 -23.125 172.875 C-16.25576593 166.87163577 -10.6334681 164.38160654 -1.453125 164.5625 C8.61057556 165.50744841 17.80315809 168.90064988 24.43359375 176.7109375 C28.40093168 182.03818447 29.02355982 186.07745891 29.03271484 192.51171875 C29.03779556 193.2876236 29.04287628 194.06352844 29.04811096 194.86294556 C29.05880854 196.54734164 29.06743113 198.23175188 29.07423019 199.91616821 C29.08601713 202.5804997 29.10546784 205.24466895 29.12734985 207.90893555 C29.18898442 215.48383209 29.24307686 223.05871068 29.27636719 230.63378906 C29.29727737 235.26688976 29.33254707 239.8996925 29.37712479 244.53262329 C29.39131011 246.29965719 29.40001292 248.06674378 29.40317917 249.83383179 C29.40807171 252.30230044 29.43118436 254.76997348 29.45849609 257.23828125 C29.45398689 258.33712143 29.45398689 258.33712143 29.4493866 259.4581604 C29.49700181 262.34658597 29.54815629 264.38747741 31.18228149 266.82495117 C34.10026286 268.63507075 36.55935802 268.28945525 39.875 267.875 C42.81707822 264.92380838 43.26025861 262.66753848 43.31651306 258.57980347 C43.34871193 256.96981476 43.34871193 256.96981476 43.38156128 255.32730103 C43.39366135 253.56789688 43.39366135 253.56789688 43.40600586 251.77294922 C43.43557625 249.9134967 43.43557625 249.9134967 43.46574402 248.01647949 C43.52497663 243.90419326 43.5599733 239.79225887 43.58984375 235.6796875 C43.60199606 234.25736448 43.6143471 232.83504314 43.626894 231.41272354 C43.68406717 224.71824365 43.72673008 218.02386239 43.75172991 211.32918537 C43.78091843 203.64213558 43.85951104 195.95770757 43.98123258 188.27157962 C44.07237717 182.30776532 44.11619922 176.34469178 44.12607294 170.38019574 C44.13306086 166.82939566 44.15905084 163.28139209 44.23545647 159.73134995 C44.58240777 142.74593097 43.68183976 130.66728014 32.26737976 117.51750183 C30.38767963 115.30013916 28.85019331 112.91030493 27.31640625 110.4453125 C26.83558594 109.70410156 26.35476563 108.96289062 25.859375 108.19921875 C25.39015625 107.47347656 24.9209375 106.74773437 24.4375 106 C23.3450823 104.31508457 22.25263347 102.63018934 21.16015625 100.9453125 C20.61762207 100.10774414 20.07508789 99.27017578 19.51611328 98.40722656 C16.80688601 94.22690743 14.09061451 90.05117144 11.375 85.875 C10.29163234 84.20835565 9.20829901 82.54168897 8.125 80.875 C7.58875 80.05 7.0525 79.225 6.5 78.375 C4.875 75.875 3.25 73.375 1.625 70.875 C0.8196582 69.6362915 0.8196582 69.6362915 -0.00195312 68.37255859 C-1.07946341 66.71447643 -2.15629231 65.05595126 -3.23242188 63.39697266 C-6.02427454 59.09498151 -8.82940708 54.80253214 -11.65625 50.5234375 C-12.23697266 49.64042969 -12.81769531 48.75742188 -13.41601562 47.84765625 C-14.514436 46.17805727 -15.6169656 44.51115056 -16.72460938 42.84765625 C-22.86687373 33.48876434 -28.00869105 25.41066172 -26.125 13.875 C-24.07045754 7.45578362 -20.26514725 3.34320384 -14.52734375 -0.09375 C-9.43910314 -2.27797036 -5.11752176 -1.84230783 0 0 Z " fill="#FCDAA5" transform="translate(394.125,19.125)"/>
<path d="M0 0 C4.76831743 3.96606497 7.59049942 8.72554226 8.703125 14.828125 C9.47457443 28.22329229 0.62974373 38.62112212 -6.5390625 49.1640625 C-9.84336561 54.02472595 -13.05571897 58.94154074 -16.25 63.875 C-16.78810303 64.70491455 -17.32620605 65.5348291 -17.88061523 66.38989258 C-18.97493543 68.07791367 -20.06892859 69.76614681 -21.16259766 71.45458984 C-23.91583469 75.70218519 -26.67728053 79.94444021 -29.4375 84.1875 C-32.49354502 88.88557873 -35.54788555 93.58461417 -38.58203125 98.296875 C-38.99878333 98.9416854 -39.41553541 99.5864958 -39.84491634 100.25084591 C-40.7288989 101.62653914 -41.60575772 103.00686231 -42.47226048 104.39363194 C-44.90842174 108.24771089 -47.4566838 111.85052064 -50.36643982 115.36302185 C-61.79689834 129.70941747 -62.79276671 142.36881184 -62.33080983 160.24832845 C-62.25307515 163.82286921 -62.25496902 167.39750988 -62.24668884 170.97276306 C-62.22205726 176.95187584 -62.14647606 182.92842515 -62.03344727 188.90649414 C-61.87423303 197.33580505 -61.81535225 205.76379672 -61.77270901 214.19438183 C-61.73924741 220.058993 -61.68162507 225.92340598 -61.61977077 231.78777766 C-61.60501856 233.20357933 -61.5910038 234.61938888 -61.57772374 236.03520513 C-61.53346823 240.67254333 -61.46133301 245.30876448 -61.37524414 249.94555664 C-61.36403534 251.1137796 -61.35282654 252.28200256 -61.34127808 253.48562622 C-61.31692184 254.55461655 -61.29256561 255.62360687 -61.26747131 256.72499084 C-61.24434419 258.11654436 -61.24434419 258.11654436 -61.22074986 259.53621006 C-60.736444 262.45899837 -59.84254648 263.86699348 -57.8125 266 C-55.53360658 266.48168728 -55.53360658 266.48168728 -53.125 266.25 C-52.31675781 266.21390625 -51.50851563 266.1778125 -50.67578125 266.140625 C-50.06089844 266.09421875 -49.44601563 266.0478125 -48.8125 266 C-47.61966555 262.42149664 -47.66793731 259.16676572 -47.6706543 255.44262695 C-47.66544266 254.29081688 -47.66544266 254.29081688 -47.66012573 253.11573792 C-47.6527741 251.44771867 -47.64742556 249.77968968 -47.64383507 248.1116581 C-47.63666089 245.46695184 -47.62098587 242.82243018 -47.60249329 240.17778015 C-47.55007816 232.65801572 -47.50208163 225.13835127 -47.48657227 217.6184082 C-47.47646171 213.01764424 -47.44705728 208.41734347 -47.40525246 203.81676292 C-47.39297882 202.06781717 -47.38781453 200.31880588 -47.39005089 198.5698185 C-47.39241753 196.11416272 -47.37013521 193.6598229 -47.3425293 191.2043457 C-47.35243141 190.13247009 -47.35243141 190.13247009 -47.36253357 189.03894043 C-47.24716248 182.7483737 -45.02578084 177.7515105 -41.09375 172.86328125 C-32.78213216 165.6270701 -23.91974708 162.14611662 -12.85546875 162.6484375 C-5.14887772 163.53880103 1.11174114 165.9393924 6.1875 172 C10.56458834 179.07591484 12.30386535 185.1763361 12.3293457 193.47998047 C12.33989738 195.4188765 12.33989738 195.4188765 12.35066223 197.39694214 C12.35338607 198.42721338 12.35338607 198.42721338 12.35616493 199.47829819 C12.36339186 201.65043233 12.37910878 203.82234847 12.39750671 205.99441528 C12.44964949 212.16877031 12.49779797 218.34300822 12.51342773 224.51757812 C12.52363574 228.30375433 12.55328277 232.0893822 12.59474754 235.87533951 C12.60688957 237.30309991 12.61221029 238.73093839 12.60994911 240.15874863 C12.59925323 249.12605732 13.65151567 257.11072472 16.21252441 265.67927551 C17.67390464 270.65667307 18.53190317 275.70055847 19.375 280.8125 C19.53935547 281.75802734 19.70371094 282.70355469 19.87304688 283.67773438 C21.87323347 295.46021007 22.37390746 306.92438884 22.37280273 318.85546875 C22.37497201 321.46631615 22.39313001 324.07672795 22.41210938 326.6875 C22.4725266 344.6299322 20.88996575 361.89260274 15.1875 379 C-19.1325 379 -53.4525 379 -88.8125 379 C-93.41732341 362.88311807 -93.41732341 362.88311807 -95 356.0625 C-95.30019043 354.78934937 -95.30019043 354.78934937 -95.60644531 353.49047852 C-97.03324266 347.41309026 -98.42518371 341.32778898 -99.81640625 335.2421875 C-100.56450072 331.9738199 -101.31342403 328.70564277 -102.0625 325.4375 C-102.25309998 324.6046347 -102.44369995 323.77176941 -102.64007568 322.91366577 C-105.47914398 310.52574832 -108.4932533 298.19187065 -111.625 285.875 C-121.17514187 248.2565614 -121.34948692 215.36236017 -116.8125 177 C-116.69652466 176.01269897 -116.58054932 175.02539795 -116.46105957 174.00817871 C-115.72800207 167.78743645 -114.973136 161.56980597 -114.19317627 155.35476685 C-113.94222667 153.34924221 -113.69470911 151.34328471 -113.4508667 149.33688354 C-110.26887838 123.34172635 -110.26887838 123.34172635 -102.8125 112.3125 C-102.43005127 111.74055908 -102.04760254 111.16861816 -101.65356445 110.5793457 C-100.39119203 108.70649611 -99.10553881 106.85179433 -97.8125 105 C-97.35278809 104.33838867 -96.89307617 103.67677734 -96.41943359 102.99511719 C-93.42667614 98.69943886 -90.39763477 94.43042396 -87.35644531 90.16894531 C-85.84244379 88.04206525 -84.33740129 85.90918303 -82.8359375 83.7734375 C-77.7350699 76.51787855 -72.58896174 69.29976119 -67.375 62.125 C-62.87157532 55.92462292 -58.49144923 49.65284301 -54.1875 43.3125 C-49.8370465 36.90448742 -45.39573656 30.58591372 -40.77392578 24.37060547 C-38.51780331 21.33571152 -36.30037704 18.28450875 -34.15234375 15.171875 C-24.69871025 1.49739635 -24.69871025 1.49739635 -17 -2.4375 C-11.06814137 -3.48429858 -5.2078224 -3.28615867 0 0 Z " fill="#FCDAA5" transform="translate(135.8125,21)"/>
<path d="M0 0 C1.75581642 -0.0129007 1.75581642 -0.0129007 3.54710388 -0.02606201 C4.83285309 -0.03032196 6.11860229 -0.03458191 7.4433136 -0.03897095 C8.81007088 -0.04687406 10.17682608 -0.05514314 11.5435791 -0.06375122 C16.03398146 -0.08995064 20.52439303 -0.10527834 25.0148468 -0.11953735 C26.56214211 -0.12489818 28.10943736 -0.1302757 29.65673256 -0.13566971 C36.09488842 -0.15729678 42.5330418 -0.17603199 48.97122478 -0.1872921 C58.18937594 -0.20352162 67.40710495 -0.2366767 76.62509698 -0.29369295 C83.11100378 -0.33243833 89.5967979 -0.35193029 96.08281738 -0.35721266 C99.954255 -0.36086032 103.82524216 -0.37281808 107.69655418 -0.4053154 C111.34189193 -0.43547706 114.98650861 -0.4416797 118.63194466 -0.42993164 C120.59853509 -0.42960708 122.56508155 -0.45401965 124.5315094 -0.47930908 C132.76086825 -0.42152311 138.04720659 0.81952289 143.92588329 6.7028904 C147.89735029 11.20664598 148.50339615 14.5068684 148.50752258 20.35360718 C148.51067474 21.63148102 148.5138269 22.90935486 148.51707458 24.22595215 C148.51528508 25.621206 148.51323419 27.01645953 148.51094055 28.41171265 C148.51161404 29.8399253 148.51258445 31.26813784 148.51383972 32.6963501 C148.5153136 35.68725681 148.51317144 38.67813363 148.50849915 41.66903687 C148.5027917 45.51055328 148.50608921 49.35199999 148.51207161 53.19351387 C148.51567678 56.14107798 148.51453902 59.08862543 148.51194382 62.03619003 C148.51127496 63.45323571 148.51210154 64.87028288 148.51442337 66.28732681 C148.51695024 68.26254499 148.51241904 70.23776845 148.50752258 72.21298218 C148.50672699 73.33866608 148.5059314 74.46434998 148.50511169 75.62414551 C148.37812805 78.15390015 148.37812805 78.15390015 147.37812805 79.15390015 C145.22653079 79.25083715 143.07168694 79.27576798 140.91790771 79.27415466 C140.23510005 79.27500909 139.55229238 79.27586351 138.84879357 79.27674383 C136.54401114 79.27840058 134.23930033 79.27287411 131.93452454 79.26742554 C130.28907778 79.26714368 128.64363089 79.26730137 126.9981842 79.26786804 C122.51697046 79.26815608 118.03578324 79.26225836 113.55457568 79.25529408 C108.876707 79.24906157 104.19883777 79.24845683 99.52096558 79.24726868 C90.65637637 79.24415506 81.79179943 79.23594126 72.92721564 79.22591919 C62.83790603 79.214759 52.74859585 79.20924784 42.65928161 79.20422375 C21.89889023 79.19375867 1.13850991 79.17615864 -19.62187195 79.15390015 C-19.73806504 70.68682288 -19.82673728 62.22008241 -19.88093281 53.75240326 C-19.90695297 49.81986699 -19.94220968 45.88787884 -19.99906921 41.95565796 C-20.05366348 38.15602789 -20.08334943 34.35692277 -20.09625816 30.55693054 C-20.10544932 29.11209354 -20.12339751 27.66728311 -20.15052223 26.22267151 C-20.42028166 11.25127485 -20.42028166 11.25127485 -14.62187195 5.15390015 C-9.72031403 1.33068497 -6.14081926 0.03357215 0 0 Z " fill="#A1E42B" transform="translate(35.62187194824219,414.8460998535156)"/>
<path d="M0 0 C1.16068497 -0.0071553 2.32136993 -0.01431061 3.51722717 -0.02168274 C4.7920546 -0.02437164 6.06688202 -0.02706055 7.38034058 -0.02983093 C8.7356229 -0.03609712 10.09090351 -0.04274406 11.44618225 -0.04974365 C15.89932054 -0.07077394 20.35245912 -0.08114737 24.80563354 -0.09111023 C26.34052422 -0.09515864 27.87541471 -0.09927559 29.41030502 -0.10346031 C36.62431893 -0.12251237 43.83832262 -0.13674147 51.05235684 -0.14507228 C59.36839159 -0.15483503 67.68415948 -0.18112912 76.00010026 -0.22157317 C82.43422068 -0.25178635 88.86826487 -0.26654621 95.30245483 -0.26985329 C99.14199471 -0.27219852 102.98124953 -0.28108924 106.82071304 -0.30631447 C110.43725739 -0.32969065 114.05333094 -0.33379059 117.66993141 -0.32355309 C119.61840996 -0.322826 121.56686511 -0.34185151 123.51524353 -0.36161804 C130.57086656 -0.32001411 136.37587144 0.27962448 142.42282104 4.14717102 C147.17321798 9.019373 148.67565019 12.90593397 148.64987183 19.65986633 C148.65016388 20.3041861 148.65045593 20.94850586 148.65075684 21.61235046 C148.64936799 23.73347123 148.6338282 25.85423692 148.61813354 27.97529602 C148.61440182 29.44931344 148.6115556 30.92333334 148.60955811 32.39735413 C148.60193416 36.27061349 148.5822964 40.14372207 148.56015015 44.016922 C148.53966498 47.97177592 148.53055068 51.92665429 148.52047729 55.88154602 C148.49904925 63.63682298 148.46492837 71.39197584 148.42282104 79.14717102 C126.66599823 79.17049786 104.90917747 79.18814914 83.1523447 79.19898319 C73.05101161 79.20414661 62.94968627 79.21119017 52.84835815 79.22261047 C44.0473764 79.23255592 35.24640027 79.23902412 26.44541305 79.24125952 C21.78235838 79.24256686 17.11931976 79.2456542 12.45627022 79.25290108 C8.07249739 79.25965911 3.68874733 79.26178843 -0.69503021 79.2602787 C-2.30878129 79.26055513 -3.92253309 79.26256154 -5.53627968 79.2663765 C-7.72986786 79.27131036 -9.92336866 79.27017046 -12.11695862 79.26742554 C-13.96284907 79.26880823 -13.96284907 79.26880823 -15.84603024 79.27021885 C-18.57717896 79.14717102 -18.57717896 79.14717102 -19.57717896 78.14717102 C-19.69223354 76.19051545 -19.7368552 74.22968839 -19.75418091 72.26972961 C-19.76701614 71.01107086 -19.77985138 69.75241211 -19.79307556 68.45561218 C-19.80124557 67.06894829 -19.8086888 65.68227995 -19.81546021 64.29560852 C-19.81953573 63.59917866 -19.82361126 62.90274879 -19.82781029 62.185215 C-19.84869918 58.49431401 -19.86298476 54.80345043 -19.87234497 51.11250305 C-19.88337464 47.30939244 -19.91772542 43.50687259 -19.95751667 39.70396996 C-19.9837479 36.77330994 -19.99204284 33.84278871 -19.99562645 30.91202164 C-20.00048104 29.51105922 -20.01206289 28.11010254 -20.03066444 26.70925522 C-20.14217585 17.74963109 -20.00892085 11.93154614 -13.76077271 5.18623352 C-13.18456177 4.7195929 -12.60835083 4.25295227 -12.01467896 3.77217102 C-11.14649536 3.04900696 -11.14649536 3.04900696 -10.26077271 2.31123352 C-6.92919795 0.00773172 -3.91790238 0.01656781 0 0 Z " fill="#A1E42B" transform="translate(347.5771789550781,414.8528289794922)"/>
<path d="M0 0 C4.23253931 3.74038358 6.39415985 7.11209025 7.125 12.75 C5.23471305 28.41237761 -6.39569756 42.20123017 -14.828125 55.10205078 C-16.34763998 57.42880809 -17.86205046 59.7588126 -19.375 62.08984375 C-25.21625218 71.08916396 -31.07432482 80.07745162 -36.9375 89.0625 C-41.48716936 96.03647983 -46.03354954 103.01254243 -50.5625 110 C-51.00416504 110.68022217 -51.44583008 111.36044434 -51.90087891 112.0612793 C-52.30999512 112.69332275 -52.71911133 113.32536621 -53.140625 113.9765625 C-53.52726318 114.56010498 -53.91390137 115.14364746 -54.31225586 115.74487305 C-55.46044212 117.52358894 -55.46044212 117.52358894 -56.51953125 120.24609375 C-59.47664172 123.75725977 -63.36304794 123.42495581 -67.75 123.8125 C-76.52920374 124.8264251 -82.66692193 126.8712556 -90.3125 131.375 C-91.3025 131.705 -92.2925 132.035 -93.3125 132.375 C-94.89019532 117.39020434 -93.12112233 108.46809631 -83.95068359 96.56445312 C-81.06414062 92.70655188 -78.52854282 88.62191813 -75.9375 84.5625 C-74.83754903 82.86744275 -73.73597646 81.17343671 -72.6328125 79.48046875 C-69.35846898 74.44590121 -66.08535242 69.41053696 -62.8125 64.375 C-59.53964758 59.33946304 -56.26653102 54.30409879 -52.9921875 49.26953125 C-51.89060317 47.57553503 -50.78904054 45.8815247 -49.6875 44.1875 C-48.88082886 42.94709961 -48.88082886 42.94709961 -48.05786133 41.68164062 C-44.99665441 36.97252037 -41.94305336 32.25861104 -38.89794922 27.5390625 C-37.5381356 25.43403493 -36.17386023 23.33196261 -34.80859375 21.23046875 C-33.2204959 18.78551413 -31.65085007 16.3305321 -30.09765625 13.86328125 C-25.80010326 7.15711891 -21.77281441 2.07466399 -14.9375 -2.0625 C-9.56362662 -3.2140443 -4.90049822 -2.40401799 0 0 Z " fill="#FBD8A4" transform="translate(182.3125,46.625)"/>
<path d="M0 0 C7.80118552 4.36388156 12.00553311 11.8876474 16.53466797 19.31738281 C20.832539 26.33992401 25.41167466 33.16599506 30 40 C35.17345205 47.71529425 40.30016486 55.44340018 45.16625977 63.35766602 C48.78006559 69.20993671 52.54160043 74.96378844 56.31225586 80.71569824 C57.43160725 82.42848317 58.5437983 84.14572259 59.65429688 85.86425781 C62.82051958 90.75034518 65.99941239 95.5843563 69.5390625 100.2109375 C77.66608279 111.07306126 78.40968789 120.11092247 77 133.5 C74.00992015 132.34404129 71.18381471 131.10301732 68.375 129.5625 C61.59075158 126.15128316 55.01116345 124.38460941 47.4375 124.8125 C43.48176311 124.47359558 42.33489773 123.89166978 39.71875 120.83203125 C37.50595268 117.41225358 35.58689841 113.82347146 33.61279297 110.26269531 C30.70637649 105.28403821 27.43025782 100.5444011 24.19915771 95.77301025 C22.20877748 92.83014083 20.23410518 89.87682493 18.26171875 86.921875 C17.69508514 86.07298203 17.69508514 86.07298203 17.11700439 85.2069397 C13.87749496 80.34068959 10.75492936 75.41196597 7.6953125 70.43139648 C4.07990387 64.56484071 0.28669102 58.8195056 -3.5 53.0625 C-8.10584923 46.04229899 -12.6169132 38.98732398 -16.875 31.75 C-17.28556641 31.05334229 -17.69613281 30.35668457 -18.11914062 29.63891602 C-22.24716543 22.5234576 -22.70211193 16.64449842 -22 8.5 C-19.98363007 3.90267657 -17.25404666 1.42465554 -12.8515625 -0.8046875 C-8.26526989 -2.52696616 -4.37106241 -1.88654717 0 0 Z " fill="#FBD9A4" transform="translate(346,45.5)"/>
<path d="M0 0 C1.82421875 1.90966797 1.82421875 1.90966797 3.4375 4.4296875 C4.03272461 5.34177979 4.62794922 6.25387207 5.24121094 7.19360352 C5.82161133 8.11971436 6.40201172 9.0458252 7 10 C7.51594727 10.79784912 8.03189453 11.59569824 8.56347656 12.41772461 C10.14383062 14.87155289 11.69831645 17.34045283 13.25 19.8125 C18.96058241 28.8457459 24.76665447 37.81227888 30.625 46.75 C31.02928223 47.36789398 31.43356445 47.98578796 31.85009766 48.62240601 C35.82381772 54.69515077 39.81238946 60.75463884 43.9140625 66.7421875 C44.48560059 67.58040039 45.05713867 68.41861328 45.64599609 69.28222656 C46.68400801 70.79832433 47.7306794 72.30854473 48.78759766 73.81152344 C49.93623338 75.49033061 50.98064931 77.23969272 52 79 C50.80180026 82.59459922 49.97177544 82.86607696 46.8125 84.75 C39.48700286 89.48661305 35.73694859 94.91135035 32.078125 102.765625 C31 105 31 105 29 108 C23.22058852 99.97194377 17.87455615 91.68314431 12.52539062 83.36669922 C9.90382088 79.2992381 7.26382117 75.24378133 4.625 71.1875 C4.08512451 70.35677979 3.54524902 69.52605957 2.98901367 68.67016602 C0.18614716 64.35777643 -2.62077507 60.04809283 -5.43359375 55.7421875 C-25.08041938 25.64090676 -25.08041938 25.64090676 -24 13 C-21.68312577 7.9028767 -17.53696718 4.23166804 -13 1 C-8.49914091 -0.50028636 -4.66614214 -1.10538478 0 0 Z " fill="#FBD8A4" transform="translate(321,92)"/>
<path d="M0 0 C6.71314412 0.09505337 11.92012266 1.5059577 16.81640625 6.28515625 C20.47292071 10.45532393 22.17528691 13.01729706 22.26953125 18.65625 C22.2953125 19.56632812 22.32109375 20.47640625 22.34765625 21.4140625 C21.42771965 30.15346016 16.51351 36.69997645 11.67324829 43.75744629 C9.60789066 46.76968744 7.56951954 49.80014252 5.52734375 52.828125 C5.12757828 53.41930115 4.72781281 54.01047729 4.31593323 54.61956787 C1.39239095 58.95070209 -1.43471715 63.32817269 -4.16796875 67.78125 C-8.23533746 74.38826153 -12.43308356 80.90535242 -16.66796875 87.40625 C-17.28631592 88.35790039 -17.90466309 89.30955078 -18.54174805 90.29003906 C-22.56838197 96.45735373 -26.71931251 102.52366472 -30.98046875 108.53125 C-32.67852418 105.98416685 -33.84926278 103.67341701 -35.10546875 100.90625 C-39.41292928 92.25343339 -45.45303109 86.04444174 -53.98046875 81.53125 C-52.48000823 77.23848863 -50.22575812 73.68912523 -47.66796875 69.96875 C-46.76059296 68.62836558 -45.85440363 67.28717745 -44.94921875 65.9453125 C-44.46710938 65.23149414 -43.985 64.51767578 -43.48828125 63.78222656 C-40.84052069 59.82944931 -38.25549614 55.83611296 -35.66796875 51.84375 C-35.12245361 51.00279785 -34.57693848 50.1618457 -34.01489258 49.29541016 C-32.89720888 47.57210355 -31.77977883 45.84863242 -30.66259766 44.125 C-27.35965794 39.03204912 -24.0476604 33.94498077 -20.73754883 28.85668945 C-18.09229224 24.78815008 -15.45263036 20.71616432 -12.82421875 16.63671875 C-12.3235791 15.86030029 -11.82293945 15.08388184 -11.30712891 14.28393555 C-10.36800379 12.82660163 -9.43009567 11.36848244 -8.49365234 9.90942383 C-7.33340828 8.10932946 -6.15799062 6.32005671 -4.98046875 4.53125 C-4.21669922 3.3246875 -4.21669922 3.3246875 -3.4375 2.09375 C-1.98046875 0.53125 -1.98046875 0.53125 0 0 Z " fill="#FBD9A4" transform="translate(192.98046875,91.46875)"/>
<path d="M0 0 C6.13963665 2.41864474 11.0483481 7.09669619 14 13 C15.5221991 24.74267879 7.13139541 34.59493801 0.828125 43.83203125 C-2.29096579 48.40398486 -5.3039221 53.04233852 -8.3125 57.6875 C-8.8576123 58.52756592 -9.40272461 59.36763184 -9.96435547 60.2331543 C-11.64375462 62.8215522 -13.32203701 65.41067089 -15 68 C-27.60059962 87.44446901 -27.60059962 87.44446901 -33.75 96.75 C-34.16854248 97.38848877 -34.58708496 98.02697754 -35.01831055 98.68481445 C-35.98553413 100.14127917 -36.98869028 101.57379399 -38 103 C-38.33 103 -38.66 103 -39 103 C-41.23216054 95.74395221 -42.56943338 88.92167624 -42.890625 81.33984375 C-42.93331512 80.35959229 -42.97600525 79.37934082 -43.01998901 78.36938477 C-43.85814145 54.72436818 -43.22882625 38.68105548 -27.12451172 20.47558594 C-24.0699734 16.91628709 -21.65083527 13.04169647 -19.1875 9.0625 C-13.9591705 0.84447802 -9.81012158 -1.44026716 0 0 Z " fill="#FBD9A4" transform="translate(205,181)"/>
<path d="M0 0 C0.92683594 -0.02835938 1.85367187 -0.05671875 2.80859375 -0.0859375 C7.2723932 0.66119489 9.78215847 3.33146695 12.44018555 6.88598633 C13.31090698 8.28240356 13.31090698 8.28240356 14.19921875 9.70703125 C15.19018555 11.27807617 15.19018555 11.27807617 16.20117188 12.88085938 C16.87728516 13.97205078 17.55339844 15.06324219 18.25 16.1875 C19.58561553 18.32002843 20.92287712 20.45152674 22.26171875 22.58203125 C22.94129639 23.69433105 23.62087402 24.80663086 24.32104492 25.95263672 C25.83035396 28.34996788 27.46481033 30.52017243 29.2824707 32.69189453 C37.60440548 42.99666934 37.91267073 52.45892114 37.48168945 65.41015625 C37.37470145 68.63399618 37.33819833 71.85269394 37.31445312 75.078125 C37.28269753 77.16152403 37.24702547 79.24486784 37.20703125 81.328125 C37.19114456 82.27423645 37.17525787 83.2203479 37.15888977 84.19512939 C36.92229674 90.92559697 35.5775291 96.95746011 33.5625 103.375 C30.87975904 100.74423925 28.6936387 98.27948684 26.70703125 95.0859375 C26.17585693 94.24015137 25.64468262 93.39436523 25.09741211 92.52294922 C24.24481812 91.15033936 24.24481812 91.15033936 23.375 89.75 C22.12388666 87.75947885 20.87121516 85.76993642 19.6171875 83.78125 C18.9581543 82.73582031 18.29912109 81.69039063 17.62011719 80.61328125 C14.13255266 75.12454657 10.56630214 69.68777582 7 64.25 C6.28658447 63.15993652 5.57316895 62.06987305 4.83813477 60.94677734 C1.49186181 55.83550869 -1.8623845 50.72973431 -5.23046875 45.6328125 C-6.38286046 43.88023987 -7.53520698 42.12763752 -8.6875 40.375 C-9.19998291 39.60526855 -9.71246582 38.83553711 -10.24047852 38.04248047 C-20.73711449 22.03909657 -20.73711449 22.03909657 -19.4375 13.375 C-15.51508048 5.68102326 -8.78788508 0.12188468 0 0 Z " fill="#FBD9A4" transform="translate(312.4375,180.625)"/>
</svg>
