<?xml version="1.0" encoding="UTF-8"?>
<svg version="1.1" xmlns="http://www.w3.org/2000/svg" width="512" height="512">
<path d="M0 0 C1.40330566 0.24145752 1.40330566 0.24145752 2.83496094 0.48779297 C25.37859075 4.51592868 47.45913052 11.88832879 68 22 C69.23194092 22.59868896 69.23194092 22.59868896 70.48876953 23.20947266 C94.47982245 34.96926446 115.79506927 50.48693108 135 69 C135.55606934 69.53415527 136.11213867 70.06831055 136.68505859 70.61865234 C143.99718132 77.67899466 150.80769799 84.91741632 157 93 C157.40895508 93.52722656 157.81791016 94.05445312 158.23925781 94.59765625 C183.90608912 127.84304856 201.58384174 166.61230932 209 208 C209.16081055 208.85964355 209.32162109 209.71928711 209.48730469 210.60498047 C214.46252476 238.34824371 214.0866369 269.31401642 209 297 C208.76651855 298.35158203 208.76651855 298.35158203 208.52832031 299.73046875 C201.60194193 338.93847095 184.88273308 377.82969459 160 409 C158.89011719 410.39798828 158.89011719 410.39798828 157.7578125 411.82421875 C145.37073971 427.19018967 131.74989122 442.0248761 116 454 C115.47567383 454.40605469 114.95134766 454.81210937 114.41113281 455.23046875 C80.82894888 481.16175513 41.84264478 498.79500983 0 506 C-0.8859082 506.16081055 -1.77181641 506.32162109 -2.68457031 506.48730469 C-37.95224998 512.67797593 -75.52625141 510.08495304 -110 501 C-110.83837402 500.77973145 -111.67674805 500.55946289 -112.54052734 500.33251953 C-146.3838006 491.23940982 -179.34952494 474.8999943 -206 452 C-207.05640416 451.1252292 -208.11377284 450.25162243 -209.171875 449.37890625 C-221.96432887 438.73415643 -233.8146665 427.18772658 -244 414 C-245.16015625 412.56527344 -245.16015625 412.56527344 -246.34375 411.1015625 C-288.52250773 358.11116117 -306.12938498 289.67946821 -299.17602539 222.75537109 C-298.59371006 218.14143137 -297.84023331 213.57329393 -297 209 C-296.76651855 207.64841797 -296.76651855 207.64841797 -296.52832031 206.26953125 C-289.09731096 164.20497534 -270.67519229 125.19694142 -244 92 C-242.79150391 90.48212891 -242.79150391 90.48212891 -241.55859375 88.93359375 C-230.54692708 75.37650598 -217.97775782 62.49831596 -204 52 C-203.48002441 51.5982959 -202.96004883 51.1965918 -202.42431641 50.78271484 C-168.84007166 24.84318958 -129.84935692 7.20614595 -88 0 C-87.1140918 -0.16081055 -86.22818359 -0.32162109 -85.31542969 -0.48730469 C-57.72877842 -5.32969552 -27.53844396 -4.84303407 0 0 Z " fill="#7DD15E" transform="translate(300,3)"/>
<path d="M0 0 C-1.97772339 6.11923489 -4.15256377 12.12764098 -6.51171875 18.109375 C-6.84132599 18.95102707 -7.17093323 19.79267914 -7.51052856 20.65983582 C-8.56732132 23.35742528 -9.62717876 26.0537957 -10.6875 28.75 C-12.13417485 32.43306043 -13.5794984 36.11664741 -15.0234375 39.80078125 C-15.37362442 40.69402603 -15.72381134 41.58727081 -16.08460999 42.50758362 C-18.00649088 47.42156177 -19.8939783 52.34499141 -21.7265625 57.29296875 C-22.27437378 58.76975098 -22.27437378 58.76975098 -22.83325195 60.27636719 C-23.46529576 61.99396317 -24.08942628 63.71450159 -24.70385742 65.43847656 C-26.67249229 70.78166152 -26.67249229 70.78166152 -30 73 C-32.25599687 73.57298599 -34.53256523 74.06628657 -36.81640625 74.515625 C-37.49696075 74.65198868 -38.17751526 74.78835236 -38.87869263 74.92884827 C-40.34350317 75.22201967 -41.80887972 75.51237434 -43.27474976 75.80020142 C-47.13157388 76.55849836 -50.9837212 77.33977755 -54.8359375 78.12109375 C-55.99832191 78.35635017 -55.99832191 78.35635017 -57.18418884 78.59635925 C-64.37753865 80.06024106 -71.53648135 81.65323409 -78.6875 83.3125 C-79.73558838 83.55452148 -80.78367676 83.79654297 -81.86352539 84.04589844 C-86.96497211 85.23891426 -91.95330989 86.55808854 -97 88 C-97.33 98.56 -97.66 109.12 -98 120 C-94.04 120.66 -90.08 121.32 -86 122 C-83.28182355 122.54372896 -80.5676546 123.10816375 -77.859375 123.69921875 C-77.14236923 123.85486298 -76.42536346 124.0105072 -75.68663025 124.17086792 C-73.37380649 124.6736415 -71.06190218 125.18050731 -68.75 125.6875 C-67.10918435 126.04508604 -65.46831425 126.4024223 -63.82739258 126.75952148 C-59.67236026 127.66449594 -55.51808952 128.57291171 -51.36407471 129.48254395 C-48.44687172 130.12107044 -45.52931537 130.75797025 -42.61170959 131.39465332 C-39.953239 131.97488025 -37.29493951 132.55588926 -34.6366272 133.13684082 C-32.6917254 133.56157724 -30.74661969 133.9853795 -28.80151367 134.40917969 C-22.67363379 135.74689937 -16.54955842 137.0971716 -10.43345642 138.48762512 C-7.51383175 139.15044637 -4.59264079 139.80620631 -1.67129517 140.46139526 C-0.28717343 140.77388977 1.09618265 141.08979913 2.47866821 141.40945435 C4.39914539 141.85331939 6.32258704 142.28429678 8.24609375 142.71484375 C9.33591553 142.96355225 10.4257373 143.21226074 11.54858398 143.46850586 C19.82341973 144.7427732 27.21382447 143.60554801 35.34765625 141.87109375 C36.43055435 141.64715439 37.51345245 141.42321503 38.62916565 141.19248962 C42.08858095 140.47287508 45.54458101 139.73855037 49 139 C50.11977234 138.76178528 51.23954468 138.52357056 52.39324951 138.27813721 C59.25235085 136.81543338 66.10567971 135.3273337 72.95629883 133.82543945 C76.43184286 133.06373982 79.9082414 132.30603999 83.38476562 131.54882812 C85.69278586 131.04462559 88.00072897 130.54006985 90.30859375 130.03515625 C91.43566742 129.7889151 92.56274109 129.54267395 93.72396851 129.28897095 C99.57201425 128.00311824 105.40698432 126.67573832 111.23095703 125.28466797 C112.40425064 125.00618515 113.57754425 124.72770233 114.78639221 124.44078064 C117.01106705 123.9101064 119.23398299 123.37198026 121.45469666 122.82496643 C122.45972733 122.58551804 123.464758 122.34606964 124.50024414 122.09936523 C125.80814659 121.78019386 125.80814659 121.78019386 127.14247131 121.45457458 C130 121 130 121 138 121 C137.67 110.11 137.34 99.22 137 88 C132.14632222 86.61323492 127.37967418 85.35121268 122.46875 84.23046875 C121.76332062 84.06912949 121.05789124 83.90779022 120.33108521 83.74156189 C118.05449404 83.22160241 115.77725839 82.70452862 113.5 82.1875 C111.92755378 81.82869143 110.35512551 81.46980419 108.78271484 81.11083984 C98.81989566 78.84139617 88.84711203 76.62327149 78.84179688 74.54760742 C77.57819336 74.28040894 77.57819336 74.28040894 76.2890625 74.0078125 C75.57443848 73.85973145 74.85981445 73.71165039 74.12353516 73.55908203 C73.42276855 73.37458496 72.72200195 73.19008789 72 73 C70.73337524 72.71116943 70.73337524 72.71116943 69.44116211 72.41650391 C65.79868895 70.30292962 64.99301882 67.12122019 63.65234375 63.328125 C63.3586087 62.54565903 63.06487366 61.76319305 62.76223755 60.95701599 C61.80378593 58.39393247 60.87089089 55.82230314 59.9375 53.25 C58.95076915 50.59272659 57.95770628 47.93787234 56.96452332 45.28300476 C56.29338566 43.48720567 55.62446314 41.69057723 54.9577179 39.8931427 C51.56972891 30.77382598 47.94357085 21.75599407 44.27194214 12.7479248 C43.54458839 10.96190943 42.82101466 9.17435602 42.09765625 7.38671875 C41.69039307 6.38858154 41.28312988 5.39044434 40.86352539 4.36206055 C40 2 40 2 40 0 C79.55123388 4.63983723 114.24220189 21.48167932 143 49 C143.93972656 49.886875 144.87945312 50.77375 145.84765625 51.6875 C162.017425 67.33419607 173.67252031 86.64205208 183 107 C183.45890625 107.99257812 183.9178125 108.98515625 184.390625 110.0078125 C199.3364475 145.48049248 200.53900671 188.49206034 189 225 C188.75765625 225.76812012 188.5153125 226.53624023 188.265625 227.32763672 C173.58000791 273.04921787 142.64531862 309.93406477 99.99291992 332.23876953 C82.20736017 341.26336692 60.17317826 350.2832528 40 350 C42.77032737 339.43041767 47.08667025 329.39303169 51.14361572 319.27108765 C52.16473803 316.72290373 53.18446338 314.17416857 54.203125 311.625 C54.70167496 310.37859489 54.70167496 310.37859489 55.21029663 309.10700989 C57.13388998 304.26936897 58.95326842 299.4141831 60.671875 294.5 C61.05327637 293.43418701 61.43467773 292.36837402 61.82763672 291.27026367 C62.50370337 289.36104515 63.15325657 287.44213227 63.77001953 285.51293945 C65.88741389 279.63640294 65.88741389 279.63640294 69.06323242 277.81982422 C71.36747918 277.02641355 73.61079211 276.47101073 76 276 C77.45599609 275.58234375 77.45599609 275.58234375 78.94140625 275.15625 C85.14354698 273.60340404 91.36259752 272.33911548 97.65234375 271.19311523 C102.81119829 270.24468903 107.94019358 269.19162246 113.0625 268.0625 C113.73297363 267.9169165 114.40344727 267.77133301 115.09423828 267.62133789 C122.46859723 265.97513557 129.67951989 263.95212803 137 262 C137 225.04 137 188.08 137 150 C115.49048588 154.52831876 94.0878962 159.09315083 72.6875 164.04296875 C62.13908107 166.46475861 51.53446174 168.61746536 40.92285156 170.74243164 C40.24109863 170.87985275 39.5593457 171.01727386 38.85693359 171.15885925 C37.02525535 171.5275857 35.19283141 171.89260243 33.36035156 172.25732422 C29.96331563 172.94230289 29.96331563 172.94230289 26.63183594 174.15283203 C19.53229316 175.80888295 12.4801131 173.80827176 5.48828125 172.21484375 C4.6944252 172.03827744 3.90056915 171.86171112 3.08265686 171.67979431 C1.37869616 171.30046132 -0.32481061 170.9190844 -2.02789307 170.53582764 C-6.61140482 169.50468212 -11.19836949 168.48911704 -15.78515625 167.47265625 C-17.19127167 167.16056213 -17.19127167 167.16056213 -18.62579346 166.84216309 C-27.15942887 164.95315704 -35.70977511 163.14925311 -44.2661438 161.36651611 C-57.11486794 158.68922067 -69.9454326 155.94408596 -82.75 153.0625 C-83.41928528 152.91270691 -84.08857056 152.76291382 -84.77813721 152.60858154 C-86.6392338 152.19131222 -88.49933409 151.76960649 -90.359375 151.34765625 C-91.40577148 151.11054932 -92.45216797 150.87344238 -93.53027344 150.62915039 C-96 150 -96 150 -98 149 C-97.67 186.29 -97.34 223.58 -97 262 C-87.31881527 264.42029618 -77.78506676 266.72067898 -68.01953125 268.62890625 C-64.48629326 269.35481759 -60.95486003 270.08907182 -57.42358398 270.82446289 C-54.99969692 271.31985946 -52.57246799 271.79915614 -50.14233398 272.26293945 C-46.59079237 272.94507718 -43.05634384 273.68706526 -39.51953125 274.44140625 C-38.43622025 274.63456924 -37.35290924 274.82773224 -36.23677063 275.02674866 C-28.98550887 276.65443524 -28.98550887 276.65443524 -26.33592224 280.27204895 C-25.00073812 283.13778933 -23.97870381 285.99475556 -23 289 C-22.25953948 290.8662954 -21.51011294 292.72905872 -20.75170898 294.58813477 C-19.9965789 296.5379665 -19.24481965 298.48910638 -18.49609375 300.44140625 C-18.09093033 301.48973129 -17.68576691 302.53805634 -17.26832581 303.6181488 C-15.98832583 306.93176217 -14.71274578 310.24705445 -13.4375 313.5625 C-12.15775 316.88114914 -10.87707839 320.19944078 -9.59596252 323.51756287 C-8.80357358 325.57077744 -8.01211858 327.6243528 -7.2217865 329.67835999 C-5.11410597 335.14951126 -2.96074783 340.59600335 -0.72132874 346.01475525 C0 348 0 348 0 350 C-32.35991451 349.18358014 -67.86989048 331.94857111 -92 311 C-92.7940625 310.31550781 -93.588125 309.63101562 -94.40625 308.92578125 C-125.8746149 281.1917951 -145.68688987 246.10832958 -154 205 C-154.226875 203.91203125 -154.45375 202.8240625 -154.6875 201.703125 C-161.28610645 164.12772719 -152.87796256 124.23117469 -135 91 C-134.67773438 90.39027344 -134.35546875 89.78054687 -134.0234375 89.15234375 C-127.05467447 76.03633854 -118.21615623 64.75384866 -108 54 C-107.50016602 53.46761719 -107.00033203 52.93523437 -106.48535156 52.38671875 C-80.6605266 25.0337063 -38.81061888 0 0 0 Z " fill="#FBFAFB" transform="translate(236,81)"/>
<path d="M0 0 C3.36693055 0.6353987 6.73342714 1.2730688 10.09985352 1.91113281 C11.04781044 2.09000031 11.99576736 2.2688678 12.97245026 2.45315552 C19.67015685 3.72419601 26.31085766 5.14803773 32.9375 6.75 C44.64961577 9.51810591 56.41099411 12.00732924 68.19564819 14.44296265 C76.74435136 16.21108144 85.27098527 18.02188139 93.75 20.1015625 C94.77833954 20.35175896 94.77833954 20.35175896 95.82745361 20.60700989 C99.01973442 21.38549024 102.20501475 22.18053129 105.38574219 23.00561523 C117.5351021 26.00469499 127.27821207 23.66601593 139.3125 20.9375 C141.43899892 20.462293 143.56595303 19.98915828 145.69291687 19.51603699 C147.17948836 19.18518559 148.66590611 18.8536427 150.1521759 18.5214386 C155.46086506 17.33608701 160.77514956 16.17907009 166.09375 15.0390625 C166.85103897 14.87667084 167.60832794 14.71427917 168.38856506 14.54696655 C169.92579344 14.21740988 171.46302999 13.88789134 173.00027466 13.55841064 C187.97208606 10.34735655 202.90964857 7.00474901 217.8215332 3.52563477 C218.87164833 3.28230408 218.87164833 3.28230408 219.94297791 3.03405762 C221.82235239 2.59852261 223.70100114 2.1598592 225.57958984 1.72094727 C229.04213751 0.99111834 232.49588461 0.48510536 236 0 C236.07001853 14.6987921 236.12295297 29.39756218 236.15543652 44.09648705 C236.17091874 50.92115217 236.19203393 57.7457138 236.22631836 64.5703125 C236.25936394 71.15143229 236.27683321 77.7324725 236.28463173 84.31367874 C236.29019214 86.82960329 236.30104959 89.34552168 236.31719017 91.8614006 C236.33883939 95.37436604 236.34197214 98.88688138 236.34057617 102.39990234 C236.351362 103.44934525 236.36214783 104.49878815 236.3732605 105.58003235 C236.36913651 106.53358109 236.36501251 107.48712982 236.36076355 108.46957397 C236.36352893 109.30103125 236.36629431 110.13248852 236.36914349 110.98914146 C236.24732614 111.65272478 236.12550879 112.3163081 236 113 C232.51841337 115.32105775 229.20190914 116.04648945 225.1875 116.9375 C224.04244995 117.19853516 224.04244995 117.19853516 222.87426758 117.46484375 C220.58444195 117.98403314 218.29269076 118.49362947 216 119 C214.8346875 119.25910156 213.669375 119.51820313 212.46875 119.78515625 C207.40476467 120.88838162 202.33252301 121.9393225 197.24609375 122.93359375 C196.39958252 123.09988281 195.55307129 123.26617187 194.6809082 123.4375 C193.05651699 123.75527182 191.43142243 124.06948487 189.80541992 124.37890625 C188.1744372 124.69744306 186.5498951 125.05017202 184.93212891 125.43017578 C182 126 182 126 178.14208984 126.23779297 C173.67616055 126.66484128 169.72024173 127.36589594 166 130 C161.01635772 136.35447547 158.91241949 144.70621628 156.375 152.25 C155.56097384 154.51175663 154.73995527 156.7710075 153.91235352 159.02783203 C152.16058413 163.81937928 150.43872038 168.62027687 148.73388672 173.42871094 C144.56014002 185.10154526 139.97299388 196.61449369 135.41168213 208.14001465 C133.95187529 211.83229808 132.5100408 215.53147468 131.06982422 219.23144531 C130.18080871 221.50591592 129.29165566 223.78033277 128.40234375 226.0546875 C127.79900963 227.61070175 127.79900963 227.61070175 127.18348694 229.19815063 C126.80703537 230.15611542 126.4305838 231.1140802 126.04272461 232.10107422 C125.7188829 232.9309787 125.3950412 233.76088318 125.06138611 234.61593628 C123.88683625 237.2541861 122.65550571 239.63016119 121 242 C118 242.625 118 242.625 115 242 C112.82133165 238.88125943 111.33591619 235.63409718 109.95727539 232.10107422 C109.58068283 231.14307922 109.20409027 230.18508423 108.81608582 229.19805908 C108.41400406 228.16074646 108.0119223 227.12343384 107.59765625 226.0546875 C106.7108996 223.78071303 105.82401222 221.50678953 104.93701172 219.23291016 C104.47035095 218.03337708 104.00369019 216.83384399 103.52288818 215.59796143 C102.29749603 212.47407438 101.05476065 209.3586969 99.79814911 206.24734306 C94.47316097 193.05858174 89.56238492 179.98860261 85.64453125 166.296875 C80.0033532 143.60048024 80.0033532 143.60048024 65.20166016 126.9296875 C54.43973034 122.20263647 42.68474568 121.12841294 31.07226562 120.38769531 C24.51129941 119.95504701 18.32014677 118.56311885 11.9375 117 C10.21787824 116.64374982 8.49787712 116.28932114 6.77734375 115.9375 C3 115 3 115 0 113 C-0.36914349 110.98914146 -0.36914349 110.98914146 -0.36076355 108.46957397 C-0.36488754 107.51602524 -0.36901154 106.5624765 -0.3732605 105.58003235 C-0.36247467 104.53058945 -0.35168884 103.48114655 -0.34057617 102.39990234 C-0.34101425 101.29745682 -0.34145233 100.19501129 -0.34190369 99.05915833 C-0.33980727 95.40124026 -0.31643555 91.74377587 -0.29296875 88.0859375 C-0.28737584 85.55531057 -0.28310431 83.0246804 -0.28010559 80.49404907 C-0.26980657 74.50518412 -0.24614272 68.51651505 -0.21605712 62.52772868 C-0.18255111 55.71042281 -0.1660367 48.89310921 -0.15097082 42.07574153 C-0.11959406 28.05040355 -0.06680989 14.02521073 0 0 Z " fill="#514A52" transform="translate(138,230)"/>
<path d="M0 0 C-1.97772339 6.11923489 -4.15256377 12.12764098 -6.51171875 18.109375 C-6.84132599 18.95102707 -7.17093323 19.79267914 -7.51052856 20.65983582 C-8.56732132 23.35742528 -9.62717876 26.0537957 -10.6875 28.75 C-12.13417485 32.43306043 -13.5794984 36.11664741 -15.0234375 39.80078125 C-15.37362442 40.69402603 -15.72381134 41.58727081 -16.08460999 42.50758362 C-18.00649088 47.42156177 -19.8939783 52.34499141 -21.7265625 57.29296875 C-22.27437378 58.76975098 -22.27437378 58.76975098 -22.83325195 60.27636719 C-23.46529576 61.99396317 -24.08942628 63.71450159 -24.70385742 65.43847656 C-26.67249229 70.78166152 -26.67249229 70.78166152 -30 73 C-32.25599687 73.57298599 -34.53256523 74.06628657 -36.81640625 74.515625 C-37.49696075 74.65198868 -38.17751526 74.78835236 -38.87869263 74.92884827 C-40.34350317 75.22201967 -41.80887972 75.51237434 -43.27474976 75.80020142 C-47.13157388 76.55849836 -50.9837212 77.33977755 -54.8359375 78.12109375 C-55.99832191 78.35635017 -55.99832191 78.35635017 -57.18418884 78.59635925 C-64.37753865 80.06024106 -71.53648135 81.65323409 -78.6875 83.3125 C-79.73558838 83.55452148 -80.78367676 83.79654297 -81.86352539 84.04589844 C-86.96497211 85.23891426 -91.95330989 86.55808854 -97 88 C-97 145.42 -97 202.84 -97 262 C-87.31881527 264.42029618 -77.78506676 266.72067898 -68.01953125 268.62890625 C-64.48629326 269.35481759 -60.95486003 270.08907182 -57.42358398 270.82446289 C-54.99969692 271.31985946 -52.57246799 271.79915614 -50.14233398 272.26293945 C-46.59079237 272.94507718 -43.05634384 273.68706526 -39.51953125 274.44140625 C-38.43622025 274.63456924 -37.35290924 274.82773224 -36.23677063 275.02674866 C-28.98550887 276.65443524 -28.98550887 276.65443524 -26.33592224 280.27204895 C-25.00073812 283.13778933 -23.97870381 285.99475556 -23 289 C-22.25953948 290.8662954 -21.51011294 292.72905872 -20.75170898 294.58813477 C-19.9965789 296.5379665 -19.24481965 298.48910638 -18.49609375 300.44140625 C-18.09093033 301.48973129 -17.68576691 302.53805634 -17.26832581 303.6181488 C-15.98832583 306.93176217 -14.71274578 310.24705445 -13.4375 313.5625 C-12.15775 316.88114914 -10.87707839 320.19944078 -9.59596252 323.51756287 C-8.80357358 325.57077744 -8.01211858 327.6243528 -7.2217865 329.67835999 C-5.11410597 335.14951126 -2.96074783 340.59600335 -0.72132874 346.01475525 C0 348 0 348 0 350 C-32.35991451 349.18358014 -67.86989048 331.94857111 -92 311 C-92.7940625 310.31550781 -93.588125 309.63101562 -94.40625 308.92578125 C-125.8746149 281.1917951 -145.68688987 246.10832958 -154 205 C-154.226875 203.91203125 -154.45375 202.8240625 -154.6875 201.703125 C-161.28610645 164.12772719 -152.87796256 124.23117469 -135 91 C-134.67773438 90.39027344 -134.35546875 89.78054687 -134.0234375 89.15234375 C-127.05467447 76.03633854 -118.21615623 64.75384866 -108 54 C-107.50016602 53.46761719 -107.00033203 52.93523437 -106.48535156 52.38671875 C-80.6605266 25.0337063 -38.81061888 0 0 0 Z " fill="#FBFAFB" transform="translate(236,81)"/>
<path d="M0 0 C1.010625 0.144375 2.02125 0.28875 3.0625 0.4375 C5.27108326 3.57586058 6.76527245 6.88251226 8.18457031 10.43505859 C8.57690353 11.41130188 8.96923676 12.38754517 9.37345886 13.39337158 C10.0007061 14.97369171 10.0007061 14.97369171 10.640625 16.5859375 C11.08445023 17.69491394 11.52827545 18.80389038 11.98554993 19.94647217 C13.43253131 23.56663957 14.87280044 27.18943117 16.3125 30.8125 C16.80815093 32.05620714 17.30399087 33.29983897 17.80001831 34.543396 C25.07762295 52.79011656 32.25686408 71.07376021 39.24917603 89.43196106 C39.78339598 90.82979239 40.32162335 92.22610048 40.86434937 93.62065125 C42.10054472 96.81191136 43.2559532 99.99289173 44.25341797 103.26733398 C45.9732189 109.25080085 45.9732189 109.25080085 49.91625977 113.78417969 C52.32084262 114.60804541 54.53709303 114.96222381 57.0625 115.25 C59.0149049 115.58253842 60.96668172 115.91877618 62.91796875 116.2578125 C64.57771729 116.51933105 64.57771729 116.51933105 66.27099609 116.78613281 C73.19347989 117.97539146 80.03447713 119.55895042 86.89086914 121.07748413 C90.11730795 121.78860869 93.34702359 122.48394604 96.57736206 123.17710876 C98.78998043 123.65222872 101.00170808 124.13133178 103.21337891 124.61083984 C105.50465521 125.10292798 107.79797333 125.58587354 110.09521484 126.04931641 C115.85413008 127.22913008 115.85413008 127.22913008 118.0625 129.4375 C118.23745606 131.94670846 118.29419569 134.34374941 118.2578125 136.8515625 C118.2549826 137.58120209 118.25215271 138.31084167 118.24923706 139.06259155 C118.23803002 141.39606028 118.2129251 143.72914703 118.1875 146.0625 C118.17747085 147.64322363 118.16834489 149.22395327 118.16015625 150.8046875 C118.13808905 154.68243914 118.10355615 158.55990478 118.0625 162.4375 C117.51352051 162.52894287 116.96454102 162.62038574 116.39892578 162.71459961 C106.17984327 164.49247802 96.06788456 166.78254345 85.9375 169 C83.90026408 169.44425789 81.86299139 169.88834722 79.82568359 170.33227539 C69.70885865 172.53843798 59.59522776 174.7588224 49.484375 176.9921875 C47.64599966 177.39772126 45.80762082 177.80323913 43.96923828 178.20874023 C40.55025129 178.96298017 37.13206678 179.72071589 33.71435547 180.48071289 C13.95031035 184.86074176 -1.45308785 187.52875679 -21.4375 183 C-23.06839916 182.63783177 -24.69950777 182.27660562 -26.33081055 181.91625977 C-29.77156759 181.15490103 -33.21113503 180.38845864 -36.64990234 179.61816406 C-41.8845165 178.44696944 -47.1232208 177.29498889 -52.36328125 176.1484375 C-53.22250183 175.96041061 -54.08172241 175.77238373 -54.96697998 175.57865906 C-56.69874633 175.1997069 -58.43051716 174.82077517 -60.16229248 174.44186401 C-64.44088336 173.50459457 -68.71841882 172.56253291 -72.99609375 171.62109375 C-79.5073815 170.18858991 -86.02038367 168.76422516 -92.53515625 167.34765625 C-94.03605461 167.02092932 -95.53694988 166.69418816 -97.0378418 166.36743164 C-99.15267504 165.90706039 -101.26761496 165.44721798 -103.38296509 164.98922729 C-105.28426457 164.57757464 -107.1851137 164.16384358 -109.0859375 163.75 C-110.14989746 163.51925781 -111.21385742 163.28851563 -112.31005859 163.05078125 C-114.9375 162.4375 -114.9375 162.4375 -117.9375 161.4375 C-117.986877 156.91684572 -118.02320823 152.39634783 -118.04736328 147.87548828 C-118.05743118 146.33704902 -118.07108646 144.79862893 -118.08837891 143.26025391 C-118.11259317 141.05105867 -118.12397491 138.84211605 -118.1328125 136.6328125 C-118.14313507 135.94317413 -118.15345764 135.25353577 -118.16409302 134.54299927 C-118.16449478 132.83949094 -118.05941026 131.13664057 -117.9375 129.4375 C-115.44937357 126.94937357 -113.95584475 126.84916528 -110.5234375 126.17578125 C-109.38471191 125.94729492 -108.24598633 125.71880859 -107.07275391 125.48339844 C-105.83187012 125.24137695 -104.59098633 124.99935547 -103.3125 124.75 C-100.68194527 124.22169609 -98.05173992 123.6918629 -95.421875 123.16015625 C-94.39442673 122.95348831 -94.39442673 122.95348831 -93.34622192 122.74264526 C-86.10412325 121.28127843 -78.88313176 119.72611192 -71.66583252 118.14730835 C-70.27378208 117.84299298 -68.88149146 117.53977409 -67.48895264 117.23770142 C-65.52597229 116.8118855 -63.56375348 116.38256366 -61.6015625 115.953125 C-60.48217285 115.70852539 -59.3627832 115.46392578 -58.20947266 115.21191406 C-57.12972168 114.95635742 -56.0499707 114.70080078 -54.9375 114.4375 C-53.71595215 114.22867188 -52.4944043 114.01984375 -51.23583984 113.8046875 C-47.66878174 112.70815985 -47.66878174 112.70815985 -46.00390625 109.23339844 C-45.47470861 107.84822852 -44.97528563 106.45145658 -44.5 105.046875 C-44.21788666 104.28768768 -43.93577332 103.52850037 -43.64511108 102.74630737 C-42.71763895 100.23507277 -41.82840336 97.71191342 -40.9375 95.1875 C-40.29039798 93.41991371 -39.64011968 91.65348729 -38.98681641 89.88818359 C-37.63206754 86.22464609 -36.28818435 82.5573836 -34.95019531 78.88769531 C-31.89240516 70.55192393 -28.59855217 62.31023292 -25.3125 54.0625 C-24.07538811 50.94588059 -22.84037471 47.82843151 -21.60546875 44.7109375 C-21.30322891 43.94879944 -21.00098907 43.18666138 -20.68959045 42.40142822 C-18.49865992 36.87156269 -16.3330763 31.33212407 -14.17578125 25.7890625 C-13.27897166 23.49050156 -12.38176761 21.192095 -11.48443604 18.89373779 C-10.9161344 17.4348642 -10.34965589 15.97527897 -9.78509521 14.51495361 C-9.01111875 12.51333041 -8.23086798 10.5142618 -7.44921875 8.515625 C-7.01053467 7.38543945 -6.57185059 6.25525391 -6.11987305 5.09082031 C-4.55053898 1.56913485 -3.87168899 0.57663453 0 0 Z " fill="#675E66" transform="translate(255.9375,39.5625)"/>
<path d="M0 0 C13.50060852 2.25010142 13.50060852 2.25010142 20.140625 3.69921875 C20.85763077 3.85486298 21.57463654 4.0105072 22.31336975 4.17086792 C24.62619351 4.6736415 26.93809782 5.18050731 29.25 5.6875 C30.89081565 6.04508604 32.53168575 6.4024223 34.17260742 6.75952148 C38.32763974 7.66449594 42.48191048 8.57291171 46.63592529 9.48254395 C49.55312828 10.12107044 52.47068463 10.75797025 55.38829041 11.39465332 C58.046761 11.97488025 60.70506049 12.55588926 63.3633728 13.13684082 C65.3082746 13.56157724 67.25338031 13.9853795 69.19848633 14.40917969 C75.32636621 15.74689937 81.45044158 17.0971716 87.56654358 18.48762512 C90.48616825 19.15044637 93.40735921 19.80620631 96.32870483 20.46139526 C97.71282657 20.77388977 99.09618265 21.08979913 100.47866821 21.40945435 C102.39914539 21.85331939 104.32258704 22.28429678 106.24609375 22.71484375 C107.33591553 22.96355225 108.4257373 23.21226074 109.54858398 23.46850586 C117.82341973 24.7427732 125.21382447 23.60554801 133.34765625 21.87109375 C134.43055435 21.64715439 135.51345245 21.42321503 136.62916565 21.19248962 C140.08858095 20.47287508 143.54458101 19.73855037 147 19 C148.11977234 18.76178528 149.23954468 18.52357056 150.39324951 18.27813721 C157.25235085 16.81543338 164.10567971 15.3273337 170.95629883 13.82543945 C174.43184286 13.06373982 177.9082414 12.30603999 181.38476562 11.54882812 C183.69278586 11.04462559 186.00072897 10.54006985 188.30859375 10.03515625 C189.99920425 9.66579453 189.99920425 9.66579453 191.72396851 9.28897095 C197.57201425 8.00311824 203.40698432 6.67573832 209.23095703 5.28466797 C210.40425064 5.00618515 211.57754425 4.72770233 212.78639221 4.44078064 C215.01106705 3.9101064 217.23398299 3.37198026 219.45469666 2.82496643 C220.45972733 2.58551804 221.464758 2.34606964 222.50024414 2.09936523 C223.37217911 1.88658432 224.24411407 1.67380341 225.14247131 1.45457458 C228 1 228 1 236 1 C236 10.24 236 19.48 236 29 C229.97345059 30.72187126 223.97770107 32.22374414 217.875 33.625 C216.75319336 33.88297363 215.63138672 34.14094727 214.47558594 34.40673828 C194.84126946 38.89072729 175.1418859 43.09233524 155.4296875 47.21875 C154.5629541 47.40035675 153.6962207 47.5819635 152.80322266 47.76907349 C148.61865215 48.64543183 144.43346759 49.51864004 140.24707031 50.38623047 C138.72980439 50.70273562 137.21255112 51.01930147 135.6953125 51.3359375 C135.01773895 51.47519653 134.34016541 51.61445557 133.64205933 51.75793457 C130.53675575 52.40825891 127.58798141 53.14059597 124.58154297 54.16650391 C117.5085516 55.8125293 110.45272884 53.80203093 103.48828125 52.21484375 C102.6944252 52.03827744 101.90056915 51.86171112 101.08265686 51.67979431 C99.37869616 51.30046132 97.67518939 50.9190844 95.97210693 50.53582764 C91.38859518 49.50468212 86.80163051 48.48911704 82.21484375 47.47265625 C80.80872833 47.16056213 80.80872833 47.16056213 79.37420654 46.84216309 C70.84057113 44.95315704 62.29022489 43.14925311 53.7338562 41.36651611 C40.88513206 38.68922067 28.0545674 35.94408596 15.25 33.0625 C14.58071472 32.91270691 13.91142944 32.76291382 13.22186279 32.60858154 C11.3607662 32.19131222 9.50066591 31.76960649 7.640625 31.34765625 C6.07103027 30.99199585 6.07103027 30.99199585 4.46972656 30.62915039 C2 30 2 30 0 29 C0 19.43 0 9.86 0 0 Z " fill="#F8C500" transform="translate(138,201)"/>
<path d="M0 0 C2.475 0.99 2.475 0.99 5 2 C7.25673966 2.53816027 9.52556744 3.02671497 11.80078125 3.48046875 C12.790177 3.68036911 12.790177 3.68036911 13.79956055 3.88430786 C15.22346003 4.17175115 16.64776178 4.45720746 18.07241821 4.74087524 C21.93600227 5.51119189 25.79598625 6.29917946 29.65625 7.0859375 C30.44630936 7.24667252 31.23636871 7.40740753 32.05036926 7.57301331 C39.48516153 9.08977301 46.90094218 10.68571325 54.3125 12.3125 C55.57312256 12.58731201 56.83374512 12.86212402 58.13256836 13.14526367 C65.30270778 14.71409429 72.46006131 16.33193061 79.60960388 17.99223328 C83.68591948 18.93694609 87.76490137 19.86985603 91.84408569 20.80209351 C93.84560816 21.26296946 95.84583421 21.72951671 97.84463501 22.20205688 C100.66157336 22.86767944 103.48240822 23.51370823 106.3046875 24.15625 C107.1357753 24.35792282 107.9668631 24.55959564 108.82313538 24.76737976 C118.35668341 26.89305007 127.29997931 24.89338028 136.69458008 22.80688477 C137.71213379 22.5856192 138.7296875 22.36435364 139.77807617 22.13638306 C143.10981443 21.41032824 146.43969147 20.67611456 149.76953125 19.94140625 C152.09730529 19.43158931 154.42516207 18.92215002 156.75309753 18.41307068 C161.61639046 17.34824236 166.4787947 16.27947126 171.34057617 15.20776367 C177.57107379 13.83458607 183.80348958 12.4703569 190.03656483 11.10893345 C194.83705827 10.0595553 199.63661528 9.00594646 204.43588829 7.95100212 C206.7341362 7.44625513 209.03264915 6.94271335 211.33143044 6.44040108 C214.53936531 5.73866287 217.74602183 5.03135553 220.95239258 4.32250977 C221.90053329 4.11620438 222.84867401 3.90989899 223.82554626 3.69734192 C224.70145416 3.50251221 225.57736206 3.3076825 226.47981262 3.10694885 C227.23652158 2.94048135 227.99323053 2.77401384 228.77287006 2.60250187 C231.24450093 1.93385556 233.62265596 0.95093761 236 0 C236 8.91 236 17.82 236 27 C232.37 27.66 228.74 28.32 225 29 C221.76349858 29.67283695 218.5331522 30.35768694 215.3046875 31.06640625 C214.40997742 31.26124603 213.51526733 31.45608582 212.59344482 31.65682983 C209.6869066 32.29028046 206.78096147 32.92640931 203.875 33.5625 C201.83776408 34.00675789 199.80049139 34.45084722 197.76318359 34.89477539 C187.64635865 37.10093798 177.53272776 39.3213224 167.421875 41.5546875 C165.58349966 41.96022126 163.74512082 42.36573913 161.90673828 42.77124023 C158.48775129 43.52548017 155.06956678 44.28321589 151.65185547 45.04321289 C131.88781035 49.42324176 116.48441215 52.09125679 96.5 47.5625 C94.86910084 47.20033177 93.23799223 46.83910562 91.60668945 46.47875977 C88.16593241 45.71740103 84.72636497 44.95095864 81.28759766 44.18066406 C76.0529835 43.00946944 70.8142792 41.85748889 65.57421875 40.7109375 C64.71499817 40.52291061 63.85577759 40.33488373 62.97052002 40.14115906 C61.23875367 39.7622069 59.50698284 39.38327517 57.77520752 39.00436401 C53.49661664 38.06709457 49.21908118 37.12503291 44.94140625 36.18359375 C38.4301185 34.75108991 31.91711633 33.32672516 25.40234375 31.91015625 C23.90144539 31.58342932 22.40055012 31.25668816 20.8996582 30.92993164 C18.78482496 30.46956039 16.66988504 30.00971798 14.55453491 29.55172729 C12.65323543 29.14007464 10.7523863 28.72634358 8.8515625 28.3125 C7.78760254 28.08175781 6.72364258 27.85101563 5.62744141 27.61328125 C3 27 3 27 0 26 C0 17.42 0 8.84 0 0 Z " fill="#524A51" transform="translate(138,175)"/>
<path d="M0 0 C1.5159375 0.2165625 1.5159375 0.2165625 3.0625 0.4375 C5.27108326 3.57586058 6.76527245 6.88251226 8.18457031 10.43505859 C8.5768985 11.41128677 8.96922668 12.38751495 9.3734436 13.39332581 C9.79161346 14.44688766 10.20978333 15.50044952 10.640625 16.5859375 C11.08449554 17.6950499 11.52836609 18.80416229 11.98568726 19.94688416 C13.432596 23.56692467 14.87280946 27.18958338 16.3125 30.8125 C16.80780886 32.05520261 17.30331309 33.29782737 17.79901123 34.54037476 C25.66915446 54.26962897 33.40249592 74.04984904 40.94042969 93.90863037 C42.6831121 98.48848827 44.50497096 103.02972901 46.41162109 107.54370117 C47.0625 109.4375 47.0625 109.4375 47.0625 112.4375 C39.1373458 111.75059606 31.51231735 110.14545151 23.75 108.4375 C21.85797852 108.02757812 21.85797852 108.02757812 19.92773438 107.609375 C10.63071468 105.58849912 10.63071468 105.58849912 7.93017578 104.87084961 C-2.13680983 102.53504576 -12.83004451 106.13280424 -22.625 108.375 C-25.12436343 108.93817218 -27.62437136 109.49831351 -30.12495422 110.05604553 C-31.67071371 110.40175356 -33.21568678 110.7510048 -34.75968933 111.10447693 C-39.13967328 112.09491648 -43.48343162 112.86149559 -47.9375 113.4375 C-42.92329283 98.69264963 -37.22380808 84.23117122 -31.5 69.75 C-30.52096025 67.26814445 -29.54208754 64.78622378 -28.56347656 62.30419922 C-27.09172383 58.57191168 -25.61944756 54.83983349 -24.14584351 51.10827637 C-21.1587142 43.54296095 -18.18786542 35.97151284 -15.23046875 28.39453125 C-14.20318153 25.76864364 -13.17534849 23.14297066 -12.14718628 20.51742554 C-11.51061957 18.88905603 -10.87577446 17.26001239 -10.2427063 15.63027954 C-9.38007202 13.41049017 -8.5111545 11.19326497 -7.640625 8.9765625 C-7.16270508 7.75146973 -6.68478516 6.52637695 -6.19238281 5.26416016 C-4.58791033 1.65003907 -3.96964887 0.5912243 0 0 Z " fill="#FA2C3B" transform="translate(255.9375,39.5625)"/>
<path d="M0 0 C5.75687881 0.46394824 11.32078688 1.42004647 16.96484375 2.62890625 C17.6874942 2.78322113 18.41014465 2.93753601 19.1546936 3.0965271 C22.1759443 3.74520266 25.19595639 4.39904702 28.21362305 5.06420898 C42.15210811 8.12402327 52.63265997 8.44547804 66.625 5.125 C67.800625 4.85558594 68.97625 4.58617187 70.1875 4.30859375 C75.01219997 3.19728645 79.82438609 2.05422119 84.6171875 0.8125 C87.88318363 0.02805751 90.65676817 -0.16716159 94 0 C93.27476328 4.80880377 91.52214889 9.08984109 89.73828125 13.58203125 C89.23032013 14.87605865 89.23032013 14.87605865 88.71209717 16.19622803 C87.58293381 19.06992494 86.44782994 21.94123433 85.3125 24.8125 C84.51779889 26.82985934 83.72345394 28.84735901 82.92944336 30.86499023 C81.65971556 34.09085501 80.38947997 37.31651448 79.11756897 40.54151917 C75.98601767 48.48353029 72.87493258 56.43332375 69.77298927 64.38692665 C68.27418976 68.2284957 66.77270793 72.06901713 65.27117443 75.90951824 C64.04644043 79.04252482 62.82317284 82.1760875 61.60317993 85.3109436 C60.23055639 88.83526314 58.85225668 92.35731307 57.47265625 95.87890625 C57.0640033 96.93213074 56.65535034 97.98535522 56.23431396 99.07049561 C55.85156311 100.04440247 55.46881226 101.01830933 55.07446289 102.02172852 C54.57965172 103.28920677 54.57965172 103.28920677 54.07484436 104.58229065 C52.89631548 107.23322357 51.66411825 109.62009657 50 112 C47 112.625 47 112.625 44 112 C41.81016013 108.86745293 40.32452396 105.6035442 38.94140625 102.0534668 C38.56184784 101.08594482 38.18228943 100.11842285 37.79122925 99.12158203 C37.3857486 98.07470215 36.98026794 97.02782227 36.5625 95.94921875 C36.12938507 94.84215576 35.69627014 93.73509277 35.25003052 92.59448242 C34.07332853 89.58486743 32.90049185 86.57378193 31.72940826 83.56197739 C29.76220714 78.50654519 27.785292 73.45489411 25.81036758 68.40247536 C25.05089418 66.45904319 24.29202269 64.51537667 23.53317261 62.57170105 C20.16162111 53.94090933 16.75352713 45.32523874 13.3203125 36.71875 C12.87693542 35.60587112 12.43355835 34.49299225 11.97674561 33.34638977 C10.27616852 29.07852008 8.57552041 24.81071243 6.86523438 20.54672241 C5.69999403 17.64096818 4.5408282 14.73285806 3.3828125 11.82421875 C3.03703156 10.96747559 2.69125061 10.11073242 2.33499146 9.22802734 C2.02480072 8.44596924 1.71460999 7.66391113 1.39501953 6.8581543 C1.12384308 6.18100876 0.85266663 5.50386322 0.57327271 4.80619812 C0 3 0 3 0 0 Z " fill="#FA2B3A" transform="translate(209,360)"/>
<path d="M0 0 C5.69905566 -0.4589973 10.79495764 0.36204686 16.33203125 1.64453125 C17.09045822 1.81498459 17.84888519 1.98543793 18.6302948 2.16105652 C20.21863013 2.52075629 21.80597599 2.88485149 23.39233398 3.25317383 C25.82032893 3.81430935 28.25242953 4.35414348 30.68554688 4.89257812 C32.23466552 5.24612529 33.78350467 5.60089983 35.33203125 5.95703125 C36.41953423 6.19629082 36.41953423 6.19629082 37.52900696 6.44038391 C43.79339194 7.92542097 43.79339194 7.92542097 46 11 C46.36076355 13.79045105 46.36076355 13.79045105 46.34057617 17.21557617 C46.34023628 19.13722847 46.34023628 19.13722847 46.33988953 21.09770203 C46.32456957 22.49612781 46.30892158 23.89455004 46.29296875 25.29296875 C46.28737268 26.72357234 46.28310263 28.15418169 46.28010559 29.58479309 C46.26865756 33.34801132 46.23919115 37.11088156 46.20599365 40.8739624 C46.17529163 44.71475517 46.1616 48.55560423 46.14648438 52.39648438 C46.11432106 59.93114814 46.06312566 67.46552529 46 75 C38.93650481 73.86984451 31.92920161 72.63801151 24.953125 71.0546875 C23.78000763 70.7925798 23.78000763 70.7925798 22.58319092 70.525177 C20.13810076 69.97815619 17.69404317 69.4266776 15.25 68.875 C13.57037947 68.49839911 11.89069239 68.12209489 10.2109375 67.74609375 C6.13985077 66.83414284 2.0696819 65.91819885 -2 65 C-2.04632222 56.96803092 -2.08186855 48.93611757 -2.10362434 40.90404797 C-2.11406556 37.1745094 -2.12823083 33.44506217 -2.15087891 29.71557617 C-2.17259539 26.11701369 -2.18456608 22.5185391 -2.18975449 18.91991615 C-2.1934524 17.54637582 -2.20067345 16.17284034 -2.21146011 14.79933739 C-2.22595829 12.87693338 -2.22681678 10.95444109 -2.22705078 9.03198242 C-2.231492 7.93722092 -2.23593323 6.84245941 -2.24050903 5.71452332 C-2 3 -2 3 0 0 Z " fill="#6E696E" transform="translate(170,286)"/>
<path d="M0 0 C2.4375 0.8125 2.4375 0.8125 4.4375 2.8125 C4.66455078 5.51806641 4.66455078 5.51806641 4.6328125 8.9140625 C4.62314453 10.73164063 4.62314453 10.73164063 4.61328125 12.5859375 C4.59652344 13.85695313 4.57976562 15.12796875 4.5625 16.4375 C4.55347656 17.71625 4.54445313 18.995 4.53515625 20.3125 C4.51152303 23.47935167 4.47857629 26.64583424 4.4375 29.8125 C1.1375 29.8125 -2.1625 29.8125 -5.5625 29.8125 C-5.64940253 25.37512288 -5.70285926 20.93796366 -5.75 16.5 C-5.77513672 15.23736328 -5.80027344 13.97472656 -5.82617188 12.67382812 C-5.83583984 11.46533203 -5.84550781 10.25683594 -5.85546875 9.01171875 C-5.87903442 7.33855591 -5.87903442 7.33855591 -5.90307617 5.6315918 C-5.5625 2.8125 -5.5625 2.8125 -4.2043457 0.91333008 C-2.5625 -0.1875 -2.5625 -0.1875 0 0 Z " fill="#66A94D" transform="translate(256.5625,482.1875)"/>
<path d="M0 0 C1.12067871 0.01047363 2.24135742 0.02094727 3.39599609 0.03173828 C5.21357422 0.04140625 5.21357422 0.04140625 7.06787109 0.05126953 C8.33888672 0.06802734 9.60990234 0.08478516 10.91943359 0.10205078 C12.19818359 0.11107422 13.47693359 0.12009766 14.79443359 0.12939453 C17.96128526 0.15302775 21.12776783 0.18597449 24.29443359 0.22705078 C24.29443359 3.52705078 24.29443359 6.82705078 24.29443359 10.22705078 C19.85705647 10.31395332 15.41989725 10.36741004 10.98193359 10.41455078 C9.08797852 10.45225586 9.08797852 10.45225586 7.15576172 10.49072266 C5.34301758 10.50522461 5.34301758 10.50522461 3.49365234 10.52001953 C1.8204895 10.54358521 1.8204895 10.54358521 0.11352539 10.56762695 C-2.70556641 10.22705078 -2.70556641 10.22705078 -4.60473633 8.86889648 C-5.70556641 7.22705078 -5.70556641 7.22705078 -5.51806641 4.66455078 C-4.38521125 1.26598532 -3.62281856 0.30402646 0 0 Z " fill="#66A94D" transform="translate(487.70556640625,250.77294921875)"/>
<path d="M0 0 C4.43737712 -0.08690253 8.87453634 -0.14035926 13.3125 -0.1875 C14.57513672 -0.21263672 15.83777344 -0.23777344 17.13867188 -0.26367188 C18.34716797 -0.27333984 19.55566406 -0.28300781 20.80078125 -0.29296875 C21.91622314 -0.3086792 23.03166504 -0.32438965 24.1809082 -0.34057617 C27 0 27 0 28.89916992 1.3581543 C30 3 30 3 29.8125 5.5625 C29 8 29 8 27 10 C24.29443359 10.22705078 24.29443359 10.22705078 20.8984375 10.1953125 C19.08085938 10.18564453 19.08085938 10.18564453 17.2265625 10.17578125 C15.95554687 10.15902344 14.68453125 10.14226562 13.375 10.125 C12.09625 10.11597656 10.8175 10.10695313 9.5 10.09765625 C6.33314833 10.07402303 3.16666576 10.04107629 0 10 C0 6.7 0 3.4 0 0 Z " fill="#66A94D" transform="translate(0,251)"/>
<path d="M0 0 C3.3 0 6.6 0 10 0 C10.08690253 4.43737712 10.14035926 8.87453634 10.1875 13.3125 C10.21263672 14.57513672 10.23777344 15.83777344 10.26367188 17.13867188 C10.27817383 18.95141602 10.27817383 18.95141602 10.29296875 20.80078125 C10.31653442 22.47394409 10.31653442 22.47394409 10.34057617 24.1809082 C10 27 10 27 8.6418457 28.89916992 C7 30 7 30 4.4375 29.8125 C2 29 2 29 0 27 C-0.22705078 24.29443359 -0.22705078 24.29443359 -0.1953125 20.8984375 C-0.18886719 19.68671875 -0.18242187 18.475 -0.17578125 17.2265625 C-0.15902344 15.95554687 -0.14226562 14.68453125 -0.125 13.375 C-0.11146484 11.456875 -0.11146484 11.456875 -0.09765625 9.5 C-0.07402303 6.33314833 -0.04107629 3.16666576 0 0 Z " fill="#66A94D" transform="translate(251,0)"/>
</svg>
