<?xml version="1.0" encoding="UTF-8"?>
<svg version="1.1" xmlns="http://www.w3.org/2000/svg" width="512" height="512">
<path d="M0 0 C9.13576826 1.86410013 15.44235646 12.74476567 20.68713379 19.87692261 C37.16206622 42.17746665 57.7134077 68.9713877 86.6338501 73.48266602 C111.21673287 76.62228375 136.70184925 75.01507036 161.29907227 72.64797974 C162.24718403 72.55976959 163.19529579 72.47155945 164.17213821 72.38067627 C165.93017439 72.21169149 167.68684001 72.02742709 169.44129562 71.82461548 C173.121027 71.46569467 175.32581424 71.36249049 178.79364014 72.79977417 C181.10179891 74.79343522 182.05910231 75.63724478 182.85845947 78.58325195 C182.72199137 81.55155522 182.46715073 84.38159312 182.09820557 87.3215332 C181.89548891 89.16411505 181.69683317 91.00714691 181.50163269 92.85054016 C181.39748487 93.83222986 181.29333706 94.81391956 181.18603325 95.82535744 C175.18758119 149.32505502 175.18758119 149.32505502 194.60797119 197.31759644 C209.86935348 215.35731209 228.36030633 230.97820998 247.30530357 245.02839661 C253.37300631 249.56361856 253.37300631 249.56361856 254.37017822 253.7121582 C254.6553328 257.6599649 254.53520337 260.55252349 252.3213501 263.92437744 C246.87722425 269.90460543 241.04285502 274.64814793 234.56478882 279.41192627 C212.26424478 295.8868587 185.47032372 316.43820018 180.95904541 345.35864258 C177.81942767 369.94152535 179.42664106 395.42664173 181.79373169 420.02386475 C181.88194183 420.97197651 181.97015198 421.92008827 182.06103516 422.89693069 C182.23001994 424.65496687 182.41428433 426.41163249 182.61709595 428.1660881 C182.97601676 431.84581948 183.07922093 434.05060672 181.64193726 437.51843262 C179.6482762 439.82659139 178.80446664 440.78389479 175.85845947 441.58325195 C172.8901562 441.44678385 170.06011831 441.19194321 167.12017822 440.82299805 C165.27759638 440.62028139 163.43456451 440.42162566 161.59117126 440.22642517 C160.60948156 440.12227736 159.62779186 440.01812954 158.61635399 439.91082573 C105.11665641 433.91237367 105.11665641 433.91237367 57.12411499 453.33276367 C39.08439933 468.59414596 23.46350145 487.08509881 9.41331482 506.03009605 C4.87809286 512.09779879 4.87809286 512.09779879 0.72955322 513.0949707 C-3.21825347 513.38012528 -6.11081206 513.25999585 -9.48266602 511.04614258 C-15.462894 505.60201673 -20.20643651 499.7676475 -24.97021484 493.2895813 C-41.44514727 470.98903726 -61.99648876 444.1951162 -90.91693115 439.68383789 C-115.49981392 436.54422016 -140.9849303 438.15143354 -165.58215332 440.51852417 C-166.53026508 440.60673431 -167.47837685 440.69494446 -168.45521927 440.78582764 C-170.21325544 440.95481242 -171.96992107 441.13907681 -173.72437668 441.34188843 C-177.40410805 441.70080924 -179.60889529 441.80401341 -183.07672119 440.36672974 C-185.38487996 438.37306869 -186.34218336 437.52925912 -187.14154053 434.58325195 C-187.00507243 431.61494868 -186.75023179 428.78491079 -186.38128662 425.8449707 C-186.17856997 424.00238886 -185.97991423 422.159357 -185.78471375 420.31596375 C-185.68056593 419.33427404 -185.57641811 418.35258434 -185.4691143 417.34114647 C-179.47066224 363.84144889 -179.47066224 363.84144889 -198.89105225 315.84890747 C-214.15243454 297.80919181 -232.64338739 282.18829393 -251.58838463 268.1381073 C-257.65608736 263.60288534 -257.65608736 263.60288534 -258.65325928 259.4543457 C-258.93841385 255.50653901 -258.81828442 252.61398042 -256.60443115 249.24212646 C-251.16030531 243.26189848 -245.32593607 238.51835598 -238.84786987 233.75457764 C-216.54732583 217.27964521 -189.75340478 196.72830372 -185.24212646 167.80786133 C-182.10250873 143.22497856 -183.70972212 117.73986218 -186.07681274 93.14263916 C-186.16502289 92.1945274 -186.25323303 91.24641563 -186.34411621 90.26957321 C-186.51310099 88.51153704 -186.69736539 86.75487141 -186.900177 85.0004158 C-187.25909781 81.32068443 -187.36230199 79.11589719 -185.92501831 75.64807129 C-183.93135726 73.33991252 -183.0875477 72.38260912 -180.14154053 71.58325195 C-177.17323726 71.71972005 -174.34319936 71.97456069 -171.40325928 72.34350586 C-169.56067743 72.54622251 -167.71764557 72.74487825 -165.87425232 72.94007874 C-164.89256262 73.04422655 -163.91087292 73.14837437 -162.89943504 73.25567818 C-109.39973746 79.25413024 -109.39973746 79.25413024 -61.40719604 59.83374023 C-43.36748039 44.57235794 -27.7465825 26.08140509 -13.69639587 7.13640785 C-9.65362468 1.72755817 -6.73733571 -0.27233154 0 0 Z " fill="#BB99F3" transform="translate(258.14154052734375,-0.583251953125)"/>
<path d="M0 0 C9.13576826 1.86410013 15.44235646 12.74476567 20.68713379 19.87692261 C37.16206622 42.17746665 57.7134077 68.9713877 86.6338501 73.48266602 C111.21673287 76.62228375 136.70184925 75.01507036 161.29907227 72.64797974 C162.24718403 72.55976959 163.19529579 72.47155945 164.17213821 72.38067627 C165.93017439 72.21169149 167.68684001 72.02742709 169.44129562 71.82461548 C173.121027 71.46569467 175.32581424 71.36249049 178.79364014 72.79977417 C181.10179891 74.79343522 182.05910231 75.63724478 182.85845947 78.58325195 C182.72199137 81.55155522 182.46715073 84.38159312 182.09820557 87.3215332 C181.89548891 89.16411505 181.69683317 91.00714691 181.50163269 92.85054016 C181.39748487 93.83222986 181.29333706 94.81391956 181.18603325 95.82535744 C175.18758119 149.32505502 175.18758119 149.32505502 194.60797119 197.31759644 C209.86935348 215.35731209 228.36030633 230.97820998 247.30530357 245.02839661 C253.37300631 249.56361856 253.37300631 249.56361856 254.37017822 253.7121582 C254.6553328 257.6599649 254.53520337 260.55252349 252.3213501 263.92437744 C246.87722425 269.90460543 241.04285502 274.64814793 234.56478882 279.41192627 C212.26424478 295.8868587 185.47032372 316.43820018 180.95904541 345.35864258 C177.81942767 369.94152535 179.42664106 395.42664173 181.79373169 420.02386475 C181.88194183 420.97197651 181.97015198 421.92008827 182.06103516 422.89693069 C182.23001994 424.65496687 182.41428433 426.41163249 182.61709595 428.1660881 C182.97601676 431.84581948 183.07922093 434.05060672 181.64193726 437.51843262 C179.6482762 439.82659139 178.80446664 440.78389479 175.85845947 441.58325195 C172.8901562 441.44678385 170.06011831 441.19194321 167.12017822 440.82299805 C165.27759638 440.62028139 163.43456451 440.42162566 161.59117126 440.22642517 C160.60948156 440.12227736 159.62779186 440.01812954 158.61635399 439.91082573 C105.11665641 433.91237367 105.11665641 433.91237367 57.12411499 453.33276367 C39.08439933 468.59414596 23.46350145 487.08509881 9.41331482 506.03009605 C4.87809286 512.09779879 4.87809286 512.09779879 0.72955322 513.0949707 C-3.21825347 513.38012528 -6.11081206 513.25999585 -9.48266602 511.04614258 C-15.462894 505.60201673 -20.20643651 499.7676475 -24.97021484 493.2895813 C-41.44514727 470.98903726 -61.99648876 444.1951162 -90.91693115 439.68383789 C-115.49981392 436.54422016 -140.9849303 438.15143354 -165.58215332 440.51852417 C-166.53026508 440.60673431 -167.47837685 440.69494446 -168.45521927 440.78582764 C-170.21325544 440.95481242 -171.96992107 441.13907681 -173.72437668 441.34188843 C-177.40410805 441.70080924 -179.60889529 441.80401341 -183.07672119 440.36672974 C-185.38487996 438.37306869 -186.34218336 437.52925912 -187.14154053 434.58325195 C-187.00507243 431.61494868 -186.75023179 428.78491079 -186.38128662 425.8449707 C-186.17856997 424.00238886 -185.97991423 422.159357 -185.78471375 420.31596375 C-185.68056593 419.33427404 -185.57641811 418.35258434 -185.4691143 417.34114647 C-179.47066224 363.84144889 -179.47066224 363.84144889 -198.89105225 315.84890747 C-214.15243454 297.80919181 -232.64338739 282.18829393 -251.58838463 268.1381073 C-257.65608736 263.60288534 -257.65608736 263.60288534 -258.65325928 259.4543457 C-258.93841385 255.50653901 -258.81828442 252.61398042 -256.60443115 249.24212646 C-251.16030531 243.26189848 -245.32593607 238.51835598 -238.84786987 233.75457764 C-216.54732583 217.27964521 -189.75340478 196.72830372 -185.24212646 167.80786133 C-182.10250873 143.22497856 -183.70972212 117.73986218 -186.07681274 93.14263916 C-186.16502289 92.1945274 -186.25323303 91.24641563 -186.34411621 90.26957321 C-186.51310099 88.51153704 -186.69736539 86.75487141 -186.900177 85.0004158 C-187.25909781 81.32068443 -187.36230199 79.11589719 -185.92501831 75.64807129 C-183.93135726 73.33991252 -183.0875477 72.38260912 -180.14154053 71.58325195 C-177.17323726 71.71972005 -174.34319936 71.97456069 -171.40325928 72.34350586 C-169.56067743 72.54622251 -167.71764557 72.74487825 -165.87425232 72.94007874 C-164.89256262 73.04422655 -163.91087292 73.14837437 -162.89943504 73.25567818 C-109.39973746 79.25413024 -109.39973746 79.25413024 -61.40719604 59.83374023 C-43.36748039 44.57235794 -27.7465825 26.08140509 -13.69639587 7.13640785 C-9.65362468 1.72755817 -6.73733571 -0.27233154 0 0 Z M-5.11251831 27.32044983 C-5.9188974 28.13428635 -6.72527649 28.94812286 -7.55609131 29.78662109 C-8.92859543 31.16419334 -8.92859543 31.16419334 -10.3288269 32.56959534 C-11.33152659 33.5858423 -12.33420132 34.60211389 -13.33685303 35.6184082 C-14.36807035 36.65589837 -15.39980614 37.69287344 -16.43203735 38.72935486 C-19.15893426 41.46958986 -21.88023374 44.21531176 -24.59997559 46.96264648 C-28.9304329 51.33608325 -33.26735167 55.7030828 -37.60784531 60.06655693 C-39.11455542 61.58337711 -40.61773346 63.10363095 -42.12057495 64.62428284 C-46.7623289 69.30635708 -51.44656344 73.87253279 -56.477005 78.13917542 C-60.11897072 81.29878191 -63.37649361 84.8603402 -66.72357178 88.32543945 C-70.01180591 91.39587455 -72.46771692 91.70733569 -76.79656982 91.78857422 C-78.20769295 91.81849205 -78.20769295 91.81849205 -79.64732361 91.84901428 C-80.65990738 91.86572678 -81.67249115 91.88243927 -82.71575928 91.8996582 C-83.75472855 91.9204393 -84.79369781 91.9412204 -85.864151 91.96263123 C-89.18571306 92.02805851 -92.50735469 92.08698016 -95.82904053 92.14575195 C-98.07969983 92.18894365 -100.33035105 92.23255815 -102.58099365 92.27661133 C-108.10109163 92.38373293 -113.6212689 92.48551211 -119.14154053 92.58325195 C-121.0559012 103.88860919 -121.48370512 114.96415998 -121.45721436 126.41503906 C-121.45406415 129.24950036 -121.47757308 132.08290374 -121.50286865 134.91723633 C-121.63683019 173.94004212 -109.70298523 212.03376032 -92.14154053 246.58325195 C-92.79606201 246.54176025 -93.4505835 246.50026855 -94.12493896 246.45751953 C-104.21887105 245.91896487 -112.40698794 249.20076378 -120.07904053 255.6809082 C-127.9237751 262.91648725 -133.21483138 270.43327651 -134.62200928 281.2902832 C-134.82859848 286.6225181 -134.93693359 290.30580249 -132.07904053 294.89575195 C-128.5153301 296.94298986 -126.26590574 297.65560924 -122.14154053 297.58325195 C-118.08109522 295.51472321 -115.83182463 293.79345501 -114.14154053 289.58325195 C-113.8739067 287.49371435 -113.8739067 287.49371435 -113.82904053 285.33325195 C-113.33529564 280.16595635 -111.48653469 276.52588508 -108.14154053 272.58325195 C-101.99476083 267.78876379 -96.76243501 266.78045743 -89.14154053 267.58325195 C-83.21366737 269.37802324 -79.6245459 272.56362656 -76.14154053 277.58325195 C-74.08174819 281.71863814 -73.89565303 285.14361308 -73.90203857 289.73754883 C-73.90002441 290.43916138 -73.89801025 291.14077393 -73.89593506 291.86364746 C-73.89240013 293.38211168 -73.89314357 294.90059066 -73.8977108 296.41905212 C-73.90333459 298.83434792 -73.89409269 301.24916878 -73.88050842 303.66442871 C-73.84352843 310.52996854 -73.82476225 317.39534953 -73.83612061 324.26098633 C-73.84202465 328.46861496 -73.82345228 332.67557885 -73.7902317 336.8830719 C-73.78235551 338.47439208 -73.78344728 340.06578627 -73.79425621 341.65708923 C-73.88487368 355.60891587 -71.70554495 367.03828641 -61.53607178 377.42700195 C-53.00906714 385.10547921 -44.40777834 389.17581303 -32.89154053 389.08325195 C-32.06033691 389.07753174 -31.2291333 389.07181152 -30.3727417 389.06591797 C-19.14007066 388.74224442 -10.96037054 384.56305788 -3.14154053 376.58325195 C-0.25984997 377.91619252 2.03498209 379.44737478 4.48345947 381.45825195 C14.75134863 389.08903297 25.37657562 390.04945615 37.85845947 388.58325195 C47.0826137 386.46790016 53.32681243 381.21075126 59.85845947 374.58325195 C60.18845947 374.25325195 60.51845947 373.92325195 60.85845947 373.58325195 C66.8861786 374.1778783 72.71621449 375.66054819 78.60845947 377.02075195 C87.05992716 378.9508073 95.33591748 380.31305997 104.00592041 380.68652344 C106.21783447 380.83325195 106.21783447 380.83325195 109.85845947 381.58325195 C111.68658447 384.02075195 111.68658447 384.02075195 112.85845947 386.58325195 C116.86187997 389.25219895 120.15095919 389.41592713 124.85845947 388.58325195 C127.96707461 386.39470773 127.96707461 386.39470773 129.85845947 383.58325195 C129.85845947 382.92325195 129.85845947 382.26325195 129.85845947 381.58325195 C130.57912598 381.58848877 131.29979248 381.59372559 132.04229736 381.59912109 C135.33517572 381.6200207 138.62804007 381.63295327 141.92095947 381.64575195 C143.05468994 381.65413086 144.18842041 381.66250977 145.35650635 381.67114258 C146.46187744 381.67436523 147.56724854 381.67758789 148.70611572 381.6809082 C149.71682129 381.68614502 150.72752686 381.69138184 151.76885986 381.69677734 C155.18640298 381.57120188 158.48284694 381.11838746 161.85845947 380.58325195 C161.85544327 379.91197266 161.85242706 379.24069336 161.84931946 378.54907227 C161.82469116 371.54026469 161.84895935 364.53281726 161.90118408 357.52416992 C161.91429564 354.91124701 161.91508408 352.29823123 161.90313721 349.68530273 C161.88809224 345.92119476 161.91786434 342.15965025 161.95611572 338.39575195 C161.9418605 337.23398437 161.92760529 336.0722168 161.91291809 334.87524414 C162.03609164 327.92075911 163.0161806 324.10363872 168.05986023 319.18798828 C168.65339798 318.65842529 169.24693573 318.1288623 169.85845947 317.58325195 C170.88430344 316.54651944 171.90607163 315.50571212 172.92095947 314.45825195 C174.38188357 313.02051713 175.8505199 311.59097924 177.31939697 310.16137695 C179.99366482 307.5295578 182.52481239 304.83897174 184.96026611 301.98364258 C189.1937062 297.1253034 193.72307973 292.59286249 198.29205322 288.05200195 C199.16999039 287.17547974 200.04792755 286.29895752 200.95246887 285.39587402 C203.73127444 282.622624 206.51355344 279.85288913 209.29595947 277.08325195 C211.19165812 275.1931439 213.0865573 273.30223677 214.98150635 271.41137695 C219.60451136 266.79934191 224.23036604 262.19018054 228.85845947 257.58325195 C227.36665414 254.10293656 225.38418392 251.87135446 222.70343018 249.21704102 C221.4161779 247.93485687 221.4161779 247.93485687 220.10292053 246.62677002 C218.70767403 245.25171295 218.70767403 245.25171295 217.28424072 243.84887695 C216.31686673 242.88778212 215.35001191 241.92616448 214.38365173 240.96405029 C211.83745817 238.43114817 209.28576827 235.90386304 206.73242188 233.37817383 C202.66299604 229.35185531 198.60011997 225.31895982 194.54073143 221.28252411 C193.13250938 219.88438939 191.72066569 218.48990543 190.30873108 217.09552002 C185.81150621 212.63190313 181.45179045 208.12574732 177.34944153 203.29469299 C174.39618959 199.90476851 171.11115111 196.83341475 167.87017822 193.72192383 C163.32672989 189.27674346 162.74821102 186.55003512 162.670578 180.24462891 C162.66482254 179.37644531 162.65906708 178.50826172 162.65313721 177.61376953 C162.64323761 176.69649582 162.63333801 175.77922211 162.62313843 174.83415222 C162.59152168 171.79872224 162.56676524 168.76327661 162.54205322 165.7277832 C162.52148385 163.6245635 162.50048738 161.52134794 162.4790802 159.4181366 C162.4238578 153.87960151 162.37444922 148.34102911 162.32623291 142.8024292 C162.27601915 137.15186233 162.22033242 131.50134973 162.1651001 125.85083008 C162.05751645 114.76168371 161.95607189 103.67249026 161.85845947 92.58325195 C160.68605713 92.58626816 159.51365479 92.58928436 158.3057251 92.59239197 C147.24145956 92.61629574 136.17776255 92.60341567 125.11357117 92.55478573 C119.42564766 92.5309609 113.73830954 92.51996775 108.050354 92.53857422 C102.55809936 92.55606384 97.06689499 92.53948815 91.57476807 92.49957466 C89.48250132 92.49030089 87.39014334 92.4931749 85.2979126 92.50855827 C82.35989896 92.52805786 79.42518006 92.50384882 76.48736572 92.46972656 C75.62780777 92.48554276 74.76824982 92.50135895 73.88264465 92.51765442 C67.84029944 92.38316231 64.85217876 90.56822896 60.55375671 86.36104679 C59.71458458 85.48103835 59.71458458 85.48103835 58.85845947 84.58325195 C57.88973349 83.63531075 56.92098561 82.6873919 55.95220947 81.73950195 C54.22304281 79.96866862 52.49387614 78.19783529 50.76470947 76.42700195 C48.68696782 74.3432234 46.52117417 72.41721315 44.28179932 70.50878906 C39.34925592 66.20897028 34.77278251 61.58677764 30.17877197 56.9309082 C28.34556835 55.08507625 26.51223121 53.23937688 24.67877197 51.39379883 C21.8123734 48.5035757 18.94856245 45.61080672 16.0869751 42.71582031 C13.31027841 39.90733491 10.52574346 37.10668576 7.74127197 34.3059082 C6.44916306 32.99360985 6.44916306 32.99360985 5.13095093 31.65480042 C4.33607269 30.85654343 3.54119446 30.05828644 2.722229 29.23583984 C1.6725444 28.1749691 1.6725444 28.1749691 0.60165405 27.09266663 C-1.94921548 24.88389433 -2.59892307 25.10499497 -5.11251831 27.32044983 Z " fill="#6864F6" transform="translate(258.14154052734375,-0.583251953125)"/>
<path d="M0 0 C9.13576826 1.86410013 15.44235646 12.74476567 20.68713379 19.87692261 C37.16206622 42.17746665 57.7134077 68.9713877 86.6338501 73.48266602 C111.21673287 76.62228375 136.70184925 75.01507036 161.29907227 72.64797974 C162.24718403 72.55976959 163.19529579 72.47155945 164.17213821 72.38067627 C165.93017439 72.21169149 167.68684001 72.02742709 169.44129562 71.82461548 C173.121027 71.46569467 175.32581424 71.36249049 178.79364014 72.79977417 C181.10179891 74.79343522 182.05910231 75.63724478 182.85845947 78.58325195 C182.72199137 81.55155522 182.46715073 84.38159312 182.09820557 87.3215332 C181.89548891 89.16411505 181.69683317 91.00714691 181.50163269 92.85054016 C181.39748487 93.83222986 181.29333706 94.81391956 181.18603325 95.82535744 C175.18758119 149.32505502 175.18758119 149.32505502 194.60797119 197.31759644 C209.86935348 215.35731209 228.36030633 230.97820998 247.30530357 245.02839661 C253.37300631 249.56361856 253.37300631 249.56361856 254.37017822 253.7121582 C254.6553328 257.6599649 254.53520337 260.55252349 252.3213501 263.92437744 C246.87722425 269.90460543 241.04285502 274.64814793 234.56478882 279.41192627 C212.26424478 295.8868587 185.47032372 316.43820018 180.95904541 345.35864258 C177.81942767 369.94152535 179.42664106 395.42664173 181.79373169 420.02386475 C181.88194183 420.97197651 181.97015198 421.92008827 182.06103516 422.89693069 C182.23001994 424.65496687 182.41428433 426.41163249 182.61709595 428.1660881 C182.97601676 431.84581948 183.07922093 434.05060672 181.64193726 437.51843262 C179.6482762 439.82659139 178.80446664 440.78389479 175.85845947 441.58325195 C172.8901562 441.44678385 170.06011831 441.19194321 167.12017822 440.82299805 C165.27759638 440.62028139 163.43456451 440.42162566 161.59117126 440.22642517 C160.60948156 440.12227736 159.62779186 440.01812954 158.61635399 439.91082573 C105.11665641 433.91237367 105.11665641 433.91237367 57.12411499 453.33276367 C39.08439933 468.59414596 23.46350145 487.08509881 9.41331482 506.03009605 C4.87809286 512.09779879 4.87809286 512.09779879 0.72955322 513.0949707 C-3.21825347 513.38012528 -6.11081206 513.25999585 -9.48266602 511.04614258 C-15.462894 505.60201673 -20.20643651 499.7676475 -24.97021484 493.2895813 C-41.44514727 470.98903726 -61.99648876 444.1951162 -90.91693115 439.68383789 C-115.49981392 436.54422016 -140.9849303 438.15143354 -165.58215332 440.51852417 C-166.53026508 440.60673431 -167.47837685 440.69494446 -168.45521927 440.78582764 C-170.21325544 440.95481242 -171.96992107 441.13907681 -173.72437668 441.34188843 C-177.40410805 441.70080924 -179.60889529 441.80401341 -183.07672119 440.36672974 C-185.38487996 438.37306869 -186.34218336 437.52925912 -187.14154053 434.58325195 C-187.00507243 431.61494868 -186.75023179 428.78491079 -186.38128662 425.8449707 C-186.17856997 424.00238886 -185.97991423 422.159357 -185.78471375 420.31596375 C-185.68056593 419.33427404 -185.57641811 418.35258434 -185.4691143 417.34114647 C-179.47066224 363.84144889 -179.47066224 363.84144889 -198.89105225 315.84890747 C-214.15243454 297.80919181 -232.64338739 282.18829393 -251.58838463 268.1381073 C-257.65608736 263.60288534 -257.65608736 263.60288534 -258.65325928 259.4543457 C-258.93841385 255.50653901 -258.81828442 252.61398042 -256.60443115 249.24212646 C-251.16030531 243.26189848 -245.32593607 238.51835598 -238.84786987 233.75457764 C-216.54732583 217.27964521 -189.75340478 196.72830372 -185.24212646 167.80786133 C-182.10250873 143.22497856 -183.70972212 117.73986218 -186.07681274 93.14263916 C-186.16502289 92.1945274 -186.25323303 91.24641563 -186.34411621 90.26957321 C-186.51310099 88.51153704 -186.69736539 86.75487141 -186.900177 85.0004158 C-187.25909781 81.32068443 -187.36230199 79.11589719 -185.92501831 75.64807129 C-183.93135726 73.33991252 -183.0875477 72.38260912 -180.14154053 71.58325195 C-177.17323726 71.71972005 -174.34319936 71.97456069 -171.40325928 72.34350586 C-169.56067743 72.54622251 -167.71764557 72.74487825 -165.87425232 72.94007874 C-164.89256262 73.04422655 -163.91087292 73.14837437 -162.89943504 73.25567818 C-109.39973746 79.25413024 -109.39973746 79.25413024 -61.40719604 59.83374023 C-43.36748039 44.57235794 -27.7465825 26.08140509 -13.69639587 7.13640785 C-9.65362468 1.72755817 -6.73733571 -0.27233154 0 0 Z M-5.11251831 27.32044983 C-5.9188974 28.13428635 -6.72527649 28.94812286 -7.55609131 29.78662109 C-8.47109406 30.70500259 -9.3860968 31.62338409 -10.3288269 32.56959534 C-11.33152659 33.5858423 -12.33420132 34.60211389 -13.33685303 35.6184082 C-14.36807035 36.65589837 -15.39980614 37.69287344 -16.43203735 38.72935486 C-19.15893426 41.46958986 -21.88023374 44.21531176 -24.59997559 46.96264648 C-28.9304329 51.33608325 -33.26735167 55.7030828 -37.60784531 60.06655693 C-39.11455542 61.58337711 -40.61773346 63.10363095 -42.12057495 64.62428284 C-46.62884044 69.17174095 -51.14116293 73.62942238 -56.10334778 77.6847229 C-58.29343172 79.61764962 -58.29343172 79.61764962 -60.29533386 82.4090271 C-64.28026021 87.33299033 -67.41095982 90.59946967 -73.85891724 91.57797241 C-79.71550982 92.09047439 -85.56259423 91.97870835 -91.43450928 91.8762207 C-93.59356117 91.87814492 -95.75261368 91.88492033 -97.91163635 91.89631653 C-103.56282089 91.91323629 -109.21157748 91.86473941 -114.86236572 91.80212402 C-120.64095518 91.74983002 -126.41940703 91.76007497 -132.19818115 91.76489258 C-143.51336156 91.76519115 -154.82696423 91.6963092 -166.14154053 91.58325195 C-166.15033989 93.35184822 -166.15033989 93.35184822 -166.15931702 95.15617371 C-166.21651939 106.2654401 -166.28926815 117.37451029 -166.37725544 128.48357677 C-166.421991 134.19492877 -166.46124025 139.90620891 -166.48797607 145.61767578 C-166.51397704 151.12912448 -166.55435706 156.64029711 -166.60472679 162.15157509 C-166.62141715 164.25467814 -166.63291789 166.35782897 -166.63915443 168.460989 C-166.64877178 171.40592799 -166.67680321 174.35015724 -166.70916748 177.29492188 C-166.70701485 178.60043755 -166.70701485 178.60043755 -166.70481873 179.93232727 C-166.80883036 186.62040074 -168.63967349 190.38468756 -173.46966553 195.0715332 C-174.10517334 195.69608398 -174.74068115 196.32063477 -175.39544678 196.96411133 C-176.05415771 197.60155273 -176.71286865 198.23899414 -177.39154053 198.89575195 C-178.69098618 200.16004226 -179.98786665 201.42697445 -181.28216553 202.6965332 C-181.85483154 203.25123291 -182.42749756 203.80593262 -183.01751709 204.37744141 C-184.84676741 206.27712837 -186.56141345 208.21789961 -188.27947998 210.21679688 C-192.56492873 215.14445598 -197.16407115 219.73120216 -201.79388428 224.33325195 C-202.69401749 225.23197021 -203.5941507 226.13068848 -204.52156067 227.05664062 C-206.88865316 229.4191177 -209.25788692 231.77940307 -211.62823486 234.13861084 C-214.05704795 236.55710377 -216.48295156 238.97851142 -218.90911865 241.3996582 C-223.65061422 246.13018149 -228.39495951 250.85783168 -233.14154053 255.58325195 C-231.61592092 259.19085991 -229.48097906 261.48051538 -226.71112061 264.22485352 C-225.79289017 265.1397052 -224.87465973 266.05455688 -223.92860413 266.99713135 C-222.92278535 267.98940557 -221.91694057 268.98165343 -220.91107178 269.97387695 C-219.87643745 271.00223313 -218.84232174 272.03111133 -217.80870056 273.06048584 C-215.08495596 275.77093547 -212.35571112 278.47577222 -209.62481689 281.17901611 C-205.2711371 285.48959489 -200.92401265 289.80675479 -196.58035851 294.12743378 C-195.07240201 295.62529006 -193.5610097 297.11961101 -192.04920959 298.61358643 C-187.37217007 303.25792185 -182.81574421 307.93240932 -178.54536438 312.95553589 C-176.57012353 315.24580276 -174.43389139 317.35089696 -172.26654053 319.45825195 C-167.19033576 324.39679693 -167.19033576 324.39679693 -166.98332214 329.43032837 C-166.96257311 331.13050009 -166.94732423 332.8307438 -166.93621826 334.53100586 C-166.92631866 335.45788712 -166.91641907 336.38476837 -166.90621948 337.33973694 C-166.87455233 340.41306985 -166.84982645 343.48641823 -166.82513428 346.55981445 C-166.80456925 348.68688364 -166.78357291 350.81394869 -166.76216125 352.94100952 C-166.70689394 358.54696312 -166.65750523 364.15295387 -166.60931396 369.75897217 C-166.55913293 375.47647418 -166.50342915 381.19392205 -166.44818115 386.91137695 C-166.3405426 398.13528906 -166.2391103 409.35924812 -166.14154053 420.58325195 C-164.39173637 420.59205132 -164.39173637 420.59205132 -162.60658264 420.60102844 C-151.61504403 420.65823227 -140.62370372 420.73098178 -129.63236713 420.81896687 C-123.98154945 420.86370132 -118.33080438 420.9029508 -112.67987061 420.9296875 C-107.22677504 420.95568958 -101.77395844 420.99607037 -96.32103539 421.04643822 C-94.2402614 421.06312782 -92.15943913 421.07462904 -90.07860756 421.08086586 C-87.16479852 421.09048403 -84.25170658 421.1185164 -81.33807373 421.15087891 C-80.04658417 421.14872627 -80.04658417 421.14872627 -78.72900391 421.14653015 C-72.993067 421.23667515 -69.6832888 422.31411376 -65.32049561 426.20898438 C-64.49908081 427.06520386 -64.49908081 427.06520386 -63.66107178 427.9387207 C-63.05456787 428.56069336 -62.44806396 429.18266602 -61.82318115 429.82348633 C-61.20636475 430.46608398 -60.58954834 431.10868164 -59.95404053 431.77075195 C-58.71521319 433.06040298 -57.47194294 434.34580579 -56.22357178 435.6262207 C-55.6793457 436.1936499 -55.13511963 436.7610791 -54.57440186 437.34570312 C-53.20482444 438.80113308 -53.20482444 438.80113308 -51.14154053 438.58325195 C-51.14154053 439.24325195 -51.14154053 439.90325195 -51.14154053 440.58325195 C-49.67607239 442.06919574 -49.67607239 442.06919574 -47.73724365 443.61865234 C-42.77405438 447.84214338 -38.20219607 452.39651118 -33.61029053 457.0168457 C-32.73376831 457.89478287 -31.85724609 458.77272003 -30.9541626 459.67726135 C-28.18091257 462.45606692 -25.41117771 465.23834592 -22.64154053 468.02075195 C-20.75143248 469.9164506 -18.86052535 471.81134978 -16.96966553 473.70629883 C-12.35763049 478.32930384 -7.74846912 482.95515852 -3.14154053 487.58325195 C0.42535704 486.06821997 2.69601574 483.98269217 5.41168213 481.24121094 C6.30585846 480.34365585 7.20003479 479.44610077 8.12130737 478.52134705 C9.08841073 477.54071131 10.05548149 476.56004343 11.02252197 475.5793457 C12.02041383 474.57518056 13.01882451 473.57153075 14.01773071 472.56837463 C16.64171115 469.93111212 19.26006042 467.28833524 21.87683105 464.6439209 C26.07104224 460.40652955 30.27204247 456.17589485 34.47626877 451.94844246 C35.94441784 450.47005862 37.40911425 448.98831616 38.87350464 447.50621033 C39.76137665 446.6118074 40.64924866 445.71740448 41.56402588 444.79589844 C42.34694 444.00473129 43.12985413 443.21356415 43.93649292 442.39842224 C45.85845947 440.58325195 45.85845947 440.58325195 47.85845947 439.58325195 C47.85845947 438.92325195 47.85845947 438.26325195 47.85845947 437.58325195 C48.45320068 437.31520752 49.04794189 437.04716309 49.66070557 436.77099609 C51.87658744 435.57345496 53.27925475 434.38006213 55.02252197 432.5793457 C55.58713135 432.0037793 56.15174072 431.42821289 56.73345947 430.83520508 C57.31095947 430.23643555 57.88845947 429.63766602 58.48345947 429.02075195 C59.64006098 427.82975811 60.79881725 426.6408519 61.96002197 425.4543457 C62.46871826 424.92768311 62.97741455 424.40102051 63.50152588 423.85839844 C66.98981307 420.58036246 71.4060648 421.40696258 75.89801025 421.37792969 C76.83464508 421.36803009 77.77127991 421.35813049 78.73629761 421.34793091 C81.8420964 421.31626273 84.94791051 421.29153747 88.05377197 421.2668457 C90.20326136 421.24628077 92.35274666 421.22528442 94.50222778 421.20387268 C100.16736548 421.14860446 105.83253996 421.09921615 111.4977417 421.05102539 C117.27556645 421.00084502 123.0533376 420.9451409 128.83111572 420.88989258 C140.17351788 420.78225291 151.51596653 420.68082086 162.85845947 420.58325195 C162.83101654 419.40799957 162.80357361 418.23274719 162.77529907 417.0218811 C162.52698261 405.87279151 162.3759991 394.72592487 162.31699181 383.57418251 C162.28362158 377.84209177 162.21760084 372.11448971 162.07330322 366.3840332 C161.04859242 324.15896645 161.04859242 324.15896645 170.07028198 314.15072632 C173.09780754 311.47284219 176.22341283 309.22097364 179.65635681 307.09405518 C182.66016817 305.03322124 184.73796777 302.52310595 187.0446167 299.72964478 C190.53679528 295.59720995 194.45708257 291.86337598 198.29205322 288.05200195 C199.16999039 287.17547974 200.04792755 286.29895752 200.95246887 285.39587402 C203.73127444 282.622624 206.51355344 279.85288913 209.29595947 277.08325195 C211.19165812 275.1931439 213.0865573 273.30223677 214.98150635 271.41137695 C219.60451136 266.79934191 224.23036604 262.19018054 228.85845947 257.58325195 C227.36665414 254.10293656 225.38418392 251.87135446 222.70343018 249.21704102 C221.4161779 247.93485687 221.4161779 247.93485687 220.10292053 246.62677002 C218.70767403 245.25171295 218.70767403 245.25171295 217.28424072 243.84887695 C216.31686673 242.88778212 215.35001191 241.92616448 214.38365173 240.96405029 C211.83745817 238.43114817 209.28576827 235.90386304 206.73242188 233.37817383 C202.66299604 229.35185531 198.60011997 225.31895982 194.54073143 221.28252411 C193.13250938 219.88438939 191.72066569 218.48990543 190.30873108 217.09552002 C185.81150621 212.63190313 181.45179045 208.12574732 177.34944153 203.29469299 C174.39618959 199.90476851 171.11115111 196.83341475 167.87017822 193.72192383 C163.32672989 189.27674346 162.74821102 186.55003512 162.670578 180.24462891 C162.66482254 179.37644531 162.65906708 178.50826172 162.65313721 177.61376953 C162.64323761 176.69649582 162.63333801 175.77922211 162.62313843 174.83415222 C162.59152168 171.79872224 162.56676524 168.76327661 162.54205322 165.7277832 C162.52148385 163.6245635 162.50048738 161.52134794 162.4790802 159.4181366 C162.4238578 153.87960151 162.37444922 148.34102911 162.32623291 142.8024292 C162.27601915 137.15186233 162.22033242 131.50134973 162.1651001 125.85083008 C162.05751645 114.76168371 161.95607189 103.67249026 161.85845947 92.58325195 C160.68605713 92.58626816 159.51365479 92.58928436 158.3057251 92.59239197 C147.24145956 92.61629574 136.17776255 92.60341567 125.11357117 92.55478573 C119.42564766 92.5309609 113.73830954 92.51996775 108.050354 92.53857422 C102.55809936 92.55606384 97.06689499 92.53948815 91.57476807 92.49957466 C89.48250132 92.49030089 87.39014334 92.4931749 85.2979126 92.50855827 C82.35989896 92.52805786 79.42518006 92.50384882 76.48736572 92.46972656 C75.62780777 92.48554276 74.76824982 92.50135895 73.88264465 92.51765442 C67.84029944 92.38316231 64.85217876 90.56822896 60.55375671 86.36104679 C59.99430862 85.77437449 59.43486053 85.1877022 58.85845947 84.58325195 C57.88973349 83.63531075 56.92098561 82.6873919 55.95220947 81.73950195 C54.22304281 79.96866862 52.49387614 78.19783529 50.76470947 76.42700195 C48.68696782 74.3432234 46.52117417 72.41721315 44.28179932 70.50878906 C39.34925592 66.20897028 34.77278251 61.58677764 30.17877197 56.9309082 C28.34556835 55.08507625 26.51223121 53.23937688 24.67877197 51.39379883 C21.8123734 48.5035757 18.94856245 45.61080672 16.0869751 42.71582031 C13.31027841 39.90733491 10.52574346 37.10668576 7.74127197 34.3059082 C6.44916306 32.99360985 6.44916306 32.99360985 5.13095093 31.65480042 C4.33607269 30.85654343 3.54119446 30.05828644 2.722229 29.23583984 C1.6725444 28.1749691 1.6725444 28.1749691 0.60165405 27.09266663 C-1.94921548 24.88389433 -2.59892307 25.10499497 -5.11251831 27.32044983 Z " fill="#062A76" transform="translate(258.14154052734375,-0.583251953125)"/>
<path d="M0 0 C10.41091621 7.48629487 16.24650415 15.84184688 19.375 28.3125 C19.54827237 30.76415794 19.62791002 33.22362434 19.63037109 35.68139648 C19.63399155 36.38157898 19.637612 37.08176147 19.64134216 37.80316162 C19.64819216 39.3112248 19.65074992 40.81931254 19.64939499 42.32739067 C19.64842252 44.72046792 19.66145592 47.11310485 19.67837524 49.50611877 C19.72443335 56.30555872 19.74924718 63.1049502 19.75585938 69.90454102 C19.76089148 74.07548976 19.78522176 78.24597414 19.82118607 82.41676521 C19.83093978 83.99825304 19.83334033 85.57980507 19.82801437 87.16131401 C19.70291455 98.81980111 19.70291455 98.81980111 24.375 109.3125 C30.28355135 114.92562378 35.09635994 115.83132238 43.10546875 115.6875 C47.84483539 115.14391673 50.99107126 113.66308954 54.375 110.3125 C56.05225565 108.02711656 57.15339136 105.90231031 58.375 103.3125 C58.705 102.6525 59.035 101.9925 59.375 101.3125 C59.46765633 99.96797769 59.49964877 98.61899719 59.49957275 97.27128601 C59.50213577 96.42593292 59.50469879 95.58057983 59.50733948 94.70960999 C59.50523972 93.78023117 59.50313995 92.85085236 59.50097656 91.89331055 C59.5028447 90.91593933 59.50471283 89.93856812 59.50663757 88.93157959 C59.51064797 86.80408175 59.512717 84.67657958 59.51309967 82.54907799 C59.51650637 78.03008146 59.53785746 73.51122997 59.55833054 68.99228382 C59.59640425 60.57206659 59.62761355 52.15200251 59.62548828 43.73168945 C59.62470217 37.88070167 59.64802376 32.03024186 59.6873703 26.17939186 C59.69784865 23.94788803 59.69934092 21.71632339 59.69171906 19.48480797 C59.68211935 16.36258006 59.70323931 13.24195604 59.73144531 10.11987305 C59.72124863 9.19656693 59.71105194 8.2732608 59.70054626 7.32197571 C59.7746704 2.74990002 59.87744421 0.92506846 62.85272217 -2.73796082 C63.68507385 -3.38130875 64.51742554 -4.02465668 65.375 -4.6875 C65.705 -5.0175 66.035 -5.3475 66.375 -5.6875 C71.36535504 -6.07137346 74.37316167 -5.77463243 78.375 -2.6875 C80.41525483 0.37288224 80.62495978 0.9683291 80.6265564 4.40908813 C80.63463066 5.65788757 80.63463066 5.65788757 80.64286804 6.93191528 C80.63874405 7.8420639 80.63462006 8.75221252 80.63037109 9.68994141 C80.63580177 11.13194916 80.63580177 11.13194916 80.64134216 12.60308838 C80.64824169 14.69344762 80.65074056 16.7838249 80.64939499 18.8741951 C80.64843079 22.18711789 80.66136128 25.49971527 80.67837524 28.81259155 C80.72466842 38.23294516 80.74923844 47.65326709 80.75585938 57.07373047 C80.76088523 62.83504402 80.78519505 68.59602046 80.82118607 74.3572197 C80.83096395 76.54913683 80.83332704 78.74110048 80.82801437 80.93303299 C80.82091277 84.00861616 80.83829204 87.0832023 80.86083984 90.15869141 C80.85266739 91.05669464 80.84449493 91.95469788 80.83607483 92.87991333 C80.92734883 99.91397398 82.56996136 106.13986557 87.3125 111.50390625 C93.54960996 115.65016685 98.97781689 116.49001078 106.375 115.3125 C112.61049614 113.39622558 116.21012267 110.077332 119.4612608 104.42343712 C120.46380131 102.10734957 120.62312703 100.54941281 120.61982727 98.0375061 C120.62376495 97.19084885 120.62770264 96.34419159 120.63175964 95.47187805 C120.62606461 94.55126083 120.62036957 93.63064362 120.61450195 92.68212891 C120.61651611 91.70607193 120.61853027 90.73001495 120.62060547 89.72438049 C120.62415001 87.60565092 120.62338507 85.48691077 120.61882973 83.36818314 C120.61323948 80.01399785 120.62239062 76.66015873 120.6360321 73.30599976 C120.67317347 63.76973948 120.69169427 54.23359618 120.68041992 44.69726562 C120.67456824 38.86344584 120.69283324 33.03011265 120.72630882 27.19639206 C120.73426334 24.9740777 120.73298521 22.75171033 120.72228432 20.5294075 C120.70795483 17.41962049 120.72423166 14.31136278 120.74731445 11.20166016 C120.73554672 10.2850914 120.72377899 9.36852264 120.71165466 8.42417908 C120.77478587 4.0839474 121.00751434 1.20370451 123.78923035 -2.24307251 C127.40509275 -5.66128629 127.40509275 -5.66128629 130.3984375 -5.7421875 C131.17445313 -5.68289062 131.95046875 -5.62359375 132.75 -5.5625 C133.52085937 -5.51867187 134.29171875 -5.47484375 135.0859375 -5.4296875 C138.53404358 -4.31170089 139.47599587 -2.77141854 141.375 0.3125 C141.9631876 3.58968631 141.92162028 6.82232034 141.89257812 10.14477539 C141.8995874 11.13084778 141.90659668 12.11692017 141.91381836 13.13287354 C141.93141841 16.39225463 141.91976167 19.6507663 141.90625 22.91015625 C141.90894583 25.18354966 141.91282901 27.45694195 141.91784668 29.73033142 C141.92374574 34.4992875 141.91517093 39.26794399 141.89648438 44.03686523 C141.87378574 50.12395104 141.886758 56.2103278 141.91077423 62.29738712 C141.92529866 66.99628437 141.92059425 71.69501649 141.91026306 76.39391899 C141.90760938 78.63640872 141.91081726 80.87891383 141.92018127 83.12138557 C141.97485608 99.90724913 141.3846205 112.66608456 129.41015625 125.40234375 C120.32172377 134.22781977 110.81023422 137.06926703 98.38989258 136.90454102 C87.27934818 136.39663677 79.11764169 132.21454902 71.375 124.3125 C68.49330945 125.64544056 66.19847739 127.17662283 63.75 129.1875 C53.48211084 136.81828101 42.85688385 137.7787042 30.375 136.3125 C18.68676806 133.63206754 10.13316948 125.62926841 3.62890625 115.84375 C-0.66141213 107.18292038 -1.044449 99.35241712 -1.00512505 89.90095329 C-0.9959228 87.48241374 -1.00633995 85.06463437 -1.02174377 82.64613342 C-1.0616004 75.77671302 -1.06304612 68.90735874 -1.06079102 62.0378418 C-1.06073974 57.8192317 -1.07998525 53.60103606 -1.11012459 49.38253975 C-1.12088172 47.0115772 -1.10886412 44.64142813 -1.09629822 42.27049255 C-1.11463569 30.62209149 -1.11463569 30.62209149 -7.03684998 20.81163025 C-12.34405501 16.03150974 -17.09347002 14.84039054 -24.05859375 14.99609375 C-29.45580154 15.66150293 -33.29265794 17.91003467 -37 21.8125 C-39.42320331 25.54050509 -40.79594144 28.2139086 -41 32.6875 C-41.41897404 37.14920605 -42.66697391 39.84738372 -45.625 43.3125 C-48.28363745 45.42107453 -49.61201207 45.31273614 -53.0625 45.25 C-57.64482103 44.04412605 -59.0936948 43.37792956 -61.625 39.3125 C-63.12467303 29.87553311 -61.4839711 21.49006907 -56.625 13.3125 C-43.20520723 -5.01317445 -20.32868281 -12.68814046 0 0 Z " fill="#FBCA51" transform="translate(185.625,251.6875)"/>
<path d="M0 0 C3.82182382 1.69858837 5.47873994 3.14461865 7 7 C7.23950195 9.53027344 7.23950195 9.53027344 7.23828125 12.359375 C7.25439453 13.39320313 7.27050781 14.42703125 7.28710938 15.4921875 C7.30391422 17.6483783 7.3092923 19.80469118 7.30273438 21.9609375 C7.43682181 28.93348393 8.43632432 33.61111405 13 39 C17.3600742 43.14207049 21.32378011 45.0668326 27.3125 45.375 C32.93978218 45.22518883 37.35925645 43.38605255 41.5390625 39.609375 C48.14330834 32.27132407 47.34418465 23.5813107 47.390625 14.32226562 C47.56820135 6.71114594 47.56820135 6.71114594 49.9140625 2.84765625 C52.66335328 0.41242303 53.58423902 0.03137819 57.3125 -0.25 C61.22632394 0.015344 62.93192479 0.63319912 66 3 C68.21212938 6.31819407 68.24888891 7.39597947 68.2734375 11.26171875 C68.2940625 12.29876953 68.3146875 13.33582031 68.3359375 14.40429688 C68.36174587 16.57349078 68.38011345 18.74278742 68.390625 20.91210938 C68.55092303 28.12106798 69.29822709 34.21128069 74.51757812 39.55322266 C79.11310741 43.5107942 81.76521357 44.17424321 87.75 44.25 C89.56757813 44.28867188 89.56757813 44.28867188 91.421875 44.328125 C96.88015873 43.8275837 99.99175442 42.05407492 103.75 38.125 C106.97291175 33.64873368 108.23368627 30.15925704 108.30859375 24.65625 C108.33373047 23.65722656 108.35886719 22.65820312 108.38476562 21.62890625 C108.41992083 19.54303091 108.45117116 17.4570861 108.47851562 15.37109375 C108.73249038 5.76960921 108.73249038 5.76960921 112 2 C115.68497796 -0.45665197 118.71971786 -0.70086491 123 0 C125.8100346 1.79363911 127.50940468 3.01880935 129 6 C129.2734172 10.34857636 129.23174465 14.70631773 129.25 19.0625 C129.2809375 20.86750977 129.2809375 20.86750977 129.3125 22.70898438 C129.36562309 34.86753176 126.36170711 44.6506306 118.2890625 53.9765625 C109.02423718 62.85046692 97.10635993 66.47801312 84.546875 66.3359375 C74.0187709 65.33878227 66.19945653 60.49710848 59 53 C56.14469278 54.29506375 54.15979431 55.68112377 51.9375 57.875 C47.55555959 61.76266514 42.51644916 63.28708983 37 65 C36.01 65.33 35.02 65.66 34 66 C21.07795068 67.11966621 10.41348946 63.67216061 0 56 C-7.27765925 49.54515603 -12.56850506 39.95569836 -13.17700195 30.14672852 C-13.24316321 26.6185672 -13.28480238 23.09117701 -13.3125 19.5625 C-13.34150391 18.33466797 -13.37050781 17.10683594 -13.40039062 15.84179688 C-13.40876953 14.65779297 -13.41714844 13.47378906 -13.42578125 12.25390625 C-13.44036377 11.17439697 -13.45494629 10.0948877 -13.4699707 8.98266602 C-12.88917015 5.29661907 -11.5662372 3.65580918 -9 1 C-5.93570224 -0.53214888 -3.3834358 -0.22938548 0 0 Z " fill="#FCCA52" transform="translate(198,139)"/>
<path d="M0 0 C2.78574253 2.71609896 4.89648995 5.255086 5.13142776 9.21553516 C5.13440243 10.14373916 5.13737709 11.07194315 5.14044189 12.02827454 C5.14900711 13.62445618 5.14900711 13.62445618 5.15774536 15.25288391 C5.15886322 16.42538193 5.15998108 17.59787994 5.16113281 18.8059082 C5.16609772 20.03687225 5.17106262 21.2678363 5.17617798 22.53610229 C5.18830032 25.91845898 5.19574848 29.30075372 5.20018864 32.68312478 C5.20311857 34.79614483 5.20722326 36.90915943 5.21169281 39.02217674 C5.22537047 45.63284128 5.23503546 52.24349339 5.2388947 58.8541711 C5.24337442 66.48593743 5.26091704 74.11752456 5.2898953 81.7492364 C5.31151375 87.64739897 5.32159909 93.54551113 5.32293582 99.44371289 C5.32398386 102.96674464 5.32989111 106.489608 5.34775543 110.01259804 C5.36730114 113.94376019 5.36294646 117.8746986 5.35644531 121.8059082 C5.3656601 122.97233353 5.37487488 124.13875885 5.3843689 125.3405304 C5.37879974 126.41311096 5.37323059 127.48569153 5.36749268 128.59077454 C5.36895924 129.52010961 5.3704258 130.44944468 5.3719368 131.40694141 C4.91784664 134.57275451 3.87399232 136.42529573 2 139 C-2.00254616 141.66836411 -5.29313299 141.8340238 -10 141 C-12.75569447 138.81840855 -14.43588747 137.12822506 -16 134 C-16.10354987 132.31589733 -16.1438369 130.62774385 -16.15390015 128.94049072 C-16.16680084 127.33385559 -16.16680084 127.33385559 -16.17996216 125.69476318 C-16.18422211 124.51448547 -16.18848206 123.33420776 -16.19287109 122.11816406 C-16.20104858 120.87905273 -16.20922607 119.63994141 -16.21765137 118.36328125 C-16.24254005 114.24739914 -16.25918068 110.13155383 -16.2734375 106.015625 C-16.2787973 104.59860986 -16.28417481 103.18159478 -16.28956985 101.76457977 C-16.31120034 95.8694713 -16.32993637 89.97436557 -16.34119225 84.07922745 C-16.35742669 75.63219756 -16.39058953 67.18562802 -16.44759309 58.73877168 C-16.48630984 52.79898392 -16.50582703 46.85931918 -16.51111281 40.91940856 C-16.51476438 37.37217247 -16.52676335 33.82542734 -16.55921555 30.27832794 C-16.59492334 26.31855306 -16.59092082 22.35935441 -16.58349609 18.39941406 C-16.59990143 17.22723328 -16.61630676 16.05505249 -16.63320923 14.84735107 C-16.56509339 5.98437482 -16.56509339 5.98437482 -13.58853149 2.28753662 C-9.13648508 -1.6468251 -5.63628473 -1.49431748 0 0 Z " fill="#FAC857" transform="translate(384,247)"/>
<path d="M0 0 C1.09968351 0.9356577 2.19836159 1.87249713 3.29663086 2.80981445 C3.90856796 3.33138626 4.52050507 3.85295807 5.15098572 4.39033508 C7.45539554 6.39644595 9.66906696 8.48688055 11.8828125 10.59179688 C18.25605254 16.64637492 24.86324759 22.2233674 31.84375 27.5625 C32.8853125 28.366875 33.926875 29.17125 35 30 C35.84957275 30.55917114 35.84957275 30.55917114 36.71630859 31.12963867 C40.13117675 33.53600466 40.95696554 34.7674751 41.7265625 38.92578125 C41.73021078 40.38840813 41.69494966 41.85154218 41.625 43.3125 C41.6038916 44.07143555 41.5827832 44.83037109 41.56103516 45.61230469 C41.2542028 52.05717262 40.11095512 56.78922814 35.5390625 61.5078125 C29.6335889 66.75379158 25.011553 67.50446043 17.26953125 67.3828125 C11.21054354 66.67339697 7.71940092 63.8098957 3.625 59.5 C0.85583273 55.23974265 -0.25176324 51.73734532 -0.22705078 46.65893555 C-0.22689972 45.6182341 -0.22674866 44.57753265 -0.22659302 43.5052948 C-0.21110916 41.83784966 -0.21110916 41.83784966 -0.1953125 40.13671875 C-0.1924826 38.98959915 -0.18965271 37.84247955 -0.18673706 36.66059875 C-0.17555697 33.00279232 -0.15045595 29.34523222 -0.125 25.6875 C-0.11496741 23.20508167 -0.10584205 20.72265949 -0.09765625 18.24023438 C-0.07562471 12.16007244 -0.04216848 6.08005382 0 0 Z " fill="#6864F6" transform="translate(205,301)"/>
<path d="M0 0 C2.8100346 1.79363911 4.50940468 3.01880935 6 6 C6.32135165 9.763882 6.32437846 13.53659322 6.375 17.3125 C6.41238281 18.35857422 6.44976562 19.40464844 6.48828125 20.48242188 C6.57713854 28.23768835 6.57713854 28.23768835 3.6015625 32.16796875 C-0.24459579 34.87644959 -2.27218257 35.37080921 -7 35 C-10.49406769 33.33237678 -11.82670681 32.25993978 -14 29 C-14.46241172 25.22376714 -14.37032982 21.42652457 -14.375 17.625 C-14.39949219 16.5834375 -14.42398438 15.541875 -14.44921875 14.46875 C-14.47864716 6.79774526 -14.47864716 6.79774526 -12.1015625 2.8359375 C-8.38380024 -0.41192173 -4.80355569 -0.69016605 0 0 Z " fill="#FCCA52" transform="translate(260,78)"/>
<path d="M0 0 C3.89407036 1.50186278 7.63740854 3.22282309 11.39453125 5.0390625 C11.98674973 5.32478119 12.5789682 5.61049988 13.18913269 5.90487671 C15.06434764 6.81002262 16.93843663 7.71747259 18.8125 8.625 C20.09042086 9.24234056 21.36841493 9.85952961 22.64648438 10.4765625 C25.76517152 11.98262354 28.88285375 13.49075182 32 15 C29.3518775 17.90032464 27.36024081 18.83865011 23.3984375 19.30859375 C16.64491617 19.59653458 12.26195927 18.94897227 6.84375 14.77734375 C2.48933245 10.57975903 0.59071873 6.05486697 0 0 Z " fill="#6B66F4" transform="translate(266,349)"/>
</svg>
